SplineFontDB: 3.0
FontName: Klei
FullName: Klei
FamilyName: Klei
Weight: Regular
Copyright: Copyright (c) 2015, Joseph Steck, Rocketroom, LLC. All rights reserved.
UComments: "For my beloved Alisa +ACIA-Clay+ACIA Steck+AAoA-2015-02-14: Created with FontForge (http://fontforge.org)"
Version: 001.000
ItalicAngle: 0
UnderlinePosition: -100
UnderlineWidth: 50
Ascent: 768
Descent: 232
InvalidEm: 0
LayerCount: 2
Layer: 0 0 "Back" 1
Layer: 1 0 "Fore" 0
PreferredKerning: 4
XUID: [1021 610 -1734517455 9502657]
FSType: 0
OS2Version: 3
OS2_WeightWidthSlopeOnly: 0
OS2_UseTypoMetrics: 1
CreationTime: 1424325067
ModificationTime: 1533937681
PfmFamily: 17
TTFWeight: 400
TTFWidth: 5
LineGap: 90
VLineGap: 0
Panose: 2 0 5 3 0 0 0 0 0 0
OS2TypoAscent: 0
OS2TypoAOffset: 1
OS2TypoDescent: 0
OS2TypoDOffset: 1
OS2TypoLinegap: 90
OS2WinAscent: 0
OS2WinAOffset: 1
OS2WinDescent: 0
OS2WinDOffset: 1
HheadAscent: 0
HheadAOffset: 1
HheadDescent: 0
HheadDOffset: 1
OS2Vendor: 'PfEd'
OS2CodePages: 20000001.00000000
OS2UnicodeRanges: 00000005.00000000.00000000.00000000
Lookup: 4 0 1 "'liga' Standard Ligatures in Latin lookup 0" { "'liga' ffl"  "'liga' ffi"  "'liga' ff"  "'liga' fi"  "'liga' fl"  } ['liga' ('DFLT' <'dflt' > 'latn' <'dflt' > ) ]

StartChar: s
Encoding: 115 115 0
GlifName: s
Width: 421
VWidth: 0
Flags: W
HStem: -10 27.4434<149.53 262.573> 488.515 22.2139<187.98 273.308>
VStem: 45.0039 46.915<61.8425 108.564> 78.6777 62.4834<357.66 445.09> 312.924 59.791<66.2578 160.333>
LayerCount: 2
Fore
SplineSet
206.697265625 17.443359375 m 4xe8
 262.73803667 17.443359375 312.923828125 52.8212890625 312.923828125 108 c 7
 312.923828125 161.19140625 250.326252142 200.400148812 205 232 c 4
 162.983740619 261.292241939 78.677734375 309.74609375 78.677734375 375 c 7
 78.677734375 442.909179688 137.420898438 510.728515625 230 510.728515625 c 7
 288.583007812 510.728515625 348.122070312 485.443359375 348.122070312 472 c 7
 348.122070312 460.603515625 331.561523438 417.336914062 326 417.336914062 c 7
 318.53515625 417.336914062 302.041015625 488.514648438 233 488.514648438 c 7
 172.270507812 488.514648438 141.161132812 443.344726562 141.161132812 406.037109375 c 4xd8
 141.161132812 351.932617188 223.828125 306.705078125 260.693359375 280.640625 c 4
 314.379882812 242.68359375 372.71484375 202.50390625 372.71484375 141 c 7
 372.71484375 58.029296875 299.731608209 -10 210.43359375 -10 c 4
 98.7607421875 -10 45.00390625 48.65234375 45.00390625 76 c 7
 45.00390625 89.4951171875 78.685546875 123.54296875 89 123.54296875 c 7
 90.6416015625 123.54296875 91.69140625 122.498046875 91.9189453125 120.418945312 c 4
 95.779296875 85.2255859375 118.831054688 17.443359375 206.697265625 17.443359375 c 4xe8
EndSplineSet
Validated: 1
EndChar

StartChar: W
Encoding: 87 87 1
GlifName: W_
Width: 1043
VWidth: 0
Flags: W
HStem: -7.8291 21G<382.541 385.819 695.731 699.01> -7.8291 21G<382.541 385.819 695.731 699.01> 717.917 16.083<50 73.998 196.409 236.496 353.191 386.305 483.105 519.14 587.612 624.374 709.807 731.808 886.803 927.979 1011 1035>
LayerCount: 2
Fore
SplineSet
910.169921875 716.469726562 m 0xa0
 902.21484375 718.079101562 895.095703125 717.805664062 886.802734375 717.916992188 c 1
 886.802734375 734 l 1
 1035 734 l 1
 1035 717.916992188 l 1
 1026.70703125 717.805664062 1018.5234375 717.364257812 1010.62890625 715.469726562 c 0
 995.650390625 711.875 989.7421875 695.045898438 980.80078125 678.93359375 c 1
 980.737617834 678.93359375 l 1
 714.568359375 21.30859375 l 2
 709.9921875 10.5703125 706.544921875 2.810546875 706.544921875 2.810546875 c 2
 702.557617188 -6.1328125 700.899414062 -7.8291015625 697.12109375 -7.8291015625 c 0
 694.341796875 -7.8291015625 692.888671875 -5.7373046875 689.4140625 2.46484375 c 0
 686.329101562 9.74609375 613.531614622 178.635189646 541.027904757 351.614387824 c 1
 401.376953125 21.30859375 l 2
 396.801757812 10.5703125 393.353515625 2.810546875 393.353515625 2.810546875 c 2
 389.3671875 -6.1328125 387.708984375 -7.8291015625 383.9296875 -7.8291015625 c 0
 381.151367188 -7.8291015625 379.51171875 -5.8134765625 376.223632812 2.46484375 c 0
 371.248966462 14.9881331699 177.825337137 491.936168136 107.404737485 665.572212276 c 0
 107.365528115 665.572212276 107.326318745 665.57421875 107.287109375 665.57421875 c 0
 104.725498326 671.89979546 102.500680962 677.637301112 100.423967757 682.784616096 c 0
 100.194026283 683.351577469 99.9659668884 683.913897974 99.739806583 684.471537444 c 0
 92.4859960655 702.255339257 86.8309852715 712.619540917 74.369140625 715.469726562 c 0
 66.455078125 717.279296875 58.294921875 717.805664062 50 717.916992188 c 1
 50 734 l 1
 236.49609375 734 l 1
 236.49609375 717.916992188 l 1
 228.203125 717.805664062 220.08203125 717.079101562 212.125 715.469726562 c 0
 197.623491248 712.53161413 184.342964925 706.416805824 184.342964925 687 c 0
 184.342964925 681.272546643 185.533030309 674.387690803 188.186158449 666.0855606 c 2
 403.486328125 136.583984375 l 1
 518.287267373 405.869573222 l 1
 467.890420113 526.108931785 420.031966602 640.300136861 397.218384356 694.734457004 c 0
 391.432879948 706.375386548 385.534963166 713.188224525 375.559570312 715.469726562 c 0
 367.646484375 717.279296875 361.486328125 717.805664062 353.19140625 717.916992188 c 1
 353.19140625 734 l 1
 519.139648438 734 l 1
 519.139648438 718.051757812 l 1
 510.846679688 717.94140625 504.791015625 718.043945312 496.767578125 715.603515625 c 0
 483.183952083 711.473080263 470.795467859 705.230266446 470.795467859 688 c 0
 470.795467859 681.577974115 472.345761787 673.629587681 476.186523438 663.6953125 c 2
 551.568210638 483.93581957 l 1
 626.743547434 660.272659393 l 1
 626.626953125 660.23046875 l 1
 632.124519816 672.694092121 634.310184803 682.413468672 634.310184803 690 c 0
 634.310184803 706.387923517 623.038206144 712.823610573 609.978515625 715.469726562 c 0
 602.0234375 717.079101562 595.904296875 717.805664062 587.612304688 717.916992188 c 1
 587.612304688 734 l 1
 644.03515625 734 l 1
 678.310546875 734 l 1
 731.807617188 734 l 1
 731.807617188 717.916992188 l 1
 723.515625 717.805664062 717.33203125 717.364257812 709.438476562 715.469726562 c 0
 695.341475879 712.086556689 688.172257386 698.042266138 680.700049474 681.97030829 c 2
 581.710129494 447.836965538 l 1
 712.677734375 135.583984375 l 1
 928.598516654 660.262018536 l 1
 928.23828125 660.129882812 l 1
 934.359488455 673.993739914 936.782300148 684.283764988 936.782300148 692 c 0
 936.782300148 709.542025283 923.4387936 713.781905123 910.169921875 716.469726562 c 0xa0
EndSplineSet
Validated: 1
EndChar

StartChar: A
Encoding: 65 65 2
GlifName: A_
Width: 777
VWidth: 0
Flags: W
HStem: 0 16<50 73.625 156.765 198 537 577.937 699.376 724> 312 29<269.376 470.738> 710.333 20G<393 407.094>
LayerCount: 2
Fore
SplineSet
562 18 m 4
 576 21 589.481445312 27.287109375 589.481445312 46.94921875 c 4
 589.481445312 52.484375 589.136346134 59.38782657 586 67 c 4
 489 303 l 4
 487 307 485 312 481 312 c 6
 261 312 l 6
 255 312 253.375960619 308.256737098 251.530273438 303.770507812 c 6
 157 74 l 6
 150.959960938 60.107421875 148.4765625 49.771484375 148.4765625 42.001953125 c 4
 148.4765625 24.044921875 161.73828125 19.7919921875 175 17 c 4
 183 16 190 16 198 16 c 5
 198 0 l 5
 50 0 l 5
 50 16 l 5
 58 16 66 17 74 18 c 4
 89 22 96 38 104 55 c 5
 372 711 l 5
 384 721 387 719.333007812 399 730.333007812 c 5
 680 36 l 4
 685 26 690 20 699 18 c 4
 707 17 716 16 724 16 c 5
 724 0 l 5
 537 0 l 5
 537 16 l 5
 546 16 554 17 562 18 c 4
270 349 m 0
 269.55982845 347.899571126 269.374070197 346.896017748 269.374070197 346.000000326 c 3
 269.374070197 342.824798596 272.100428874 341 276 341 c 2
 456 341 l 1
 464 341 l 2
 468.67948503 341 470.739261708 342.824798346 470.739261708 345.999999674 c 3
 470.739261708 346.896017261 470.440171657 347.899570859 470 349 c 0
 370 593 l 1
 270 349 l 0
EndSplineSet
Validated: 1
EndChar

StartChar: O
Encoding: 79 79 3
GlifName: O_
Width: 800
VWidth: 0
Flags: W
HStem: -10 36.667<309.9 498.542> 698.77 35.0391<301.224 487.279>
VStem: 55 89.3262<216.769 498.755> 658.246 87.3262<230.147 504.79>
LayerCount: 2
Fore
SplineSet
403.185546875 733.80859375 m 6
 587.862304688 733.80859375 745.572265625 605 745.572265625 360.76171875 c 4
 745.572265625 123.4296875 554.7734375 -10 399.275390625 -10 c 4
 285.84375 -10 55 53 55 351.76171875 c 4
 55 600.65625 212.7109375 733.80859375 397.388671875 733.80859375 c 6
 403.185546875 733.80859375 l 6
144.326171875 384.76171875 m 4
 144.326171875 47.1787109375 333.775390625 26.6669921875 406.984375 26.6669921875 c 4
 535.775390625 26.6669921875 658.24609375 96.712890625 658.24609375 377 c 4
 658.24609375 545 589.108398438 698.76953125 390.27734375 698.76953125 c 4
 171.775390625 698.76953125 144.326171875 464 144.326171875 384.76171875 c 4
EndSplineSet
Validated: 1
EndChar

StartChar: V
Encoding: 86 86 4
GlifName: V_
Width: 758
VWidth: 0
Flags: W
HStem: -8 21G<382.5 387.5> -8 21G<382.5 387.5> 717 16<50 73.625 196 236 576 617.712 699.376 724>
VStem: 100 84.3427<634.062 713.52>
LayerCount: 2
Fore
SplineSet
212 715 m 0xb0
 198 712 184.34271394 705.854114984 184.34271394 686.515539281 c 0
 184.34271394 681.171799691 186 675 188 667 c 2
 403 140 l 1
 617 660 l 1
 623 674 625.591363715 683.476686128 625.591363715 691.165322864 c 0
 625.591363715 708.921303067 612.207573585 714.113203774 599 716 c 0
 592 717 584 717 576 717 c 1
 576 733 l 1
 607 733 637 733 668 733 c 2
 724 733 l 1
 724 717 l 1
 716 717 707 717 699 715 c 0
 684 711 679 694 670 678 c 1
 401 21 l 2
 396 9 393 2 393 2 c 2
 390 -4 390 -8 385 -8 c 0
 380 -8 379 -6 376 2 c 0
 371 15 177 491 107 665 c 1
 104 671 102 677 100 682 c 0
 100 683 100 683 100 684 c 0
 93 702 86 712 74 715 c 0
 66 717 58 717 50 717 c 1
 50 733 l 1
 236 733 l 1
 236 717 l 1
 228 717 220 717 212 715 c 0xb0
EndSplineSet
Validated: 1
EndChar

StartChar: H
Encoding: 72 72 5
GlifName: H_
Width: 789
VWidth: 0
Flags: W
HStem: 0 15.9473<54 92.0702 202.778 241.006 545.392 583.886 694.23 732.528> 379.185 40.4368<196.496 590.054> 714.46 15.54<54.002 92.0739 202.985 241.054 545.392 583.389 694.493 732.887>
VStem: 109.115 79.3342<21.3132 378.549 420.218 709.102> 597.749 82.5687<20.2231 379.185 420.22 710.201>
LayerCount: 2
Fore
SplineSet
216.63671875 18.3955078125 m 0
 224.592773438 16.7861328125 232.711914062 16.05859375 241.005859375 15.947265625 c 1
 241.005859375 0 l 1
 54 0 l 1
 54 15.947265625 l 1
 62.2919921875 16.05859375 70.4140625 16.783203125 78.3701171875 18.3955078125 c 0
 97.47265625 22.265625 106.240234375 35.2353515625 106.240234375 48.51953125 c 0
 107.906448589 167.420245513 109.115239814 286.277534504 109.115239814 404.999877123 c 3
 109.115239814 497.392248012 108.267914208 589.702891342 106.257470446 681.888671875 c 0
 106.243164062 694.819335938 97.4765625 708.146484375 78.373046875 712.012695312 c 0
 70.416015625 713.623046875 62.294921875 714.349609375 54.001953125 714.459960938 c 1
 54.001953125 730 l 1
 241.053710938 730 l 1
 241.053710938 714.600585938 l 1
 232.760742188 714.491210938 224.641601562 713.764648438 216.685546875 712.153320312 c 0
 197.58203125 708.283203125 188.815429688 695.627929688 188.815429688 682.029296875 c 0
 188.815429688 625.717191904 188.658796632 566.316869968 188.658796632 510.000004935 c 3
 188.658796632 481.77641868 188.696214992 454.32726807 188.811920082 428.429379809 c 0
 188.82751013 424.939911011 191.319458959 421.203290792 196.42578125 420.16796875 c 0
 197.715259802 419.906502353 199.813083755 419.729606547 201.317356472 419.6222589 c 0
 250.721055777 419.05198121 323.492854746 418.358398401 385.208984375 418.358398438 c 0
 449.949609436 418.358398438 532.580272097 419.121627206 586.291896799 419.705116833 c 0
 587.611563264 419.81329192 589.100413627 419.965322938 590.1015625 420.16796875 c 0
 595.312355573 421.222534015 597.749023437 425.337890625 597.749023438 428.444335938 c 2
 597.749023438 682.364497902 l 2
 597.598150833 696.08635067 588.70271702 708.179572629 569.762695312 712.012695312 c 0
 561.805664062 713.623046875 553.684570312 714.349609375 545.391601562 714.459960938 c 1
 545.391601562 730 l 1
 732.88671875 730 l 1
 732.88671875 714.459960938 l 1
 724.592773438 714.349609375 716.475585938 713.625 708.518554688 712.012695312 c 0
 690.013768184 708.263872651 680.87181956 697.52178529 680.316955183 683.281762531 c 0
 678.28266059 589.30633382 677.447073957 495.197175031 677.447073957 401.000122716 c 7
 677.447073957 283.156158523 678.653653529 165.174632817 680.317721411 47.145293031 c 0
 680.887652759 33.9867063022 689.694442399 22.1301717592 708.159179688 18.3955078125 c 0
 716.116210938 16.7861328125 724.233398438 16.05859375 732.528320312 15.947265625 c 1
 732.528320312 0 l 1
 545.391601562 0 l 1
 545.391601562 15.947265625 l 1
 553.684570312 16.05859375 561.806640625 16.783203125 569.762695312 18.3955078125 c 0
 588.499944067 22.191618278 597.414920036 34.9831792548 597.749023438 47.7716519703 c 2
 597.749023438 370.32249079 l 2
 597.749023438 374.428721179 595.312355573 377.54504411 590.1015625 378.599609375 c 0
 588.96935339 378.828783069 587.213395025 378.992698963 585.783796644 379.101811415 c 0
 531.84359792 379.685011906 449.181132898 380.446288893 385.208984375 380.446289062 c 0
 324.256140945 380.446289062 251.518951458 379.75517653 201.914680882 379.185479242 c 0
 200.421132915 379.085319487 197.897190571 378.897965586 196.42578125 378.599609375 c 0
 191.317074884 377.564754235 188.83677322 373.731962736 188.81111613 370.336705934 c 0
 188.538879102 334.311006645 188.449458847 298.18133162 188.449458847 262.000027332 c 3
 188.449458847 190.381008646 188.806640625 118.55969539 188.806640625 46.9420817926 c 0
 189.473299191 34.1628217997 198.285795122 22.107341621 216.63671875 18.3955078125 c 0
EndSplineSet
Validated: 1
EndChar

StartChar: m
Encoding: 109 109 6
GlifName: m
Width: 857
VWidth: 0
Flags: W
HStem: 0 15.5605<57 86.352 169.842 199.077 362.32 391.67 471.201 500.441 663.186 692.54 772.072 801.309> 475.892 13.584<59.4092 73.6315> 481.936 28.3193<222.978 332.665 530.577 638.919>
VStem: 93.2275 69.6824<16.7825 453.553> 398.545 65.7264<16.7825 400.101> 699.413 65.727<16.7825 430.195>
LayerCount: 2
Fore
SplineSet
182.1171875 17.263671875 m 0xbc
 187.654296875 16.142578125 193.305664062 15.63671875 199.077148438 15.560546875 c 1
 199.077148438 0 l 1
 57 0 l 1
 57 15.560546875 l 1
 62.771484375 15.63671875 68.421875 16.1416015625 73.9599609375 17.263671875 c 0
 86.8477841752 19.8738040036 91.7571103584 28.4148055635 93.2275390625 37.3807882417 c 2
 93.2275390625 437.544921875 l 2
 93.2275390625 455.909179688 86.810546875 468.002929688 73.880859375 472.590820312 c 0
 68.5556640625 474.48046875 63.5751953125 475.891601562 59.4091796875 475.891601562 c 1
 59.4091796875 489.475585938 l 1xdc
 154.065429688 513.673828125 l 2
 155.329552382 513.996967142 156.428568151 514 157.380886071 514 c 0
 161.629135844 514 162.958077631 508.428351638 163.001953125 496.821289062 c 0
 163.001953125 484.825548666 162.99474819 472.82980827 162.99474819 460.834067874 c 1
 204.366846581 492.795224911 241.655463873 510.254882812 300.689453125 510.254882812 c 0
 359.696126898 510.254882812 416.993819742 486.885518034 448.657257744 424.795744083 c 1
 489.009824018 491.349247582 537.223256381 508.254882817 601.5546875 508.254882812 c 0
 681.345703125 508.254882812 765.208007812 456.995119722 765.208007812 348.625976562 c 2
 765.140062301 37.0305452756 l 2
 766.678985528 28.1932394655 771.628775928 19.839794823 784.349609375 17.263671875 c 0
 789.884765625 16.142578125 795.537109375 15.63671875 801.30859375 15.560546875 c 1
 801.30859375 0 l 1
 663.185546875 0 l 1
 663.185546875 15.560546875 l 1
 668.955078125 15.63671875 674.607421875 16.142578125 680.14453125 17.263671875 c 0
 693.036598236 19.8742799307 697.945422046 28.4179204644 699.413085938 37.3856928107 c 2
 699.413085938 344.684570312 l 2
 699.413085937 425.961914062 658.014648438 480.935546875 587.133789062 480.935546875 c 0
 549.303392617 480.935546875 504.239652128 467.396346154 462.33235619 400.316395055 c 0
 463.546271783 395.730018585 464.339843777 390.38544521 464.33984375 384.25 c 2
 464.271321887 37.0450889723 l 2
 465.807346458 28.2024058617 470.755586905 19.8412079696 483.483398438 17.263671875 c 0
 489.018554688 16.142578125 494.669921875 15.63671875 500.44140625 15.560546875 c 1
 500.44140625 0 l 1
 362.3203125 0 l 1
 362.3203125 15.560546875 l 1
 368.088867188 15.63671875 373.741210938 16.142578125 379.279296875 17.263671875 c 0
 392.16495197 19.8731732044 397.074131198 28.4106776461 398.544921875 37.3742878009 c 2
 398.544921875 351.684570312 l 2
 398.544921875 422.961914062 346.1484375 481.935546875 280.265625 481.935546875 c 0
 239.236613734 481.935546875 202.272193055 467.818963745 162.9903354 438.793055953 c 1
 162.909897931 37.0238256809 l 2
 164.450858502 28.1889275237 169.399575729 19.8382082376 182.1171875 17.263671875 c 0xbc
EndSplineSet
Validated: 1
EndChar

StartChar: w
Encoding: 119 119 7
GlifName: w
Width: 834
VWidth: 0
Flags: W
HStem: -8 21.6303G<262.335 267.604 554.534 559.315> -8 21.6303G<262.335 267.604 554.534 559.315> 491.485 15.1816<52 74.2933 159.873 187.244 346 368.242 449.829 478.243 672.379 701.056>
LayerCount: 2
Fore
SplineSet
672.37890625 506.666992188 m 1xa0
 785 506.666992188 l 1
 785 491.2734375 l 2
 785 491.2734375 776.341796875 491.10546875 771.833984375 489.685546875 c 4
 767.125 488.202148438 764.87890625 486.518554688 763.833984375 483.545898438 c 0
 763.45703125 482.473632812 727.16543878 399.818198477 688.719726562 304.30859375 c 0
 634.669921875 170.034179688 572.652085684 7.05343544424 568.44140625 -1.50390625 c 0
 566.362033527 -5.72980451191 561.630283692 -7.36970673169 557.000000172 -7.36970673169 c 3
 552.068657732 -7.36970673169 547.252405147 -4.95546131158 545.877929688 -1.2158203125 c 0
 541.688845934 10.1817417502 536.056640625 24.0205078125 532.478515625 34.064453125 c 2
 532.478515625 34.064453125 486.555664062 165.69140625 442.938476562 285.444335938 c 0
 434.953125 307.368164062 427.017578125 328.892578125 419.493164062 349.139648438 c 1
 413.572265625 334.752929688 407.443359375 319.721679688 401.239257812 304.30859375 c 0
 347.189453125 170.034179688 281.327941717 7.41879645902 277.959960938 -1.50390625 c 0
 276.331998675 -5.8168237649 270.208984375 -8 265 -8 c 3
 259.669921875 -8 255.250638645 -5.38892757279 253.397460938 -1.2158203125 c 0
 248.469127625 9.88212429139 244.576171875 24.0205078125 240.998046875 34.064453125 c 2
 240.998046875 34.064453125 193.068657251 165.689561603 149.45703125 285.444335938 c 0
 113.1640625 385.102539062 76.8837890625 477.866210938 76.65625 478.379882812 c 0
 74.302734375 483.6953125 74.1337890625 487.584960938 66 489.315429688 c 0
 60.724609375 490.4375 52 490.006835938 52 490.315429688 c 2
 52 506.666992188 l 1
 187.244140625 506.666992188 l 1
 187.244140625 491.485351562 l 1
 181.455078125 491.407226562 174.614257812 491.407226562 168.981445312 489.631835938 c 0
 161.166992188 487.16796875 157.8828125 483.384765625 157.8828125 477.315429688 c 3
 157.8828125 474.396484375 158.654296875 470.94921875 160.05078125 466.866210938 c 2
 160.05078125 466.866210938 185.612088386 390.406173027 214.458007812 309.346679688 c 0
 242.287109375 231.14453125 273.619140625 148.981445312 281.455078125 127.999023438 c 1
 289.366210938 149.50390625 331.41796875 238.067382812 363.697265625 319.258789062 c 0
 376.528320312 351.532226562 388.219726562 382.641601562 397.48046875 407.912109375 c 1
 381.90234375 449.189453125 370.780273438 478.09765625 370.655273438 478.379882812 c 0
 368.302734375 483.6953125 367.65234375 488.584960938 359.517578125 490.315429688 c 0
 354.243164062 491.4375 346 490.873046875 346 491.181640625 c 2
 346 506.666992188 l 1
 478.243164062 506.666992188 l 1
 478.243164062 491.485351562 l 1
 472.454101562 491.408203125 465.682617188 491.301757812 459.883789062 490.180664062 c 0
 451.510742188 488.5625 448.575195312 484.270507812 448.575195312 478.315429688 c 3
 448.575195312 474.365234375 449.803710938 469.68359375 451.563476562 464.565429688 c 2
 451.563476562 464.565429688 476.096186607 390.408027664 504.94140625 309.34765625 c 0
 532.76953125 231.145507812 564.1015625 148.982421875 571.938476562 128 c 1
 579.848632812 149.504882812 618.901121466 238.068457064 651.1796875 319.259765625 c 0
 681.848632812 396.40234375 705.443359375 465 705.443359375 465 c 2
 706.250976562 467.173828125 706.510742188 469.3828125 706.510742188 471.545898438 c 3
 706.510742188 480.212890625 699.25 488.118164062 689.3515625 489.88671875 c 0
 683.283203125 490.970703125 678.186523438 491.198242188 672.37890625 491.275390625 c 1
 672.37890625 506.666992188 l 1xa0
EndSplineSet
Validated: 1
EndChar

StartChar: x
Encoding: 120 120 8
GlifName: x
Width: 572
VWidth: 0
Flags: W
HStem: -0.0419922 15.5605<52.0186 78.1797 139.541 169.194 368.764 395.996 488.096 515.885> 491.182 15.4854<70.0742 96.9929 182.892 209.319 379.374 410.919 473.389 498>
LayerCount: 2
Fore
SplineSet
500.860351562 17.2236328125 m 0
 506.474609375 16.1025390625 510.110351562 15.62109375 515.884765625 15.5439453125 c 1
 515.884765625 0 l 1
 368.763671875 -0.0419921875 l 1
 368.709960938 15.5185546875 l 1
 374.474609375 15.595703125 377.876953125 15.6279296875 383.314453125 16.8623046875 c 0
 393.594630231 19.196410473 399.92288945 24.8558502614 399.92288945 31.9999995711 c 0
 399.92288945 33.9634195727 398.970901831 36.0389812058 397.533203125 38.1884765625 c 2
 397.533203125 38.1884765625 324.997387561 143.495008098 273.327043902 223.42648094 c 1
 200.501890732 126.669898377 140.116210935 38.1904296859 140.116210938 38.1904296875 c 1
 138.02196904 35.2917411123 136.867786222 32.5277833175 136.867786222 30.0000003908 c 0
 136.867786222 23.8712173346 141.955020803 19.1307959847 151.553710938 17.224609375 c 0
 157.19921875 16.103515625 163.41796875 15.59765625 169.197265625 15.5205078125 c 1
 169.194335938 -0.0400390625 l 1
 52.0185546875 -0.0400390625 l 1
 52 15.5322265625 l 1
 57.763671875 15.609375 60.8701171875 16.1025390625 66.2978515625 17.2236328125 c 0
 72.7041015625 18.546875 76.7607421875 21.4111328125 79.876953125 25.1328125 c 0
 82.7036684442 28.5078953322 183.307920569 166.239778258 253.193846596 254.623006913 c 1
 201.242677043 334.263638184 104.912258216 474.813568441 104.137695312 475.853515625 c 0
 100.178710938 481.168945312 93.806640625 487.74609375 85.1494140625 489.4765625 c 0
 79.53515625 490.598632812 75.8505859375 491.103515625 70.07421875 491.181640625 c 1
 70 506.666992188 l 1
 209.319335938 506.666992188 l 1
 209.319335938 491.181640625 l 1
 203.551757812 491.10546875 198.52734375 491.06640625 193.067382812 489.9453125 c 0
 185.845703125 488.461914062 182.600585938 485.6875 182.600585938 481.526367188 c 0
 182.600585938 478.131835938 184.541992188 473.815429688 188.087890625 468.526367188 c 2
 188.087890625 468.526367188 248.348033218 380.450852795 295.587033003 309.06264552 c 1
 357.934063472 391.069620677 410.452148438 468.43359375 410.452148438 468.43359375 c 2
 412.615234375 471.381835938 413.533203125 474.130859375 413.533203125 476.616210938 c 0
 413.533203125 489.259600579 393.413718358 491.083027099 379.374023438 491.270507812 c 1
 379.32421875 506.665039062 l 1
 498 506.666992188 l 1
 498 491.272460938 l 1
 487.034677242 491.149006091 477.867341225 489.33924063 473.387695312 483.544921875 c 0
 449 452 373.711637391 358.952683367 315.486084881 278.786912982 c 0
 315.486084881 278.786912982 318.663436605 273.906921459 320.202148438 271.534179688 c 0
 376.491210938 184.734375 446.076171875 68.8515625 485.794921875 25.4794921875 c 0
 489.362304688 21.583984375 493.84765625 18.6240234375 500.860351562 17.2236328125 c 0
EndSplineSet
Validated: 1
EndChar

StartChar: X
Encoding: 88 88 9
AltUni2: 0003a7.ffffffff.0
GlifName: X_
Width: 761
VWidth: 0
Flags: W
HStem: 0 15.9482<51 75.6967 159.927 199.197 506.313 542.075 666.864 707.809> 713.906 16.0938<69.749 106.836 232.526 271.245 529.046 568.417 652.548 677.244>
LayerCount: 2
Fore
SplineSet
69.7490234375 713.90625 m 1
 69.7470703125 730 l 1
 271.245117188 730 l 1
 271.245117188 713.90625 l 1
 262.98046875 713.795898438 255.033203125 713.072265625 247.467773438 711.459960938 c 0
 236.026449643 709.021867856 224.517502376 704.58413747 224.517502376 692 c 0
 224.517502376 684.60361406 227.981755724 674.393006278 237.577148438 660.120117188 c 2
 390.014340218 433.369328572 l 1
 553.069335938 656.143554688 l 2
 567.905997519 676.414146236 572.555283391 688.967600259 572.555283391 697 c 0
 572.555283391 707.374284644 562.113662103 710.206935949 551.987304688 712.383789062 c 0
 544.504882812 713.9921875 537.305664062 713.719726562 529.045898438 713.830078125 c 1
 529.045898438 730 l 1
 677.244140625 730 l 1
 677.244140625 713.829101562 l 1
 668.91796875 713.71875 660.602539062 713.278320312 652.15234375 711.3828125 c 0
 637.059570312 707.998046875 625.403320312 694.211914062 613.548828125 677.88671875 c 2
 412.120564834 400.4862519 l 1
 425.318359375 380.854492188 l 2
 517.08203125 242.127929688 607.53125 99.9853515625 652.103515625 39.4130859375 c 0
 660.79296875 27.6044921875 668.376953125 20.6943359375 678.987304688 18.3955078125 c 0
 687.338867188 16.5859375 699.48828125 16.0576171875 707.80859375 15.9482421875 c 1
 707.809570312 0 l 1
 628.803710938 0 l 1
 596.322265625 0 l 1
 506.313476562 0 l 1
 506.313476562 15.9482421875 l 1
 514.579101562 16.0576171875 520.665039062 16.7841796875 528.231445312 18.3955078125 c 0
 539.688139816 20.8357757349 548.744626917 25.2373769807 548.744626917 38 c 0
 548.744626917 45.4730169908 544.441652118 55.812662461 535.244140625 70.3037109375 c 2
 362.012166703 331.630265917 l 1
 175.048828125 73.5927734375 l 1
 175.174804688 73.6337890625 l 1
 160.874088714 54.3809161942 155.522557725 42.0796693183 155.522557725 34 c 0
 155.522557725 22.685946779 165.77482631 19.6498671013 176.255859375 17.3955078125 c 0
 183.73828125 15.7861328125 190.936523438 16.0576171875 199.197265625 15.9482421875 c 1
 199.197265625 0 l 1
 136.076171875 0 l 1
 101.80078125 0 l 1
 51 0 l 1
 51 15.9482421875 l 1
 59.326171875 16.0576171875 67.640625 16.5009765625 76.0927734375 18.3955078125 c 0
 91.1787109375 21.7763671875 102.8984375 35.5126953125 114.682617188 51.875 c 2
 340.050257818 364.80768847 l 1
 252.011896858 498.057344282 164.337080028 632.356328803 121.596679688 690.438476562 c 0
 112.907226562 702.247070312 105.323242188 709.1640625 94.7119140625 711.459960938 c 0
 86.3583984375 713.267578125 78.0712890625 713.795898438 69.7490234375 713.90625 c 1
EndSplineSet
Validated: 1
EndChar

StartChar: d
Encoding: 100 100 10
GlifName: d
Width: 545
VWidth: 0
Flags: W
HStem: -10 29.8711<211.337 345.783> -7.39941 21G<407.156 430.088> 491.64 20.5264<210.586 314.371> 709.496 13.584<355.644 369.867>
VStem: 37.001 76.0225<128.834 384.877> 389.465 65.7246<45.0815 432.297 469.122 705.974>
LayerCount: 2
Fore
SplineSet
488.954101562 43.416015625 m 1xbc
 495.181640625 18.9521484375 l 5
 465.741210938 5.435546875 442.8671875 -7.3994140625 417.309570312 -7.3994140625 c 4x7c
 397.001953125 -7.3994140625 390.64453125 12.1708984375 389.62109375 26 c 4
 389.513671875 27.4482421875 389.46484375 28.833984375 389.46484375 30.126953125 c 5
 389.408203125 30.0849609375 389.3515625 30.0419921875 389.294921875 30 c 4
 387.869140625 28.931640625 386.4375 27.8828125 385 26.853515625 c 4
 352.297851562 3.431640625 316.302734375 -10 266.891601562 -10 c 4
 145.666992188 -10 37.0009765625 50.6513671875 37.0009765625 250 c 7
 37.0009765625 425.966796875 115.73828125 512.166015625 264 512.166015625 c 7
 308.44921875 512.166015625 348.241210938 502.571289062 389.46484375 469.122070312 c 5
 389.46484375 671.149414062 l 6
 389.46484375 689.512695312 383.043945312 701.602539062 370.116210938 706.194335938 c 4
 364.79296875 708.084960938 359.80859375 709.49609375 355.643554688 709.49609375 c 5
 355.643554688 723.080078125 l 5
 430 742.916992188 l 4
 446.348632812 747.278320312 l 6
 447.328125 747.540039062 448.208984375 747.66796875 449 747.66796875 c 7
 450.622070312 747.66796875 451.848632812 747.135742188 452.766601562 746 c 4
 454.678710938 743.635742188 455.25390625 738.65625 455.28515625 730.42578125 c 6
 455.189453125 61.7138671875 l 6
 455.373046875 59.15234375 455.467773438 56.37890625 455.467773438 53.380859375 c 4
 455.467773438 46.5654296875 455.467773438 40.4677734375 455.467773438 35.2255859375 c 5
 466.301757812 37.2294921875 477.474609375 39.939453125 488.954101562 43.416015625 c 1xbc
389.46484375 377.951171875 m 5
 376.48046875 441.08984375 334.249023438 491.639648438 265 491.639648438 c 7
 163.5859375 491.639648438 113.0234375 406.8515625 113.0234375 284.243164062 c 4
 113.0234375 126.243164062 154.888671875 19.87109375 284 19.87109375 c 7xbc
 316.171875 19.87109375 353.229492188 31.7685546875 389.46484375 58.6357421875 c 5
 389.46484375 362 l 4
 389.46484375 377.951171875 l 5
EndSplineSet
Validated: 1
EndChar

StartChar: f
Encoding: 102 102 11
GlifName: f
Width: 482
VWidth: 0
Flags: W
HStem: 0 15.5615<68.8408 98.1925 177.721 206.964> 469.078 35.5762<56.9062 105.067 170.847 307.918> 745.104 21.085<248.566 334.313>
VStem: 105.053 57.3738<504.654 668.854> 105.067 65.7258<16.7835 469.078>
LayerCount: 2
Fore
SplineSet
445.612304688 708.890625 m 0xf0
 448.366204208 705.766823592 449.636468061 702.785687741 449.636468061 700.000000635 c 0
 449.636468061 687.60060481 426.676756158 679.07351139 411.000000335 679.07351139 c 0
 355.290878285 679.07351139 367.347313003 745.103515625 293.103515625 745.103515625 c 0
 219.235351562 745.103515625 162.426757812 675.389648438 162.426757812 572.407226562 c 2xf0
 162.9453125 504.654296875 l 1
 162.9453125 504.654296875 274.712890625 504.654296875 286.52734375 504.654296875 c 0
 307.858067688 504.654296875 314.118498921 499.992269759 314.118498921 492.00000075 c 0
 314.118498921 488.798236107 313.382520932 485.062012455 312.235351562 480.876953125 c 2
 307.91796875 465.125 l 1
 302.209960938 465.125 212.783203125 469.078125 170.846679688 469.078125 c 1
 170.793137439 37.0502612736 l 2
 172.328930717 28.2051277611 177.274024475 19.8416687233 190.00390625 17.2646484375 c 0
 195.541992188 16.1435546875 201.192382812 15.6376953125 206.963867188 15.5615234375 c 1
 206.963867188 0 l 1
 68.8408203125 0 l 1
 68.8408203125 15.5615234375 l 1
 74.611328125 15.6376953125 80.2626953125 16.1435546875 85.7998046875 17.2646484375 c 0
 98.6880748377 19.8737326548 103.598466721 28.414144059 105.067382812 37.3806348548 c 2
 105.067382812 469.078125 l 1
 75.5166015625 469.078125 49 465.125 49 465.125 c 1
 56.90625 500.703125 l 1
 105.067382812 500.703125 l 1xe8
 105.067382812 500.703125 105.052931492 535.255067615 105.052931492 552.999999641 c 0
 105.052931492 560.967954369 105.192568809 570.222724679 105.659179688 577.380859375 c 0
 114.635213041 715.165829963 190.385742188 766.188476562 314 766.188476562 c 0
 354.360351562 766.188476562 405.328683963 754.585347099 445.612304688 708.890625 c 0xf0
EndSplineSet
EndChar

StartChar: j
Encoding: 106 106 12
GlifName: j
Width: 248
VWidth: 0
Flags: W
HStem: -153.523 45.9084<-90.1169 44.9083> 469.549 13.584<68.7646 92.7336> 489.725 20G<163.617 166.401> 620.942 92.8916<88.4247 166.683>
VStem: 81.1074 92.8926<628.259 706.517> 102.586 67.6973<-41.8709 468.685>
LayerCount: 2
Fore
SplineSet
81.107421875 667.387695312 m 0xf8
 81.107421875 693.0390625 101.90234375 713.833984375 127.553710938 713.833984375 c 0
 153.205078125 713.833984375 174 693.0390625 174 667.387695312 c 0
 174 641.736328125 153.205078125 620.942382812 127.553710938 620.942382812 c 0
 101.90234375 620.942382812 81.107421875 641.736328125 81.107421875 667.387695312 c 0xf8
170.3828125 492.454101562 m 4
 170.283203125 90.46484375 l 6
 170.236708072 75.6439428995 170.160929928 60.8177742236 170.160929928 46 c 7
 170.160929928 -6.91663696302 157.426171513 -41.5452908831 115.62109375 -83.783203125 c 4
 88.5384460036 -111.146326314 28.1672396708 -153.523094428 -48.9999948232 -153.523094428 c 7
 -70.7076374229 -153.523094428 -93.7444056951 -150.07326859 -117.743164062 -142 c 4
 -125.987433608 -139.22655787 -128.956379982 -134.079432005 -128.956379982 -128.000000372 c 7
 -128.956379982 -105.135251246 -96.3350446147 -83.2390884859 -70 -83.2390884859 c 7
 -38.5626976165 -83.2390884859 -14.7456626071 -107.614683981 16 -107.614683981 c 7
 25.1857986935 -107.614683981 34.9900598598 -105.511047784 45.80078125 -99.927734375 c 4
 100.623046875 -71.6142578125 102.5859375 -39.8525390625 102.5859375 28.4599609375 c 6
 102.5859375 441.083984375 l 6xf4
 102.5859375 459.448242188 95.4853515625 465.744140625 83.2373046875 468.223632812 c 4
 77.7001953125 469.344726562 72.9296875 469.548828125 68.7646484375 469.548828125 c 5
 68.7646484375 483.1328125 l 5
 161.446289062 509.306640625 l 6
 162.385742188 509.572265625 163.234375 509.724609375 164 509.724609375 c 7
 168.801757812 509.724609375 170.336914062 504.708984375 170.3828125 492.454101562 c 4
EndSplineSet
Validated: 1
EndChar

StartChar: g
Encoding: 103 103 13
GlifName: g
Width: 496
VWidth: 0
Flags: W
HStem: -235.607 24.6562<148.273 310.291> 442.282 64.7178<371.352 442.561> 481.089 28.9785<167.905 283.05>
VStem: 20.126 66.8164<-173.7 -81.0886> 45.7754 73.2656<217.412 424.607> 59.7812 95.3496<35.7827 74.2359> 341.362 67.9668<201.139 415.301> 420.449 49.7051<-140.12 -47.2655>
LayerCount: 2
Fore
SplineSet
420.44921875 -100.783203125 m 4x93
 420.44921875 -21.9404296875 334.1875 -15.9365234375 249.151367188 -8 c 4
 247.151367188 -8 234.151367188 -7 234.151367188 -7 c 4
 146 -38 86.9423828125 -54.7783203125 86.9423828125 -122.130859375 c 4
 86.9423828125 -183.515625 151.01953125 -210.951171875 223 -210.951171875 c 7
 315.236328125 -210.951171875 420.44921875 -169.1953125 420.44921875 -100.783203125 c 4x93
240.596679688 152.907226562 m 4
 324.750976562 152.907226562 341.362304688 221.823242188 341.362304688 305 c 7
 341.362304688 428.282226562 308.663085938 481.088867188 215.49609375 481.088867188 c 4
 143.50390625 481.088867188 119.041015625 411.907226562 119.041015625 345.27734375 c 4xab
 119.041015625 226.8046875 153.662109375 152.907226562 240.596679688 152.907226562 c 4
470.154296875 -71.9111328125 m 4
 470.154296875 -178.359375 340.169921875 -235.607421875 222.684570312 -235.607421875 c 4
 121.215820312 -235.607421875 20.1259765625 -215.225585938 20.1259765625 -134.368164062 c 4xd3
 20.1259765625 -52.27734375 141.140625 -23.484375 212.151367188 -3 c 5
 174.151367188 -1 141.77734375 3.408203125 119.151367188 8 c 4
 89.2607421875 14.0654296875 59.78125 26.2294921875 59.78125 45.3359375 c 4xc7
 59.78125 84.9560546875 176.734375 110.432617188 210.151367188 122 c 5
 134.002929688 126.819335938 45.775390625 176.237304688 45.775390625 323.987304688 c 4
 45.775390625 441.376953125 109.943359375 496.077148438 190.151367188 508 c 4
 202.296875 509.805664062 215.232421875 510.067382812 227.697265625 510.067382812 c 4xab
 267.002929688 510.067382812 307.681640625 499.830078125 340.151367188 475 c 5
 371.151367188 495 398.151367188 507 437.151367188 507 c 4
 445.3671875 507 452 498.25 452 487.69140625 c 4
 452 475.1171875 444.473632812 465.6015625 437.151367188 458 c 4
 427.461914062 447.940429688 412.811523438 442.282226562 394 442.282226562 c 7
 386.666992188 442.282226562 378.701171875 443.172851562 370.151367188 445 c 5
 394.60546875 412.081054688 409.329101562 365.006835938 409.329101562 300.451171875 c 4
 409.329101562 119.1640625 268.360351562 134.025390625 163.151367188 80 c 4
 158.09375 77.0498046875 155.130859375 73.0341796875 155.130859375 69 c 7xc7
 155.130859375 63.462890625 159.31640625 57.892578125 169.151367188 55 c 4
 175.151367188 53 195.595703125 52.5556640625 205.411132812 52.5556640625 c 4
 302.151367188 46 l 4
 403.8203125 35.3046875 470.154296875 11.3291015625 470.154296875 -71.9111328125 c 4
EndSplineSet
Validated: 1
EndChar

StartChar: q
Encoding: 113 113 14
GlifName: q
Width: 564
VWidth: 0
Flags: W
HStem: -232 15.5625<379.818 409.171 488.703 517.941> -13.114 37.1256<244.618 388.143> 487.217 21.5898<232.298 341.63>
VStem: 54.9962 78.5477<145.583 380.769> 416.044 65.7283<-215.212 18.0342 37.4112 446.044>
LayerCount: 2
Fore
SplineSet
322.999985412 24.011678798 m 3
 350.865664984 24.011678798 381.947103636 29.5562424917 416.043945312 47.455078125 c 1
 416.195161022 418.999999816 l 3
 416.195161022 421.701234874 415.83865583 424.178578396 414.331054688 425.938476562 c 0
 384.328056271 460.949238085 340.189584434 487.216582598 281.00000479 487.216582598 c 3
 192.142396371 487.216582598 133.543957301 400.636032161 133.543957301 275.000003662 c 7
 133.543957301 148.843994231 184.991350932 24.011678798 322.999985412 24.011678798 c 3
472.930664062 508.982421875 m 2
 474.060853721 509.558538879 475.083972094 509.770990956 475.999959189 509.770990956 c 3
 479.912770715 509.770990956 481.869140625 503.64371415 481.869140625 492.130859375 c 0
 481.772214009 -194.961415216 l 2
 483.311025919 -203.802404025 488.259407082 -212.152085471 500.981445312 -214.731445312 c 0
 506.51953125 -215.854492188 512.169921875 -216.360351562 517.94140625 -216.4375 c 1
 517.94140625 -232 l 1
 379.818359375 -232 l 1
 379.818359375 -216.4375 l 1
 385.588867188 -216.360351562 391.239257812 -215.8515625 396.778320312 -214.731445312 c 0
 409.66658261 -212.124256069 414.576058628 -203.584829131 416.044921875 -194.616622905 c 2
 416.044921875 18.0341796875 l 1
 380.435314173 -0.404130178137 339.301117287 -13.1139662705 292 -13.1139662705 c 3
 162.879569929 -13.1139662705 54.9962212722 80.8280774184 54.9962212722 254.999969013 c 3
 54.9962212722 418.695844456 132.268377242 485.77063251 244.147460938 505 c 0
 257.26598491 507.254713086 272.473288907 508.806356507 288.99999769 508.806356507 c 3
 325.607543588 508.806356507 368.688699563 501.213804595 409.881835938 476.84375 c 1
 472.930664062 508.982421875 l 2
EndSplineSet
Validated: 1
EndChar

StartChar: p
Encoding: 112 112 15
GlifName: p
Width: 544
VWidth: 0
Flags: W
HStem: -232 15.5625<50 79.3504 158.884 188.123> -12.7965 21.7857<230.894 333.015> 475.2 13.585<52.4092 66.6306> 479.147 29.9166<193.077 328.249>
VStem: 86.2266 65.7272<-215.212 23.4868 71.6936 456.653> 426.152 76.0202<116.82 370.453>
LayerCount: 2
Fore
SplineSet
171.1640625 -214.731445312 m 0xdc
 176.701171875 -215.854492188 182.352539062 -216.360351562 188.123046875 -216.4375 c 1
 188.123046875 -232 l 1
 50 -232 l 1
 50 -216.4375 l 1
 55.771484375 -216.360351562 61.4208984375 -215.8515625 66.9599609375 -214.731445312 c 0
 79.8458712436 -212.124731857 84.7549897173 -203.587945669 86.2265625 -194.621532711 c 2
 86.2265625 436.853515625 l 2
 86.2265625 455.216796875 79.80859375 467.307617188 66.8798828125 471.8984375 c 0
 61.5556640625 473.7890625 56.57421875 475.200195312 52.4091796875 475.200195312 c 1
 52.4091796875 488.78515625 l 1xec
 143.112304688 512.982421875 l 2
 144.190892951 513.270229314 145.14971284 513.366324105 146 513.366324105 c 3
 150.567965298 513.366324105 152.003546053 508.109049167 152.048828125 496.129882812 c 0
 152.048828125 487.642886826 152.045324934 479.155890839 152.045324934 470.668894853 c 1
 186.065522267 495.611779377 221.864595902 509.063476562 272.282226562 509.063476562 c 0
 393.114540671 509.063476562 502.172545921 448.803801117 502.172545921 251 c 3
 502.172545921 72.6307147337 422.973379678 -12.796474532 275.000002316 -12.796474532 c 3
 237.524715457 -12.796474532 193.56669093 -4.19722674353 151.983796911 23.486843493 c 1
 151.953741449 -194.954485371 l 2
 153.491954603 -203.7979638 158.438702801 -212.150477258 171.1640625 -214.731445312 c 0xdc
152.04186872 445.54933628 m 1
 151.996787442 117.901259714 l 1
 171.577003311 60.0683799491 207.033935233 8.9892578125 284.612304688 8.9892578125 c 0
 369.774414062 8.9892578125 426.15234375 92.0771484375 426.15234375 214.819335938 c 0
 426.15234375 371.513415229 384.494337148 479.146830516 257.000002568 479.146830516 c 3xdc
 227.106639774 479.146830516 190.725539624 467.591115342 152.04186872 445.54933628 c 1
EndSplineSet
Validated: 1
EndChar

StartChar: o
Encoding: 111 111 16
GlifName: o
Width: 534
VWidth: 0
Flags: W
HStem: -10.2734 30.4648<215.732 331.301> 481.079 29.4648<194.002 313.838>
VStem: 40.9424 76.2949<132.09 381.811> 410.789 76.292<121.974 373.343>
LayerCount: 2
Fore
SplineSet
273 -10.2734375 m 7
 148.661132812 -10.2734375 40.9423828125 53.953125 40.9423828125 249 c 7
 40.9423828125 433.657226562 130.889648438 510.543945312 252 510.543945312 c 7
 362.758789062 510.543945312 487.081054688 441.8359375 487.081054688 254 c 7
 487.081054688 80.9248046875 401.5546875 -10.2734375 273 -10.2734375 c 7
117.237304688 275.017578125 m 4
 117.237304688 167.213867188 146.924804688 20.19140625 279.291992188 20.19140625 c 4
 372.265625 20.19140625 410.7890625 125.749023438 410.7890625 215.251953125 c 4
 410.7890625 323.055664062 394.098632812 481.079101562 248.734375 481.079101562 c 4
 155.815429688 481.079101562 117.237304688 383.447265625 117.237304688 275.017578125 c 4
EndSplineSet
Validated: 1
EndChar

StartChar: I
Encoding: 73 73 17
GlifName: I_
Width: 291
VWidth: 0
Flags: W
HStem: 0 15.9473<53.9502 91.9749 217.003 241> 714.458 15.875<53.9531 92.0247 202.615 240.997>
VStem: 107.987 77.9284<21.19 709.23>
LayerCount: 2
Fore
SplineSet
216.629882812 18.39453125 m 4
 224.586914062 16.78515625 232.708007812 16.05859375 241 15.947265625 c 5
 241 0 l 5
 53.9501953125 0 l 5
 53.9501953125 15.947265625 l 5
 62.2421875 16.05859375 70.365234375 16.7822265625 78.3212890625 18.39453125 c 4
 97.423828125 22.265625 105.950195312 35.7158203125 105.950195312 49 c 4
 107.201228687 164.121567377 107.986956225 279.113108323 107.986956225 394 c 7
 107.986956225 490.03074151 107.45302712 585.988366452 106.194335938 681.887695312 c 4
 106.194335938 694.819335938 97.427734375 708.145507812 78.32421875 712.01171875 c 4
 70.3671875 713.622070312 62.2451171875 714.348632812 53.953125 714.458007812 c 5
 53.953125 730.333007812 l 5
 240.997070312 730.333007812 l 5
 240.997070312 714.458007812 l 5
 232.704101562 714.348632812 224.583007812 713.624023438 216.625976562 712.01171875 c 4
 198.028320312 708.244140625 189.2265625 695.515625 188.775390625 682.912109375 c 4
 186.741946533 586.706760082 185.915351372 490.391110998 185.915351372 394.000145398 c 7
 185.915351372 279.087381266 187.085228366 164.067575162 188.779296875 49 c 4
 189.24609375 36.1005859375 198.046875 22.1533203125 216.629882812 18.39453125 c 4
EndSplineSet
Validated: 1
EndChar

StartChar: y
Encoding: 121 121 18
GlifName: y
Width: 546
VWidth: 0
Flags: W
HStem: 491.696 15.4854<46.7559 67.9017 153.409 181 383.377 415.332 473.593 500>
LayerCount: 2
Fore
SplineSet
258.15234375 -54.015625 m 0
 236.110119731 -92.6550007733 159.786132812 -227.118164062 102 -227.118164062 c 3
 92.7646484375 -227.118164062 88.4314022497 -218.363999588 88.4314022497 -207.999999611 c 3
 88.4314022497 -200.441076521 89.6401961998 -192.313944794 92 -186 c 0
 111.50390625 -133.817382812 150 -153 195.126953125 -98.6826171875 c 0
 211.900842623 -78.4926040349 238 -18 244.208007812 1.2060546875 c 1
 241.822265625 6.705078125 239.325195312 20.111328125 237.998046875 23.7958984375 c 2
 237.998046875 23.7958984375 191.06865725 155.421006916 147.45703125 275.17578125 c 0
 111.1640625 374.833984375 71.6570933607 477.38894677 71.412109375 477.89453125 c 0
 67 487 64 491.696289062 46.755859375 491.696289062 c 1
 46.755859375 507.181640625 l 1
 181 507.181640625 l 1
 181 492 l 1
 167.908128415 491.825530051 151.83984375 492.658097356 151.83984375 477.098632812 c 3
 151.83984375 473.327148438 152.61328125 468.922851562 154.3203125 464.080078125 c 2
 154.3203125 464.080078125 182.613064948 380.138594902 211.458984375 299.079101562 c 0
 239.288085938 220.876953125 272.620117188 129.713867188 280.456054688 108.731445312 c 1
 288.3671875 130.236328125 329.419921875 227.799804688 361.698242188 308.991210938 c 0
 392.3671875 386.133789062 418.333984375 458.196289062 418.333984375 458.196289062 c 2
 420.235377135 463.205448373 421.116563121 467.501699939 421.116563121 471.178015884 c 0
 421.116563121 486.96496315 404.867128963 491.320041061 383.376953125 491.60546875 c 1
 383.376953125 507 l 1
 500 507 l 1
 500 491.60546875 l 1
 488.099609375 490.860351562 472.342773438 486.483398438 469.904296875 479.546875 c 0
 469.52734375 478.474609375 437.687655339 389.550718718 399.240234375 294.041992188 c 0
 366.177734375 211.91015625 326.959960938 119.978515625 304.600585938 57.4501953125 c 0
 290.137504074 17.0039746338 269 -35 258.15234375 -54.015625 c 0
EndSplineSet
Validated: 1
EndChar

StartChar: v
Encoding: 118 118 19
GlifName: v
Width: 533
VWidth: 0
Flags: W
HStem: -9 21G<253.437 258.92> -9 21G<253.437 258.92> 491.674 15.1816<46 68.3156 149.779 178.244 380.229 408.111>
LayerCount: 2
Fore
SplineSet
494.850585938 506.627929688 m 1xa0
 494.850585938 491.231445312 l 2
 494.850585938 491.231445312 482.193359375 491.063476562 477.684570312 489.643554688 c 0
 472.975585938 488.16015625 468.729492188 483.4765625 467.684570312 480.50390625 c 0
 467.307617188 479.431640625 434.0703125 401.56640625 395.239257812 305.8125 c 0
 340.983398438 172.021484375 274.50390625 8.8544921875 269.959960938 0 c 0
 267.150390625 -5.4736328125 261.83984375 -9 256 -9 c 3
 250.874023438 -9 245.712890625 -6.32421875 243 0 c 0
 238.212890625 11.16015625 232.576171875 25.5244140625 228.998046875 35.568359375 c 2
 228.998046875 35.568359375 186.068359375 167.193359375 142.45703125 286.948242188 c 0
 106.1640625 386.606445312 70.8837052112 478.054650365 70.65625 478.568359375 c 0
 68.302734375 483.883789062 68 488 61 490 c 0
 55.8141145593 491.481681554 46 491.061523438 46 491.370117188 c 2
 46 506.85546875 l 1
 178.244140625 506.85546875 l 1
 178.244140625 491.673828125 l 1
 172.455078125 491.596679688 165.682617188 491.490234375 159.883789062 490.369140625 c 0
 151.745117188 488.795898438 148.584960938 484.697265625 148.584960938 479 c 3
 148.584960938 474.948242188 149.73046875 470.088867188 151.564453125 464.75390625 c 2
 151.564453125 464.75390625 175.61328125 391.911132812 204.458984375 310.8515625 c 0
 232.288085938 232.649414062 265.620117188 137.486328125 273.456054688 116.50390625 c 1
 282.3671875 138.008789062 325.419921875 239.572265625 357.698242188 320.763671875 c 0
 388.3671875 397.90625 412.530273438 468.396484375 412.530273438 468.396484375 c 2
 413.259765625 470.359375 413.495117188 472.233398438 413.495117188 474 c 3
 413.495117188 482.029296875 405.260742188 487.834960938 395.123046875 489.645507812 c 0
 389.053710938 490.729492188 386.037109375 491.15625 380.228515625 491.233398438 c 1
 380.228515625 506.627929688 l 1
 494.850585938 506.627929688 l 1xa0
EndSplineSet
Validated: 1
EndChar

StartChar: u
Encoding: 117 117 20
GlifName: u
Width: 562
VWidth: 0
Flags: W
HStem: -10 32.3203<213.466 337.129> -7.88672 21G<409.648 435.236> 472.654 13.584<50 76.7199 362.195 375.893> 488.746 20G<144.652 147.552 459.675 462.657>
VStem: 83.7461 67.7949<77.4571 471.79> 396.109 70.6431<36.7383 39.7768 51.5818 475.79>
LayerCount: 2
Fore
SplineSet
502.103515625 44.9287109375 m 5xbc
 508.490234375 18.46484375 l 5
 478.29296875 4.9482421875 448.34375 -7.88671875 422.12890625 -7.88671875 c 4x7c
 397.167038013 -7.88671875 396.113731504 18.7538565325 396.113731504 28.9999998267 c 7
 396.113731504 32.6468714542 396.115053078 36.1433607158 396.115053078 39.7768421574 c 5
 350.106587094 6.67399817452 311.621071633 -10 247.396484375 -10 c 4
 167.607421875 -10 83.74609375 30.2597624173 83.74609375 138.62890625 c 4
 83.8203125 444.189453125 l 7
 83.8203125 462.552735024 76.720703125 468.848632812 64.4716796875 471.329101562 c 4
 58.9345703125 472.450195312 54.1650390625 472.654296875 50 472.654296875 c 5
 50 486.23828125 l 5
 142.705078125 508.412109375 l 6
 143.539866381 508.61180152 144.303130395 508.745934622 145 508.745934622 c 7
 150.103426163 508.745934622 151.642578125 504.061433708 151.642578125 491.559570312 c 4
 151.541015625 152.571289062 l 7
 151.541015625 81.2939420746 203.936523438 22.3203125 269.8203125 22.3203125 c 4
 306.545666456 22.3203125 353.812768237 33.1335216429 396.108845539 65.0270441567 c 5
 396.014648438 448.189453125 l 6
 396.009765625 466.552734375 388.916015625 472.849609375 376.666992188 475.329101562 c 4
 371.12890625 476.450195312 366.359375 476.654296875 362.1953125 476.654296875 c 5
 362.1953125 490.23828125 l 5
 457.875976562 509.412109375 l 6
 458.643779299 509.562840392 459.350380276 509.665528739 460 509.665528739 c 7
 465.314226922 509.665528739 466.813476562 505.220822773 466.813476562 492.559570312 c 4
 466.813476562 492.559570312 466.751953125 55.7734375 466.751953125 36.73828125 c 5
 477.870117188 38.7421875 490.331054688 41.4521484375 502.103515625 44.9287109375 c 5xbc
EndSplineSet
Validated: 1
EndChar

StartChar: n
Encoding: 110 110 21
GlifName: n
Width: 556
VWidth: 0
Flags: W
HStem: 0 38.2295<385.407 398.704> 0 15.5586<57 86.3539 169.842 199.077 362.32 391.613 471.169 500.441> 475.516 13.584<59.4092 73.6315> 482.017 28.3193<217.118 331.369>
VStem: 93.2285 69.6816<16.7812 455.745> 398.704 65.7269<38.2295 425.912>
LayerCount: 2
Fore
SplineSet
182.1171875 17.2626953125 m 4x9c
 187.654296875 16.140625 193.306640625 15.6357421875 199.077148438 15.55859375 c 5
 199.077148438 0 l 5
 57 0 l 5
 57 15.55859375 l 5
 62.771484375 15.6357421875 68.421875 16.140625 73.9599609375 17.2626953125 c 4
 86.8506387367 19.8743525056 91.7592847288 28.4176702846 93.228515625 37.3866624205 c 6
 93.228515625 437.168945312 l 6
 93.228515625 455.532226562 86.8115234375 467.626953125 73.880859375 472.21484375 c 4
 68.5556640625 474.104492188 63.5751953125 475.515625 59.4091796875 475.515625 c 5
 59.4091796875 489.099609375 l 5x6c
 154.064453125 513.298828125 l 6
 154.757813006 513.47608996 156.40234375 514 157 514 c 4
 161.357421875 514 163.001953125 512.000199108 163.001953125 496.446289062 c 4
 163.001953125 486.339507556 162.995894844 476.232726051 162.995894844 466.125944545 c 5
 204.431956213 495.536106319 241.73983187 510.3359375 300.849609375 510.3359375 c 4
 380.638671875 510.3359375 464.499023438 460.077150972 464.499023438 351.708007812 c 6
 464.431021622 36.1885299827 l 6
 466.134499867 27.6669668051 471.16547973 19.7595707262 483.483398438 17.2626953125 c 4
 489.018554688 16.140625 494.669921875 15.6357421875 500.44140625 15.55859375 c 5
 500.44140625 0 l 5
 362.3203125 0 l 5
 362.3203125 15.55859375 l 5x5c
 368.088867188 15.6357421875 373.741210938 16.140625 379.279296875 17.2626953125 c 4
 392.57421875 19.9560546875 397.377929688 28.9580078125 398.674804688 38.2294921875 c 5
 398.704101562 38.2294921875 l 5
 398.704101562 351.765625 l 6
 398.704101562 423.04296875 346.307617188 482.016601562 280.424804688 482.016601562 c 4
 246.72442209 482.016601562 204.369984846 469.853959165 162.991379246 443.526386126 c 5
 162.91015625 37.0234375 l 6
 164.450195312 28.1875 169.399909964 19.8399664101 182.1171875 17.2626953125 c 4x9c
EndSplineSet
Validated: 1
EndChar

StartChar: b
Encoding: 98 98 22
GlifName: b
Width: 561
VWidth: 0
Flags: W
HStem: -10.1565 22.0842<55 86.2362 235.066 336.531> 482.08 29.9223<198.682 333.025> 709.34 13.584<57.4092 71.6306>
VStem: 91.2266 65.7855<13.1525 23.5024 74.6982 459.669 473.583 705.817> 431.152 76.0209<116.741 373.298>
LayerCount: 2
Fore
SplineSet
157.01206817 473.583417019 m 5
 191.042192942 498.541895638 226.848166879 512.001953125 277.282226562 512.001953125 c 4
 398.305426499 512.001953125 507.173217538 451.551735872 507.173217538 253 c 7
 507.173217538 72.8105791482 426.594308399 -10.1564738096 276.000002097 -10.1564738096 c 7
 237.02444522 -10.1564738096 191.431372343 -2.14408627003 151.11328125 23.5024255397 c 5
 151.11328125 21.85546875 l 5
 131.583984375 2.9345703125 114.119140625 -3.7890625 55 -3.7890625 c 5
 55 11.7724609375 l 5
 60.771484375 11.8486328125 66.4208984375 12.3583984375 71.9599609375 13.478515625 c 4
 84.8458712436 16.0852290805 89.7549897173 24.6229326678 91.2265625 33.5894020729 c 6
 91.2265625 670.993164062 l 6
 91.2265625 689.356445312 84.80859375 701.447265625 71.8798828125 706.038085938 c 4
 66.5556640625 707.928710938 61.57421875 709.33984375 57.4091796875 709.33984375 c 5
 57.4091796875 722.923828125 l 5
 148.112304688 747.122070312 l 6
 149.190892951 747.409877752 150.149414062 747.505859375 151 747.505859375 c 7
 155.568359375 747.505859375 157.003546053 742.248697604 157.048828125 730.26953125 c 6
 157.01206817 473.583417019 l 5
156.96156688 120.944786488 m 5
 176.534478229 63.0690058804 211.987397049 11.927734375 289.612304688 11.927734375 c 4
 374.774414062 11.927734375 431.15234375 95.0166015625 431.15234375 217.7578125 c 4
 431.15234375 375.177772929 389.410392448 482.079665885 261.000002581 482.079665885 c 7
 231.28830741 482.079665885 195.274269764 470.27773733 157.008471562 448.469145911 c 5
 156.96156688 120.944786488 l 5
EndSplineSet
Validated: 1
EndChar

StartChar: h
Encoding: 104 104 23
GlifName: h
Width: 516
VWidth: 0
Flags: W
HStem: 0 15.5605<55 84.2091 164.165 193.342 356.862 385.968 465.814 495.001> 479.364 30.5703<207.083 331.678> 707.56 13.584<57.498 71.7205>
VStem: 91.3184 65.7214<16.7825 450.949 467.537 704.037> 393.131 65.7277<16.7825 425.509>
LayerCount: 2
Fore
SplineSet
176.3828125 17.263671875 m 0
 181.919921875 16.142578125 187.571289062 15.63671875 193.341796875 15.560546875 c 1
 193.341796875 0 l 1
 55 0 l 1
 55 15.560546875 l 1
 60.771484375 15.63671875 66.421875 16.142578125 71.9599609375 17.263671875 c 0
 85.1281145855 19.9303825851 89.9662141508 28.787870694 91.318359375 37.9643851338 c 2
 91.318359375 669.212890625 l 2
 91.318359375 687.576171875 84.8974609375 699.665039062 71.9697265625 704.2578125 c 0
 66.6474609375 706.1484375 61.6630859375 707.559570312 57.498046875 707.559570312 c 1
 57.498046875 721.143554688 l 1
 148.202148438 745.341796875 l 2
 149.242917275 745.619512686 150.172169559 745.728893787 151 745.728893787 c 0
 155.639010249 745.728893787 157.093094255 740.546610108 157.138671875 728.489257812 c 2
 157.101300926 467.536716766 l 5
 198.665172947 495.738114215 236.013477014 509.934570312 295.275390625 509.934570312 c 4
 375.065429688 509.934570312 458.92578125 459.674807222 458.92578125 351.305664062 c 6
 458.858600885 36.8829930591 l 2
 460.427696771 28.1004073209 465.392907823 19.8254529367 478.041992188 17.263671875 c 0
 483.578125 16.142578125 489.228515625 15.63671875 495.000976562 15.560546875 c 1
 495.000976562 0 l 1
 356.862304688 0 l 1
 356.862304688 15.560546875 l 1
 362.633789062 15.63671875 368.28515625 16.142578125 373.822265625 17.263671875 c 0
 386.836203647 19.8991520518 391.714991611 28.5812551496 393.130859375 37.6421202873 c 2
 393.130859375 351.364257812 l 6
 393.130859375 422.641601562 342.983398438 479.364257812 277.1015625 479.364257812 c 4
 242.842898506 479.364257812 204.225616079 469.027123834 157.097042629 437.802027759 c 5
 157.039768097 37.867448195 l 2
 158.410738486 28.7255369619 163.261032078 19.9200276003 176.3828125 17.263671875 c 0
EndSplineSet
Validated: 1
EndChar

StartChar: t
Encoding: 116 116 24
GlifName: t
Width: 343
VWidth: 0
Flags: W
HStem: -10.1854 37.3866<211.21 280.53> 470.601 40.0662<188.766 304.889>
VStem: 118.012 70.7207<46.1005 162.875 162.899 471.321>
LayerCount: 2
Fore
SplineSet
278 29.3212890625 m 1
 286 -0.705078125 l 1
 267.854400228 -6.61008942041 249.664113029 -10.1854116859 231.999997149 -10.1854116859 c 3
 203.91123317 -10.1854116859 177.152950016 -1.13064360052 154.020507812 22 c 0
 125.538085938 50.48046875 118.142578125 105.603515625 118.142578125 162.875 c 1
 118.01171875 162.899414062 l 1
 117.940429688 447.133789062 l 2
 117.936523438 465.006835938 110.735351562 472.194335938 98.6298828125 474.645507812 c 0
 93.0927734375 475.766601562 50.9130859375 475.845703125 46.1572265625 476.970703125 c 0
 43.1462886352 477.682941419 42.0322693485 480.947644968 42.0322693485 484.000000092 c 3
 42.0322693485 485.768923946 42.8938604383 487.466530121 44.1572265625 488.5546875 c 0
 47.6015625 491.520507812 58.1226307538 497.185261777 64.5615234375 501.034179688 c 0
 108 527 131 548 166.389648438 579.806640625 c 0
 171.414857486 584.323074818 176.165673682 588.791435523 178.000000399 588.791435523 c 3
 184.545753845 588.791435523 188.775390625 585.306521528 188.775390625 571.875976562 c 3
 188.775390625 551.157816931 188.765655098 530.4396573 188.765655098 509.72149767 c 1
 225.050237648 509.979416613 274.963950457 510.667674071 287 510.667674071 c 3
 305.685742718 510.667674071 310.186509923 506.566660597 310.186509923 498.999998729 c 3
 310.186509923 496.019789117 309.457475729 492.501966869 308.619140625 488.485351562 c 2
 304.888671875 470.609375 l 1
 304.685077851 470.604373635 304.387189868 470.601461352 303.999999802 470.601461352 c 3
 296.022492842 470.601461352 250.13552893 471.534075037 209.999998887 471.534075037 c 3
 202.636410842 471.534075037 195.466419115 471.503547617 188.759657321 471.429914549 c 1
 188.732421875 297.55078125 l 1
 188.709960938 297.55078125 l 1
 188.709960938 160.893554688 l 2
 188.709960938 134.862304688 189.075195312 94.02734375 195.056640625 75.6865234375 c 0
 206.365946679 41.0096968162 225.44533974 27.2011766926 254.99999976 27.2011766926 c 3
 262.057122817 27.2011766926 269.711512908 27.9100702278 278 29.3212890625 c 1
EndSplineSet
Validated: 1
EndChar

StartChar: z
Encoding: 122 122 25
GlifName: z
Width: 535
VWidth: 0
Flags: W
HStem: -0.420898 61.239<151.069 462.229> 458.105 47.4209<96.8741 397.464>
LayerCount: 2
Fore
SplineSet
470.18359375 507.079101562 m 3
 472.001953125 507.079101562 476.434570312 499.008789062 476.434570312 492 c 3
 476.434570312 488.9140625 476.051757812 486.038085938 474.462890625 484.155273438 c 0
 468.615234375 477.227539062 370.223632812 354.77734375 292.900390625 252.913085938 c 0
 225.087890625 163.579101562 171.665039062 87.5419921875 151.069335938 61.8271484375 c 1
 179.820569387 61.1480770237 223.719120084 60.818146665 270.999997257 60.818146665 c 3
 335.447363039 60.818146665 401.178710938 61.4521484375 448.399414062 62.6845703125 c 0
 453.575195312 62.8193359375 457.705078125 62.8876953125 462.46875 69.263671875 c 0
 465.537109375 73.37109375 468.859375 80.533203125 468.859375 80.533203125 c 2
 485.663085938 75.0791015625 l 1
 462.228515625 0 l 1
 262.732421875 -0.4208984375 l 1
 61.4462890625 -1.0771484375 l 19
 59.3819424993 -1.0771484375 56.000263275 8.52276703544 56.000263275 17.9999997316 c 3
 56.000263275 23.3626122396 57.1581755925 28.6837480618 60.2763671875 32.1982421875 c 0
 100.305664062 77.3173828125 192.3359375 182.579101562 264.943359375 274.592773438 c 0
 331.264648438 358.639648438 374.282226562 426.477539062 397.463867188 457.905273438 c 1
 381.231445312 458.048828125 361.493164062 458.10546875 340 458.10546875 c 3
 248.866210938 458.10546875 134.186523438 457.046875 113.487304688 457.046875 c 0
 108 457 100 456 96.716796875 450.03125 c 0
 94.1923828125 445.442382812 90.22265625 438.263671875 90.22265625 438.263671875 c 9
 73.2900390625 444.493164062 l 1
 95.201171875 506.965820312 l 1
 95.201171875 506.965820312 183.46875 505.526367188 256 505.526367188 c 3
 340.579101562 505.526367188 470.18359375 507.079101562 470.18359375 507.079101562 c 3
EndSplineSet
Validated: 1
EndChar

StartChar: l
Encoding: 108 108 26
GlifName: l
Width: 241
VWidth: 0
Flags: W
HStem: 0 15.5615<52 81.3504 160.883 190.123> 730.916 13.584<54.4092 68.6306> 749.081 20G<147.575 150.284>
VStem: 88.2266 65.727<16.7835 727.395>
LayerCount: 2
Fore
SplineSet
173.1640625 17.2646484375 m 4
 178.701171875 16.1435546875 184.352539062 15.6376953125 190.123046875 15.5615234375 c 5
 190.123046875 0 l 5
 52 0 l 5
 52 15.5615234375 l 5
 57.771484375 15.6376953125 63.421875 16.1435546875 68.9599609375 17.2646484375 c 4
 81.8458712436 19.8732549311 86.7549897173 28.4110167568 88.2265625 37.3757096005 c 6
 88.2265625 692.5703125 l 6
 88.2265625 710.93359375 81.80859375 723.026367188 68.8798828125 727.615234375 c 4
 63.5556640625 729.504882812 58.57421875 730.916015625 54.4091796875 730.916015625 c 5
 54.4091796875 744.5 l 5
 145.112304688 768.697265625 l 6
 146.190892951 768.985073064 147.14971284 769.081167855 148 769.081167855 c 7
 152.567965298 769.081167855 154.003546053 763.823892917 154.048828125 751.844726562 c 6
 153.953598112 37.0435782855 l 6
 155.491578357 28.200915366 160.437386813 19.8410196872 173.1640625 17.2646484375 c 4
EndSplineSet
Validated: 1
EndChar

StartChar: r
Encoding: 114 114 27
GlifName: r
Width: 377
VWidth: 0
Flags: W
HStem: 0 15.5615<56 85.3551 166.863 196.101> 449.597 53.4764<217.614 337.32> 473.182 13.584<58.4092 82.3774>
VStem: 92.2285 67.7861<16.7835 417.791 438.113 472.318>
LayerCount: 2
Fore
SplineSet
364.946289062 479 m 3xd0
 364.946289062 452.788085938 339.317382812 436.219726562 312 436.219726562 c 3
 282.184570312 436.219726562 267.334960938 449.596679688 242 449.596679688 c 3xd0
 201.716796875 449.596679688 168.113526489 407.244708158 160.00390625 384.583007812 c 1
 159.932530529 37.0349946776 l 2
 161.471385433 28.1963273774 166.418122748 19.8401748225 179.140625 17.2646484375 c 0
 184.678710938 16.1435546875 190.331054688 15.6376953125 196.100585938 15.5615234375 c 1
 196.100585938 0 l 1
 56 0 l 1
 56 15.5615234375 l 1
 61.771484375 15.6376953125 67.4228515625 16.1435546875 72.9619140625 17.2646484375 c 0
 85.8525764108 19.874408625 90.7593896637 28.4194880249 92.228515625 37.3876877092 c 2
 92.228515625 444.716796875 l 2
 92.228515625 463.080078125 85.1298828125 469.375976562 72.880859375 471.856445312 c 0
 67.34375 472.977539062 62.57421875 473.181640625 58.4091796875 473.181640625 c 1
 58.4091796875 486.765625 l 1xb0
 151.08984375 512.939453125 l 2
 152.175646642 513.246043728 153.142215389 513.353433034 154 513.353433034 c 3
 158.53566471 513.353433034 160.02734375 508.036074336 160.02734375 496.086914062 c 0
 160.014648438 438.11328125 l 1
 189.689126786 466.149995266 235.413367519 503.073093458 299 503.073093458 c 3
 312.373697677 503.073093458 364.946289062 499.551757812 364.946289062 479 c 3xd0
EndSplineSet
Validated: 1
EndChar

StartChar: k
Encoding: 107 107 28
GlifName: k
Width: 533
VWidth: 0
Flags: W
HStem: 0 16<55 71.7195 176.281 193 366 389.49 495.232 506> 297 29<158.538 205.971> 490.667 16<336 359.998 430.297 475> 708 13<57 71.7656>
VStem: 91 66<17.145 296.999 326.002 705.805>
LayerCount: 2
Fore
SplineSet
495 17 m 0
 500 16 502 16 506 16 c 1
 506 0 l 1
 366 0 l 1
 366 16 l 1
 372 16 374 16 379 17 c 0
 387.266070335 19.2543828187 390.24886589 22.6381527248 390.24886589 28 c 3
 390.24886589 56.2377137983 340.313309106 115.161072708 278 195 c 0
 214 277 206 297 173 297 c 0
 167 297 162 296 157 292 c 1
 157 37 l 2
 159 28 164 20 176 17 c 0
 182 16 187 16 193 16 c 1
 193 0 l 1
 55 0 l 1
 55 16 l 1
 61 16 66 16 72 17 c 0
 85 20 90 29 91 38 c 1
 91 669 l 2
 91 688 85 702 72 706 c 0
 67 708 62 708 57 708 c 1
 57 721 l 1
 137 742 l 2
 140.421762981 743.052850148 143.427840923 743.612474884 145.999998243 743.612474884 c 3
 153.20000964 743.612474884 157 739.051811945 157 728 c 2
 157 350 l 1
 158 329 169 326 178 326 c 0
 191.674804688 326 208.57421875 342.05078125 280 400 c 0
 333 443 360 470.666992188 360 482.666992188 c 0
 360 486.666992188 357 488.666992188 353 489.666992188 c 0
 347 490.666992188 342 490.666992188 336 490.666992188 c 1
 336 506.666992188 l 1
 475 506.666992188 l 1
 475 490.666992188 l 1
 456 490.666992188 440 487.666992188 428 481.666992188 c 0
 386 460.666992188 349 413 251 338 c 1
 251 324 279 294 348 203 c 0
 420 109 447 66 462 46 c 0
 477 26 484 21 495 17 c 0
EndSplineSet
Validated: 1
EndChar

StartChar: e
Encoding: 101 101 29
GlifName: e
Width: 515
VWidth: 0
Flags: W
HStem: -10.7041 41.1553<225.111 397.376> 316.585 27.9561<131.787 397.745> 488.908 21.7734<220.993 322.614>
VStem: 46.9697 77.6982<140.933 344.951> 399.037 72.4404<347.044 418.371>
LayerCount: 2
Fore
SplineSet
133.211914062 316.584960938 m 1
 128.75390625 298.486328125 124.66796875 276.400390625 124.66796875 249.9921875 c 0
 124.66796875 135.665039062 182.767578125 30.451171875 314 30.451171875 c 3
 357.125 30.451171875 408.197265625 46.1435546875 459.901367188 85.3623046875 c 1
 474.553710938 64.71875 l 1
 422.29296875 12.7294921875 372.264648438 -10.7041015625 297 -10.7041015625 c 3
 166.859375 -10.7041015625 46.9697265625 62.9638671875 46.9697265625 249 c 3
 46.9697265625 434.1875 148.317382812 510.681640625 289.5625 510.681640625 c 0
 406.44140625 510.681640625 471.477539062 426.266601562 471.477539062 330 c 3
 471.477539062 325.184570312 471.328125 320.33984375 471.008789062 315.474609375 c 0
 471.002929688 315.3828125 470.877929688 315.38671875 470.642578125 315.475585938 c 2
 133.211914062 316.584960938 l 1
130.100585938 352.983398438 m 1
 166.02734375 348.811523438 205.109375 344.541015625 267.486328125 344.541015625 c 0
 300.807617188 344.541015625 372.170898438 345.870117188 399.037109375 348.470703125 c 1
 397.033203125 438.182617188 343.51171875 488.908203125 271.046875 488.908203125 c 0
 192.891601562 488.908203125 147.2890625 426.049804688 130.100585938 352.983398438 c 1
EndSplineSet
Validated: 1
EndChar

StartChar: c
Encoding: 99 99 30
GlifName: c
Width: 508
VWidth: 0
Flags: W
HStem: -10 42.127<231.933 396.386> 490.075 21.7822<221.184 313.778>
VStem: 46.002 78.0547<162.212 385.603>
LayerCount: 2
Fore
SplineSet
459.020507812 86.9833984375 m 1
 473.658203125 66.3623046875 l 1
 416.16796875 9.1708984375 363.80859375 -10 283.126953125 -10 c 0
 156.264648438 -10 46.001953125 83.4736328125 46.001953125 262 c 3
 46.001953125 433.282226562 135.344726562 511.857421875 279 511.857421875 c 3
 333.604492188 511.857421875 401.838867188 495.438476562 457.750976562 432.026367188 c 0
 460.838867188 428.5234375 462.5234375 425.163085938 462.5234375 422 c 3
 462.5234375 406.978515625 435.76953125 396.485351562 417 396.485351562 c 3
 349.831054688 396.485351562 359.19140625 490.075195312 270.379882812 490.075195312 c 0
 182.340820312 490.075195312 124.056640625 406.987304688 124.056640625 284.245117188 c 0
 124.056640625 160.994140625 181.5859375 32.126953125 314 32.126953125 c 3
 356.92578125 32.126953125 407.662109375 48.0244140625 459.020507812 86.9833984375 c 1
EndSplineSet
Validated: 1
EndChar

StartChar: a
Encoding: 97 97 31
GlifName: a
Width: 525
VWidth: 0
Flags: W
HStem: -10 37.042<169.667 305.201> 279.281 32.8398<329.426 365.339> 484.978 26.8223<207.728 311.178>
VStem: 50.8691 80.4697<57.7931 158.37> 365.339 67.6318<55.5781 279.281> 375.248 57.723<306.316 435.313>
LayerCount: 2
Fore
SplineSet
468.322265625 49.2080078125 m 1xf4
 474.709960938 19.744140625 l 1
 444.512695312 6.2265625 417.563476562 -6.6083984375 391.348632812 -6.6083984375 c 0
 367.797851562 -6.6083984375 365.233398438 17.818359375 365.188476562 28 c 2
 365.338867188 36 l 1
 365.338867188 38.0315195384 l 1xf8
 313.304958405 4.96186773958 259.27207318 -10 198.622070312 -10 c 0
 121.534179688 -10 50.869140625 19.96875 50.869140625 107 c 0
 50.869140625 202.674624079 249.5199454 272.233215574 375.247679361 312.120522261 c 1
 374.789879242 333.619214835 374.610183462 379.869432262 370.133789062 396.446289062 c 0
 354.109375 455.78515625 313.416992188 484.977539062 250 484.977539062 c 4
 173.724609375 484.977539062 185.852539062 399.975585938 114 399.975585938 c 4
 94.896484375 399.975585938 76.7119140625 409.899414062 76.7119140625 425 c 4
 76.7119140625 428.01953125 78.5263671875 431.20703125 81.4365234375 434.506835938 c 4
 136.4921875 496.9375 199.728515625 511.799804688 253 511.799804688 c 4
 390.524414062 511.799804688 432.970703125 418.594726562 432.970703125 366.698242188 c 0
 432.970703125 304.24609375 432.970703125 106.938476562 432.970703125 41.0166015625 c 1
 444.088867188 43.0205078125 456.549804688 45.73046875 468.322265625 49.2080078125 c 1xf4
365.338867188 71.0723851899 m 1
 365.338867188 279.280702772 l 1
 257.270234264 245.460188476 131.338867188 196.773612016 131.338867188 117 c 0
 131.338867188 54.7861328125 180.331054688 27.0419921875 241 27.0419921875 c 0
 292.639707197 27.0419921875 333.403727023 43.208311665 365.338867188 71.0723851899 c 1
EndSplineSet
Validated: 1
EndChar

StartChar: i
Encoding: 105 105 32
GlifName: i
Width: 251
VWidth: 0
Flags: W
HStem: 0 15.5605<56 85.3551 166.863 196.101> 469.181 13.584<58.4092 82.3774> 489.352 20G<153.572 156.261> 623.573 92.8936<78.0673 156.326>
VStem: 70.75 92.8936<630.89 709.149> 92.2285 67.7988<16.7825 468.317>
LayerCount: 2
Fore
SplineSet
70.75 670.01953125 m 0xf8
 70.75 695.671875 91.544921875 716.466796875 117.197265625 716.466796875 c 0
 142.848632812 716.466796875 163.643554688 695.671875 163.643554688 670.01953125 c 0
 163.643554688 644.368164062 142.848632812 623.573242188 117.197265625 623.573242188 c 0
 91.544921875 623.573242188 70.75 644.368164062 70.75 670.01953125 c 0xf8
179.140625 17.263671875 m 4
 184.678710938 16.142578125 190.331054688 15.63671875 196.100585938 15.560546875 c 5
 196.100585938 0 l 5
 56 0 l 5
 56 15.560546875 l 5
 61.771484375 15.63671875 67.4228515625 16.1416015625 72.9619140625 17.263671875 c 4
 85.8525764108 19.8743790001 90.7593896637 28.4185689147 92.228515625 37.386713761 c 6
 92.228515625 440.715820312 l 6
 92.228515625 459.080078125 85.1298828125 465.375 72.880859375 467.85546875 c 4
 67.34375 468.9765625 62.57421875 469.180664062 58.4091796875 469.180664062 c 5
 58.4091796875 482.764648438 l 5
 151.08984375 508.938476562 l 6
 152.177202347 509.245506439 153.143523316 509.352305745 154 509.352305745 c 7
 158.521044101 509.352305745 159.981366317 504.031859712 160.02734375 492.0859375 c 6xf4
 159.93262199 37.0334928204 l 6
 161.471581431 28.1950197381 166.418374787 19.8391472375 179.140625 17.263671875 c 4
EndSplineSet
Validated: 1
EndChar

StartChar: period
Encoding: 46 46 33
GlifName: period
Width: 224
VWidth: 0
Flags: W
HStem: -11 102<69.5153 153.544>
VStem: 60 103<-1.54432 81.5443>
LayerCount: 2
Fore
SplineSet
60 40 m 0
 60 68 83 91 112 91 c 0
 140 91 163 68 163 40 c 0
 163 12 140 -11 112 -11 c 0
 83 -11 60 12 60 40 c 0
EndSplineSet
Validated: 1
EndChar

StartChar: comma
Encoding: 44 44 34
GlifName: comma
Width: 240
VWidth: 0
Flags: W
HStem: -79 12<65.0058 82.25>
VStem: 70 108<0.183868 78.4868> 111 67<-42.3775 0.488605>
LayerCount: 2
Fore
SplineSet
70 38 m 0xc0
 70 66 97 91 126 91 c 0
 156 91 178 66 178 41 c 2
 178 40 l 0xc0
 178 -27 149 -65 111 -75 c 0
 102 -78 92 -79 86 -79 c 0
 73 -79 65 -75 65 -75 c 1
 59 -67 l 1
 71 -67 94 -59 104 -45 c 0
 108 -39 111 -33 111 -27 c 0xa0
 111 -21 108 -16 103 -11 c 0
 85 6 70 10 70 38 c 0xc0
EndSplineSet
Validated: 1
EndChar

StartChar: D
Encoding: 68 68 35
GlifName: D_
Width: 776
VWidth: 0
Flags: W
HStem: 0 29.4824<188.185 289.628 289.637 290.557 290.645 412.866> 0 15.9473<53.8213 91.8915> 695.56 34.4404<188.628 424.343> 714.46 15.875<53.8232 91.8949>
VStem: 106.062 82.5664<29.9272 695.526> 621.35 87.6504<223.488 495.123>
LayerCount: 2
Fore
SplineSet
78.1943359375 712.012695312 m 0x6c
 70.2373046875 713.623046875 62.1162109375 714.349609375 53.8232421875 714.459960938 c 1
 53.8232421875 730.334960938 l 1
 188.627929688 730.334960938 l 1x5c
 188.627929688 730 l 1
 240.75263304 730.340684336 292.853270251 731.00930166 344.999993789 731.00930166 c 3
 536.847170961 731.00930166 709 606.675427995 709 362.786132812 c 0
 709 122.954101562 556.049804688 -2.5302734375 332.5078125 -2.5302734375 c 2
 326.102539062 -2.5302734375 l 2
 314.224609375 -2.5302734375 290.627929688 -1.728515625 290.627929688 -1.728515625 c 1
 290.627929688 -1.728515625 192.567382812 0 175.627929688 0 c 2
 53.8212890625 0 l 1
 53.8212890625 15.947265625 l 1
 62.11328125 16.05859375 70.2353515625 16.783203125 78.19140625 18.3955078125 c 0
 97.2939453125 22.265625 106.061523438 35.2353515625 106.061523438 48.51953125 c 1
 106.072265625 48.51953125 l 1
 107.720279644 166.419629126 108.938299841 284.276507722 108.938299841 401.999877846 c 3
 108.938299841 495.395200417 108.110024576 588.706493116 106.079101562 681.888671875 c 1
 106.064453125 681.888671875 l 1
 106.064453125 694.819335938 97.2978515625 708.146484375 78.1943359375 712.012695312 c 0x6c
188.627929688 678.888671875 m 2
 187.627929688 50 l 1
 188.602539062 34.3330078125 191.663545443 30.4512918623 204.627929688 29.482421875 c 9
 289.627929688 29.6865234375 l 2
 289.627929688 29.6865234375 302.543945312 30.158203125 309.244140625 30.158203125 c 0
 541.952148438 30.158203125 621.349609375 186.389648438 621.349609375 352.709960938 c 0
 621.349609375 622.194335938 472.984375 695.540039062 305.706054688 695.540039062 c 0
 295.867995483 695.540039062 255.020044769 696.017745972 236.000000382 696.017745972 c 3
 225.987516356 696.017745972 200.781543412 695.560849894 200.627929688 695.559570312 c 0xac
 192.611328125 695.44140625 188.627929688 690.005859375 188.627929688 684 c 2
 188.627929688 678.888671875 l 2
EndSplineSet
Validated: 1
EndChar

StartChar: N
Encoding: 78 78 36
GlifName: N_
Width: 823
VWidth: 0
Flags: W
HStem: -8.99017 21G<709.446 714.234> -8.99017 21G<709.446 714.234> 0 15.9473<54 77.9971 162.779 201.006> 714.46 15.875<54.002 77.9999 625.392 664.11 734.153 772.887>
VStem: 106.24 42.5917<20.489 618.676> 678.066 42.9336<159.469 682.008 682.009 709.902>
LayerCount: 2
Fore
SplineSet
176.63671875 18.3955078125 m 0x3c
 184.592773438 16.7861328125 192.711914062 16.05859375 201.005859375 15.947265625 c 1
 201.005859375 0 l 1
 54 0 l 1
 54 15.947265625 l 1
 62.2919921875 16.05859375 70.4140625 16.783203125 78.3701171875 18.3955078125 c 0
 97.47265625 22.265625 106.240234375 38.2353515625 106.240234375 51.51953125 c 2
 109.873046875 399.40234375 l 1
 106.2578125 678.888671875 l 2
 106.243164062 691.819335938 97.4765625 708.146484375 78.373046875 712.012695312 c 0
 70.416015625 713.623046875 62.294921875 714.349609375 54.001953125 714.459960938 c 1
 54.001953125 730.334960938 l 1
 168 730.334960938 l 1
 678.06640625 159.46875 l 1
 678.06640625 682.0078125 l 2
 677.9609375 682.0078125 677.856445312 682.008789062 677.750976562 682.008789062 c 1
 677.750976562 695.876953125 668.866210938 708.146484375 649.762695312 712.012695312 c 0
 641.805664062 713.623046875 633.684570312 714.349609375 625.391601562 714.459960938 c 1
 625.391601562 730.334960938 l 1
 772.88671875 730.334960938 l 1
 772.88671875 714.459960938 l 1
 764.592773438 714.349609375 756.475585938 713.625 748.518554688 712.012695312 c 0
 730.419921875 708.345703125 721.27734375 697.990234375 720.366210938 684.213867188 c 0
 718.479748358 589.863363642 717.751492471 495.451367827 717.751492471 401.000176591 c 7
 717.751492471 267.390844915 719.234646454 133.703081103 721 0 c 0x3c
 721 -5.80261584896 716.46774852 -8.99017002054 712.000000136 -8.99017002054 c 3x9c
 706.891901758 -8.99017002054 699 0 699 0 c 1
 513.658203125 208.536132812 334.059570312 410.263671875 148.844726562 618.67578125 c 1
 148.79460546 564.079621043 148.777981388 509.530588208 148.777981388 455 c 3
 148.777981388 354.996936277 148.831886587 255.055904604 148.831886587 155 c 3
 148.831886587 119.331397438 148.825129286 83.648196504 148.806640625 47.9423828125 c 0
 149.473632812 35.1630859375 158.286132812 22.107421875 176.63671875 18.3955078125 c 0x3c
EndSplineSet
Validated: 1
EndChar

StartChar: L
Encoding: 76 76 37
GlifName: L_
Width: 589
VWidth: 0
Flags: W
HStem: 0 21<51 103.695 201.822 417.993> 714.458 15.875<57.0029 95.0746 217.216 252.047>
VStem: 112.116 76.8451<26.5724 708.567> 523 16<110.335 139.014>
LayerCount: 2
Fore
SplineSet
219.6796875 24.39453125 m 4
 239.625976562 22.0087890625 250 21 270 21 c 5
 331.419921875 21.3427734375 379.42578125 21.8447265625 422 32.197265625 c 4
 483.1171875 47.0595703125 510.466796875 78.5302734375 523 139.013671875 c 5
 539 140 l 5
 522 0 l 5
 244.049804688 0 l 5
 164.491210938 0 l 5
 150 0 l 5
 136.559570312 0 l 5
 51 0 l 5
 51 15.947265625 l 5
 61.3330078125 16.05859375 71.5263671875 16.3994140625 81.37109375 18.39453125 c 4
 100.473632812 22.265625 109.241210938 35.2353515625 109.241210938 48.51953125 c 4
 110.897663326 166.752629515 112.115946521 284.942760949 112.115946521 402.999877163 c 7
 112.115946521 496.059834855 111.282505983 589.037142577 109.2578125 681.887695312 c 5
 109.244140625 681.887695312 l 5
 109.244140625 694.819335938 100.477539062 708.145507812 81.3740234375 712.01171875 c 4
 73.4169921875 713.622070312 65.294921875 714.348632812 57.0029296875 714.458007812 c 5
 57.0029296875 730.333007812 l 5
 252.046875 730.333007812 l 5
 252.046875 714.458007812 l 5
 240.010742188 714.303710938 228.188476562 714.829101562 216.67578125 711.01171875 c 4
 200.440429688 705.627929688 191.987304688 694.51953125 191.825195312 681.912109375 c 4
 189.809257004 588.384327604 188.961050125 494.733532109 188.961050125 401.000129738 c 7
 188.961050125 284.941007138 190.128560714 168.755240133 191.809570312 52.51953125 c 4
 191.809570312 39.2353515625 200.326171875 26.708984375 219.6796875 24.39453125 c 4
EndSplineSet
Validated: 1
EndChar

StartChar: M
Encoding: 77 77 38
GlifName: M_
Width: 840
VWidth: 0
Flags: W
HStem: 0 15.9473<45.2783 69.2754 154.094 192.284 604.082 642.121 756.722 797.132> 714.46 15.875<65.2803 89.2783 751.651 792.129>
VStem: 97.5186 42.5664<20.4882 254.85> 117.536 41.5869<471.932 610.676> 658.128 78.5494<22.8669 611.013>
LayerCount: 2
Fore
SplineSet
770.76171875 18.39453125 m 0xd8
 779.346679688 16.658203125 788.159179688 16.05859375 797.131835938 15.947265625 c 1
 797.131835938 0 l 1
 604.08203125 0 l 1
 604.08203125 15.947265625 l 1
 612.374023438 16.05859375 620.497070312 16.7822265625 628.453125 18.39453125 c 0
 647.555664062 22.265625 656.131329507 35.2378349801 656.333007812 48.51953125 c 0
 657.308791158 112.780573132 657.724183438 177.011644435 657.724183438 241.000031924 c 3
 657.724183438 321.90270578 658.127892381 405.93298232 658.127892381 488.000009495 c 3
 658.127892381 529.735166202 658.023709691 570.962581996 657.708984375 611.012695312 c 1
 414.278320312 135 l 0
 411.467773438 129.430664062 401.16796875 118.276367188 398 118.276367188 c 3
 395.34765625 118.276367188 392.082400233 120.514433175 389 127 c 2
 389 127 179.278157805 568.887491557 159.123046875 610.67578125 c 1xd8
 140.084960938 47.9423828125 l 0
 140.951171875 35.146484375 149.564453125 22.107421875 167.915039062 18.3955078125 c 0
 175.87109375 16.7861328125 183.990234375 16.05859375 192.284179688 15.947265625 c 1
 192.284179688 0 l 1
 45.2783203125 0 l 1
 45.2783203125 15.947265625 l 1
 53.5703125 16.05859375 61.6923828125 16.783203125 69.6484375 18.3955078125 c 0
 88.7509765625 22.265625 97 38.279296875 97.5185546875 51.51953125 c 0xe8
 105.666015625 259.418945312 112.745117188 467.884765625 117.536132812 678.888671875 c 0
 117.53823572 679.331214428 117.538365935 679.66463656 117.538365935 680.000000347 c 3
 117.538365935 692.729535486 108.211095788 708.256537173 89.6513671875 712.012695312 c 0
 81.6943359375 713.623046875 73.5732421875 714.349609375 65.2802734375 714.459960938 c 1
 65.2802734375 730.334960938 l 1
 206.278320312 730.334960938 l 1
 435.344726562 263.46875 l 1
 668.278320312 730.333007812 l 1
 792.12890625 730.333007812 l 1
 792.12890625 714.458007812 l 1
 783.155273438 714.348632812 774.368164062 713.624023438 765.7578125 712.01171875 c 0
 747.106445312 708.51953125 737.97265625 695.520507812 737.907226562 682.912109375 c 0
 737.096960676 620.705149322 736.67724584 558.740452339 736.67724584 497 c 3
 736.67724584 345.889290058 738.855701009 196.121879936 742.911132812 47.43359375 c 0
 743.17578125 34.533203125 752.178710938 22.1533203125 770.76171875 18.39453125 c 0xd8
EndSplineSet
Validated: 1
EndChar

StartChar: slash
Encoding: 47 47 39
GlifName: slash
Width: 398
VWidth: 0
Flags: W
VStem: 288 67<616.12 689.533>
LayerCount: 2
Fore
SplineSet
41 -96 m 5
 143 183 216 419 288 676 c 5
 306 690 322 696 334 696 c 4
 347 696 355 689 355 676 c 5
 266 425 116 -58 116 -58 c 5
 110 -106 78 -82 41 -96 c 5
EndSplineSet
Validated: 1
EndChar

StartChar: S
Encoding: 83 83 40
GlifName: S_
Width: 555
VWidth: 0
Flags: W
HStem: -9.56348 46.0068<198.201 369.899> 709.885 32.4456<226.723 366.009>
VStem: 50.0016 61.0834<123.329 161.827> 95.5469 74.2812<524.879 643.159> 434.307 68.501<113.4 243.453>
LayerCount: 2
Fore
SplineSet
281.08203125 36.443359375 m 0xe8
 372.802603891 36.443359375 434.307218508 91.3405756959 434.307218508 170 c 3
 434.307218508 249.892448331 370.207468793 301.314745413 286.384765625 351 c 0
 197.655273438 403.59375 95.546875 483.002929688 95.546875 561.793945312 c 0
 95.546875 651.18143429 165.881942905 742.330245296 313 742.330245296 c 3
 400.213268236 742.330245296 487.370069766 710.882465868 487.370069766 693.000000205 c 3
 487.370069766 679.046667188 462.308849935 611.898163487 453 611.898163487 c 3
 438.306534775 611.898163487 409.117831251 709.884694848 297 709.884694848 c 3
 197.086916968 709.884694848 169.828125 641.789082065 169.828125 589.266601562 c 0xd8
 169.828125 514.685546875 240.163085938 472.169921875 321.034179688 422.958984375 c 0
 422.969713143 360.930189712 502.808249086 299.08224786 502.808249086 212 c 3
 502.808249086 128.644995071 466.693902516 77.5726662299 417.379882812 37.4814453125 c 0
 380.982421875 7.890625 325.778320312 -9.5634765625 278.84765625 -9.5634765625 c 0
 135.493471331 -9.5634765625 50.0015821306 75.8233084064 50.0015821306 115.999999636 c 3
 50.0015821306 136.869295474 88.0580548011 192.002886114 104.999999735 192.002886114 c 7
 108.384497581 192.002886114 110.631668109 191.917426913 111.084960938 187.559570312 c 0
 117.008789062 135.913085938 162.245117188 36.443359375 281.08203125 36.443359375 c 0xe8
EndSplineSet
Validated: 1
EndChar

StartChar: T
Encoding: 84 84 41
AltUni2: 0003a4.ffffffff.0
GlifName: T_
Width: 681
VWidth: 0
Flags: W
HStem: 0 15.875<247.953 282.784 409.951 447.997> 709.115 26.8385<123.254 285.653 401.232 604.6>
VStem: 311.033 81.8525<21.7658 647.819 678.813 706.404>
LayerCount: 2
Fore
SplineSet
141.953125 701 m 4
 98.7607421875 693.452148438 77.1767578125 663.401367188 68 614.319335938 c 5
 48 614.333007812 l 5
 66 733 l 5
 66.5873784641 735.105164415 68.418792662 735.953083552 70.9999998046 735.953083552 c 7
 77.0017089732 735.953083552 87.0519065522 732.884061971 94.953125 732.764648438 c 4
 131.759395836 732.208383996 231.926526239 730 353.953125 730 c 28
 461 731 538.259765625 731.861328125 627.953125 734.755859375 c 4
 631.754882812 734.8671875 638.1796875 737.774414062 642.37109375 737.774414062 c 4
 649.241210938 737.774414062 654 736.640625 654 733.087890625 c 4
 654 733 l 5
 650 612.385742188 l 5
 633 613.372070312 l 5
 633 613.372070312 632.971679688 633.350585938 628.953125 650 c 4
 622.953125 683 606.0546875 699.461914062 588.953125 703 c 4
 565.349609375 707.883789062 536.2578125 708.758789062 477.126953125 708.758789062 c 4
 459.806640625 708.758789062 441.829101562 708.323242188 423.62890625 707.938476562 c 4
 404.142578125 707.526367188 395.897460938 691.096679688 395.758789062 677.813476562 c 4
 394.09281533 561.138968589 392.885691678 444.507925941 392.885691678 328.000127942 c 7
 392.885691678 234.722545127 393.715441745 141.523959685 395.7421875 48.4453125 c 4
 395.907226562 35.515625 404.522460938 22.1875 423.625976562 18.3212890625 c 4
 431.583007812 16.7109375 439.705078125 15.984375 447.997070312 15.875 c 5
 447.997070312 0 l 5
 247.953125 0 l 5
 247.953125 15.875 l 5
 259.989257812 16.029296875 271.811523438 15.50390625 283.32421875 19.3212890625 c 4
 299.559570312 24.705078125 308.012695312 35.8134765625 308.174804688 48.4208984375 c 4
 310.142054497 141.546739883 311.033194685 234.745574913 311.033194685 327.999804913 c 7
 311.033194685 434.542756203 310.002144512 541.158014886 308.244140625 647.819335938 c 5
 308.244140625 647.819335938 308.208007812 678.813476562 308.190429688 678.813476562 c 5
 308.190429688 693.87109375 296.727539062 706.075195312 285.953125 707.709960938 c 4
 279.615032701 708.671356961 268.544431117 709.114581806 255.000001021 709.114581806 c 7
 220.996437903 709.114581806 171.401048987 706.14636797 141.953125 701 c 4
EndSplineSet
Validated: 1
EndChar

StartChar: Q
Encoding: 81 81 42
GlifName: Q_
Width: 810
VWidth: 0
Flags: W
HStem: -146.864 31.246<508.409 626> -10.5742 30.2412<337.382 337.861 436.646 500.723> 697.77 35.0391<304.413 493.507>
VStem: 55 89.3262<212.704 495.877> 668.246 87.3262<229.04 501.965>
LayerCount: 2
Fore
SplineSet
144.326171875 380.76171875 m 0
 144.326171875 40.3505859375 337.381835938 19.6669921875 411.984375 19.6669921875 c 0
 543.337890625 19.6669921875 668.24609375 90.3125 668.24609375 373 c 0
 668.24609375 542.56640625 597.818359375 697.76953125 395.27734375 697.76953125 c 0
 172.333007812 697.76953125 144.326171875 460.756835938 144.326171875 380.76171875 c 0
408.185546875 732.80859375 m 2
 595.559570312 732.80859375 755.572265625 602.963867188 755.572265625 356.76171875 c 0
 755.572265625 133.654296875 587.272460938 1.6259765625 436.645507812 -15.1845703125 c 1
 443.029489926 -72.9136821586 489.742126637 -115.617962016 602 -115.617962016 c 7
 609.689737718 -115.617962016 617.687035943 -115.412639957 626 -115 c 1
 632.412109375 -143.166992188 l 1
 605.519194384 -145.591204297 580.370212743 -146.864001897 557.000034366 -146.864001897 c 3
 419.71391781 -146.864001897 343.812072424 -104.889133575 336.36328125 -10.57421875 c 1
 215.77734375 11.7177734375 55 98.130859375 55 347.76171875 c 0
 55 598.610351562 215.013671875 732.80859375 402.388671875 732.80859375 c 2
 408.185546875 732.80859375 l 2
EndSplineSet
Validated: 1
EndChar

StartChar: P
Encoding: 80 80 43
GlifName: P_
Width: 540
VWidth: 0
Flags: W
HStem: 0 15.9473<17.1318 55.203 165.748 204.182> 281.9 29.0996<175.178 291.594> 703.888 28.1123<153.132 315.623> 714.458 15.7713<17.1348 51.3948>
VStem: 72.2789 76.8526<21.3645 703.496> 425.653 78.7344<417.164 612.363>
LayerCount: 2
Fore
SplineSet
179.811523438 18.39453125 m 0xec
 187.768554688 16.78515625 195.889648438 16.05859375 204.181640625 15.947265625 c 1
 204.181640625 0 l 1
 124.623046875 0 l 1
 96.69140625 0 l 1
 17.1318359375 0 l 1
 17.1318359375 15.947265625 l 1
 25.423828125 16.05859375 33.546875 16.7822265625 41.5029296875 18.39453125 c 0
 60.60546875 22.265625 69.373046875 35.2353515625 69.373046875 48.51953125 c 1
 69.3828125 48.51953125 l 1
 70.9579642664 166.077561933 72.2789048385 283.608117084 72.2789048385 400.999890454 c 3
 72.2789048385 490.085974685 71.5321476339 579.092134978 69.5673828125 667.969726562 c 1
 69.3759765625 667.887695312 l 1
 69.3759765625 686.829101562 59.353515625 706.564453125 41.505859375 712.01171875 c 0
 33.7412109375 714.381835938 25.4267578125 714.348632812 17.134765625 714.458007812 c 1
 17.134765625 730.333007812 l 1
 25.7569699044 730.260789618 34.3788038548 730.22935223 42.9999586319 730.22935223 c 3xdc
 107.123854434 730.22935223 171.210176052 732 235.131835938 732 c 0
 384.975585938 732 504.387695312 672.0625 504.387695312 506.967773438 c 0
 504.387695312 354.247532153 357.842573756 281.900369633 226.000003437 281.900369633 c 3
 214.13773363 281.900369633 202.39448301 282.500280928 190.887695312 283.674804688 c 0
 179.765444237 284.810077928 175.162350758 290.257346767 175.162350758 296.999999804 c 3
 175.162350758 303.941919386 180.480127066 311 190.131835938 311 c 0
 318.723632812 311 425.653320312 363.872070312 425.653320312 519.068359375 c 0
 425.653320312 662.60546875 345.05859375 703.887695312 200.131835938 703.887695312 c 2
 153.131835938 703.887695312 l 1
 152.220703125 703.49609375 l 1
 150.076428531 601.448933389 149.131492095 499.271449332 149.131492095 397.000155576 c 3
 149.131492095 280.581573388 150.209830929 164.041432833 151.9609375 47.43359375 c 0
 152.09375 34.53125 161.228515625 22.1533203125 179.811523438 18.39453125 c 0xec
EndSplineSet
Validated: 1
EndChar

StartChar: R
Encoding: 82 82 44
GlifName: R_
Width: 675
VWidth: 0
Flags: W
HStem: 0 15.9473<54 92.0477 202.616 241.05 582.448 622.564> 328 31<185.911 264> 703.888 30.1123<190 349.784> 714.458 15.6469<54.0029 88.2629>
VStem: 109.146 76.4221<21.4738 331.144 359.377 703.496> 444.521 78.7344<454.609 632.061>
LayerCount: 2
Fore
SplineSet
216.6796875 18.39453125 m 4xec
 224.63671875 16.78515625 232.7578125 16.05859375 241.049804688 15.947265625 c 5
 241.049804688 0 l 5
 161.491210938 0 l 5
 133.559570312 0 l 5
 54 0 l 5
 54 15.947265625 l 5
 62.2919921875 16.05859375 70.4150390625 16.7822265625 78.37109375 18.39453125 c 4
 97.4736328125 22.265625 106.103515625 35.236328125 106.241210938 48.51953125 c 4
 107.837966268 167.412049291 109.145955459 286.276788749 109.145955459 404.999889841 c 7
 109.145955459 492.749200669 108.371895119 580.421136994 106.435546875 667.969726562 c 5
 106.244140625 667.887695312 l 5
 106.244140625 686.829101562 96.2216796875 706.564453125 78.3740234375 712.01171875 c 4
 70.609375 714.381835938 62.294921875 714.348632812 54.0029296875 714.458007812 c 5
 54.0029296875 730.333007812 l 5
 62.6690846469 730.173294648 71.3348654921 730.104909963 79.9999586319 730.104909963 c 7xdc
 144.079857579 730.104909963 208.122146848 734 272 734 c 4
 419.02734375 734 523.255859375 677.051757812 523.255859375 537.967773438 c 4
 523.255859375 432.411132812 448.026367188 365.959960938 361 346 c 5
 444.653320312 220.693359375 525.99609375 95.640625 566.859375 40.109375 c 4
 575.548828125 28.30078125 583.1328125 21.390625 593.743164062 19.091796875 c 4
 602.094726562 17.2822265625 614.244140625 16.75390625 622.564453125 16.64453125 c 5
 622.565429688 0.6962890625 l 5
 550.559570312 0.6962890625 l 5
 513.078125 0.6962890625 l 6
 470.795898438 0.6962890625 446.852539062 54.6962890625 433 71 c 5
 433.578125 70.8896484375 l 5
 264 328 l 5
 237.6484375 328.053710938 214.087890625 327.840820312 185.911132812 331.143554688 c 5
 188.829101562 47.43359375 l 6
 188.961914062 34.53125 198.096679688 22.1533203125 216.6796875 18.39453125 c 4xec
185.629882812 359.376953125 m 5
 197.109375 359.173828125 210.3515625 359 222 359 c 4
 343.494140625 359 444.521484375 419.48828125 444.521484375 535.068359375 c 4
 444.521484375 665.987304688 375.598632812 703.887695312 237 703.887695312 c 6
 190 703.887695312 l 5xec
 189.088867188 703.49609375 l 5
 188.2289684 601.304914812 185.568067319 499.250147436 185.568067319 397 c 7
 185.568067319 384.462125929 185.568622988 371.921314207 185.629882812 359.376953125 c 5
EndSplineSet
Validated: 1
EndChar

StartChar: U
Encoding: 85 85 45
GlifName: U_
Width: 764
VWidth: 0
Flags: W
HStem: -9.66504 39.667<282.256 504.481> 714.335 16<46.8682 81.3114 192.598 230.92 583.244 623.812 693.652 733.739>
VStem: 95.6006 83.0879<158.568 318.097 318.289 709.845> 635.919 46.0127<167.209 661.234 661.346 710.359>
LayerCount: 2
Fore
SplineSet
178.716796875 680.044921875 m 1049,0,-1
69.2392578125 711.537109375 m 0,1,-1
 61.9189453125 713.073242188 54.48046875 713.874023438 46.8681640625 713.984375 c 1,4,-1
 46.8681640625 729.859375 l 1,5,-1
 230.919921875 730 l 1,6,-1
 230.919921875 714.125 l 1,7,-1
 222.626953125 714.015625 214.712890625 713.50390625 206.551757812 711.677734375 c 0,10,-1
 188.1484375 707.55859375 179 697.334960938 178.716796875 680.044921875 c 0,13,-1
 178.697265625 678.845703125 178.688476562 671.760742188 178.688476562 660.334960938 c 3,16,-1
 178.688476562 583.465820312 179.065429688 318.096679688 179.065429688 318.096679688 c 1,19,-1
 179.065429688 90.4072265625 243.821289062 30.001953125 394.723632812 30.001953125 c 1,22,-1
 538.6875 30.001953125 635.918945312 102.145507812 635.918945312 313.803710938 c 1,25,-1
 635.918945312 344.778320312 635.603515625 654.383789062 635.603515625 685.008789062 c 1,28,-1
 635.603515625 700.237304688 626.86328125 708.1171875 607.615234375 712.012695312 c 0,31,-1
 599.658203125 713.623046875 591.537109375 714.224609375 583.244140625 714.334960938 c 1,34,-1
 583.244140625 730.334960938 l 1,35,-1
 733.739257812 730.334960938 l 1,36,-1
 733.739257812 714.334960938 l 1,37,-1
 725.4453125 714.224609375 717.328125 713.625 709.37109375 712.012695312 c 0,40,-1
 691.272460938 708.345703125 681.268554688 700.098632812 681.21875 684.213867188 c 0,43,-1
 681.1953125 676.74609375 681.185546875 661.334960938 681.185546875 661.334960938 c 1,46,-1
 681.185546875 661.334960938 681.931640625 521.9140625 681.931640625 458.334960938 c 3,49,-1
 681.931640625 375.374023438 681.592773438 312.747070312 680.852539062 278.076171875 c 0,52,-1
 676.006835938 51.025390625 525.313476562 -9.6650390625 392.014648438 -9.6650390625 c 0,55,-1
 256.52734375 -9.6650390625 94.619140625 52.296875 93.7392578125 291.096679688 c 13,58,-1
 95.6005859375 679.8828125 l 19,59,-1
 95.6005859375 695.963867188 85.2744140625 708.170898438 69.2392578125 711.537109375 c 0,1,-1
EndSplineSet
Validated: 1
EndChar

StartChar: J
Encoding: 74 74 46
GlifName: J_
Width: 305
VWidth: 0
Flags: W
HStem: -180 26<-58 -20.445> 714.458 15.875<59.0029 89.8938 214.62 255.047>
VStem: 119.105 80.2842<-49.6025 709.624>
LayerCount: 2
Fore
SplineSet
90.3740234375 712.01171875 m 0
 80.1318359375 713.622070312 69.6767578125 714.348632812 59.0029296875 714.458007812 c 1
 59.0029296875 730.333007812 l 1
 255.046875 730.333007812 l 1
 255.046875 714.458007812 l 1
 246.073242188 714.348632812 237.260742188 713.750976562 228.67578125 712.01171875 c 0
 210.078125 708.244140625 201.038085938 695.518554688 200.825195312 682.912109375 c 0
 199.786132812 621.479492188 199.389648438 526.004882812 199.389648438 427 c 3
 199.389648438 248.44140625 200.529296875 58.3994140625 201.196289062 35.865234375 c 1
 200.693359375 -100.20703125 108 -175 -58 -180 c 1
 -58 -154 l 1
 77 -116 116.724609375 -75.623046875 117.873046875 79.865234375 c 0
 118.079101562 107.8125 119.10546875 296.087890625 119.10546875 469 c 3
 119.10546875 549.073242188 118.876953125 625.8515625 118.244140625 681.887695312 c 0
 118.09765625 694.818359375 109.627929688 708.984375 90.3740234375 712.01171875 c 0
EndSplineSet
Validated: 1
EndChar

StartChar: plus
Encoding: 43 43 47
GlifName: plus
Width: 406
VWidth: 0
Flags: W
HStem: 276 44<59.0352 181 226.07 346.947>
VStem: 181 44<144.009 276 320 436.908>
LayerCount: 2
Fore
SplineSet
225 152 m 6
 225 147 215 144 204 144 c 4
 193 144 181 147 181 152 c 6
 181 267 l 6
 181 271 179 276 174 276 c 6
 68 276 l 5
 62 278 59 289 59 300 c 4
 59 311 62 320 68 320 c 6
 172 320 l 6
 180 320 181 326 181 329 c 6
 181 432 l 5
 190 435 198 437 206 437 c 4
 214 437 220 435 226 432 c 5
 226 328 l 6
 226 325 226 320 232 320 c 6
 341 320 l 5
 345 320 347 307 347 295 c 4
 347 285 346 276 341 276 c 6
 232 276 l 6
 228 276 225 274 225 269 c 6
 225 152 l 6
EndSplineSet
Validated: 1
EndChar

StartChar: B
Encoding: 66 66 48
GlifName: B_
Width: 601
VWidth: 0
Flags: W
HStem: -1.66699 25.9815<189.142 355.18> 0 15.9473<54 92.0477> 358.478 35.6448<187 327.41> 703.924 30.0764<184.472 344.928> 714.458 15.6469<54.0029 88.2629>
VStem: 109.146 76.4837<25.6859 356 395.377 701.303> 435.521 75.7344<476.998 630.248> 468.078 83.7344<102.819 272.891>
LayerCount: 2
Fore
SplineSet
186.645507812 49.8369140625 m 17xa5
 187.619913324 27.7318081318 199.04296875 25.6474609375 208.556640625 25.4453125 c 0
 224.666026586 25.0099236902 240.639475002 24.3144813469 257 24.3144813469 c 3
 423.999988874 24.3144813469 468.078125 100.038916551 468.078125 195.264648438 c 0
 468.078125 309.979492188 382.453125 357.6875 245 358.477539062 c 0
 187 356 l 1
 186.645507812 49.8369140625 l 17xa5
341.126953125 384.026367188 m 1
 428.239257812 379.961914062 551.8125 320.659179688 551.8125 185.365234375 c 0
 551.8125 48.318359375 448.783203125 -1.6669921875 334.556640625 -1.6669921875 c 0xb5
 264.369140625 -1.6669921875 203.977539062 -0 133.559570312 0 c 2
 54 0 l 1
 54 15.947265625 l 1
 62.2919921875 16.05859375 70.4150390625 16.7822265625 78.37109375 18.39453125 c 0
 97.4736328125 22.265625 106.103515625 35.236328125 106.241210938 48.51953125 c 0
 107.829000057 166.744435761 109.146217626 284.941872782 109.146217626 402.99988984 c 3
 109.146217626 491.417044816 108.386606234 579.755999736 106.435546875 667.969726562 c 1
 106.244140625 667.887695312 l 1
 106.244140625 686.829101562 96.2216796875 706.564453125 78.3740234375 712.01171875 c 0
 70.609375 714.381835938 62.294921875 714.348632812 54.0029296875 714.458007812 c 1
 54.0029296875 730.333007812 l 1
 62.6690846469 730.173294648 71.3348654921 730.104909963 79.9999586319 730.104909963 c 3x6d
 144.079857579 730.104909963 208.122146848 734 272 734 c 0
 413.760742188 734 511.255859375 654.552734375 511.255859375 548.967773438 c 0x36
 511.255859375 463.732421875 434 401.633789062 341.126953125 384.026367188 c 1
435.521484375 548.068359375 m 4x36
 435.521484375 643.559820486 377.200653651 703.923575388 260 703.923575388 c 7
 244.200730995 703.923575388 201.785507164 701.59921036 201 701.565429688 c 4
 188.976582477 701.048363592 184.885742188 696.317382812 183.970703125 685 c 13
 185.196289062 522.40234375 l 5
 185.629882812 395.376953125 l 5
 198.896316922 395.14291204 215.225915378 394.122382885 229.999999231 394.122382885 c 7
 346.467750584 394.122382885 435.521484375 454.284439042 435.521484375 548.068359375 c 4x36
EndSplineSet
Validated: 1
EndChar

StartChar: C
Encoding: 67 67 49
GlifName: C_
Width: 769
VWidth: 0
Flags: W
HStem: -10 42<303.683 515.25> 704.77 37.2315<309.051 505.229>
VStem: 55 89<218.061 499.276> 680.375 19.625<471 501.015>
LayerCount: 2
Fore
SplineSet
648.999999099 657.256029568 m 3
 673.841422486 657.256029568 671.146379585 683.875600593 683.999999842 683.875600593 c 3
 690.995055937 683.875600593 695.840462592 680.016754775 696 672 c 2
 700 471 l 1
 700 471 693.265625 467.252929688 690.888671875 467.252929688 c 0
 684.346679688 467.252929688 681.114257812 469.002929688 680.375 472 c 0
 655.5234375 572.701171875 575.546875 704.76953125 404 704.76953125 c 0
 214.87109375 704.76953125 144 524.620117188 144 385 c 0
 144 51.720703125 334 32 407 32 c 0
 589.139648438 32 670.366210938 181.26171875 670.366210938 186 c 1
 695 178 l 1
 695 178 628.833007812 -10 399.275390625 -10 c 0
 285.84375 -10 55 53 55 352 c 0
 55 553.270132778 160.723121696 742.001025425 418 742.001025425 c 3
 553.556410717 742.001025425 616.01692197 657.256029568 648.999999099 657.256029568 c 3
EndSplineSet
Validated: 1
EndChar

StartChar: E
Encoding: 69 69 50
GlifName: E_
Width: 566
VWidth: 0
Flags: W
HStem: 0 20.9922<51 80.9094 202.356 417.95> 379 29<189.833 383.545> 709 21<57.0029 103.638 201.177 384.398>
VStem: 109.241 82.5684<25.6859 375.436 411.32 704.19> 417.246 15.875<319.025 342.825 442.58 466.521> 488.509 16<590.986 619.376> 523 16<110.335 139.014>
LayerCount: 2
Fore
SplineSet
384.935546875 372.530273438 m 0
 355.267578125 375.4296875 325.75 379 292 379 c 0
 259.083438624 379 217.373308213 375.911291553 188.469206385 373.352754095 c 1
 191.809570312 54.51953125 l 2
 191.809570312 41.2353515625 200.326171875 26.708984375 219.6796875 24.39453125 c 0
 238.604492188 22.130859375 248.912109375 20.9921875 267 20.9921875 c 0
 329.022460938 20.9921875 379.016601562 21.7451171875 422 32.197265625 c 0
 483.1171875 47.0595703125 510.466796875 78.5302734375 523 139.013671875 c 1
 539 140 l 1
 522 0 l 1
 244.049804688 0 l 2
 51 0 l 1
 51 15.947265625 l 1
 61.3330078125 16.05859375 71.5263671875 16.3994140625 81.37109375 18.39453125 c 0
 100.473632812 22.265625 109.103515625 35.236328125 109.241210938 48.51953125 c 1
 110.905175738 66.579509608 112.292165008 246.676400584 112.292165008 410.999995449 c 3
 112.292165008 538.391769609 111.452421087 656.303608459 109.2578125 681.887695312 c 0
 109.091796875 694.817382812 100.477539062 708.145507812 81.3740234375 712.01171875 c 0
 73.4169921875 713.622070312 65.294921875 714.348632812 57.0029296875 714.458007812 c 1
 57.0029296875 730.333007812 l 1
 252.046875 730.333007812 l 1
 252.046875 730 l 1
 487.508789062 730 l 1
 504.508789062 590 l 1
 488.508789062 590.986328125 l 1
 475.975585938 651.469726562 447.53125 679.000976562 387.508789062 697.802734375 c 0
 354.458007812 708.155273438 317.190429688 709 269.508789062 709 c 0
 249.508789062 709 239.134765625 707.991210938 219.188476562 705.60546875 c 0
 202.513671875 703.611328125 191.961914062 692.576171875 191.813476562 681.03125 c 2
 188.371929084 413.077417893 l 1
 217.699288212 410.792190706 260.066596126 408 292 408 c 0
 329.126953125 408 357.702148438 410.864257812 387.98828125 413.659179688 c 0
 400.185546875 416.342773438 411.178710938 427.029296875 414.798828125 442.15234375 c 0
 417.234375 451.185546875 416.413085938 465.421875 417.24609375 466.520507812 c 2
 433.12109375 466.520507812 l 1
 433.12109375 319.025390625 l 1
 417.24609375 319.025390625 l 2
 416.413085938 320.124023438 417.234375 331.185546875 414.798828125 343.396484375 c 0
 412.29296875 360.951171875 394.409179688 370.3515625 384.935546875 372.530273438 c 0
EndSplineSet
Validated: 1
EndChar

StartChar: F
Encoding: 70 70 51
GlifName: F_
Width: 579
VWidth: 0
Flags: W
HStem: 0 15.875<56.0029 94.0749 216.214 249.047> 361 29<189.439 382.545> 709.333 21<50 102.695 201.356 412.124>
VStem: 111.266 75.93<22.2481 357.082 393.497 703.305> 416.246 15.875<301.025 324.825 424.58 448.521> 517 16<591.319 619.998>
LayerCount: 2
Fore
SplineSet
218.6796875 705.938476562 m 4
 199.326171875 703.624023438 190.809570312 689.09765625 190.809570312 675.813476562 c 6
 188.056640625 395.024414062 l 5
 217.35546875 392.749023438 259.314453125 390 291 390 c 4
 328.126953125 390 356.702148438 392.864257812 386.98828125 395.659179688 c 4
 399.185546875 398.342773438 410.178710938 409.029296875 413.798828125 424.15234375 c 4
 416.234375 433.185546875 415.413085938 447.421875 416.24609375 448.520507812 c 6
 432.12109375 448.520507812 l 5
 432.12109375 301.025390625 l 5
 416.24609375 301.025390625 l 6
 415.413085938 302.124023438 416.234375 313.185546875 413.798828125 325.396484375 c 4
 411.29296875 342.951171875 393.409179688 352.3515625 383.935546875 354.530273438 c 4
 354.267578125 357.4296875 324.75 361 291 361 c 4
 258.1484375 361 216.538085938 357.923828125 187.640625 355.368164062 c 5
 187.196289062 317.930664062 l 5
 190.825195312 48.4208984375 l 6
 190.987304688 35.8134765625 199.440429688 24.705078125 215.67578125 19.3212890625 c 4
 227.188476562 15.50390625 237.010742188 16.029296875 249.046875 15.875 c 5
 249.046875 0 l 5
 56.0029296875 0 l 5
 56.0029296875 15.875 l 5
 64.294921875 15.984375 72.4169921875 16.7109375 80.3740234375 18.3212890625 c 4
 99.4775390625 22.1875 108.244140625 35.513671875 108.2578125 48.4453125 c 5
 110.045410646 67.2157827305 111.266241631 236.546214935 111.266241631 396.000004572 c 7
 111.266241631 529.920082819 110.385489345 656.873398087 108.241210938 681.813476562 c 5
 108.241210938 695.09765625 99.4736328125 708.067382812 80.37109375 711.938476562 c 4
 70.5263671875 713.93359375 60.3330078125 714.274414062 50 714.385742188 c 5
 50 730.333007812 l 5
 516 730.333007812 l 5
 533 590.333007812 l 5
 517 591.319335938 l 5
 504.466796875 651.802734375 477.1171875 683.2734375 416 698.135742188 c 4
 374.826171875 708.48828125 328.399414062 708.990234375 269 709.333007812 c 4
 249 709.333007812 238.625976562 708.32421875 218.6796875 705.938476562 c 4
EndSplineSet
Validated: 1
EndChar

StartChar: G
Encoding: 71 71 52
GlifName: G_
Width: 795
VWidth: 0
Flags: W
HStem: -10.0074 42.0074<306.17 512.981> 285.794 15.875<572.807 610.841 711.85 749.851> 704.77 37.2315<309.051 505.229>
VStem: 55 89<217.893 499.276> 627.545 66.4551<116.073 280.238> 680.375 19.625<471 501.015>
LayerCount: 2
Fore
SplineSet
725.479492188 283.34765625 m 0xf8
 706.377929688 279.477539062 698.021484375 266.142578125 697.610351562 253.223632812 c 2
 694 165.73828125 l 1xf8
 694 140.616210938 686.355413209 134.962983294 671 113.080017242 c 0
 632.684878008 58.4772200116 546.361233939 -10.0073851117 411 -10.0073851117 c 3
 290.502193475 -10.0073851117 55 52.0523363795 55 352 c 0
 55 553.270132778 160.723121696 742.001025425 418 742.001025425 c 3
 553.556410717 742.001025425 616.01692197 657.256029568 648.999999099 657.256029568 c 3
 674.482411515 657.256029568 670.605655204 683.903469107 684.999999847 683.903469107 c 3
 691.332337369 683.903469107 695.775390625 679.430664062 696 673 c 2
 700 471 l 1
 700 471 693.265625 467.252929688 690.888671875 467.252929688 c 0
 684.346679688 467.252929688 681.114257812 469.002929688 680.375 472 c 0xf4
 655.5234375 572.701171875 575.546875 704.76953125 404 704.76953125 c 0
 214.87109375 704.76953125 144 524.620117188 144 385 c 0
 144 51.720703125 341 32 414 32 c 0
 504.09375 32 627.544921875 95 627.544921875 168.284179688 c 1
 625.047851562 253.223632812 l 2
 624.830078125 266.151367188 616.28125 279.481445312 597.177734375 283.34765625 c 0
 589.220703125 284.958007812 581.098632812 285.684570312 572.806640625 285.793945312 c 1
 572.806640625 301.668945312 l 1
 749.850585938 301.668945312 l 1
 749.850585938 285.793945312 l 1
 741.557617188 285.684570312 733.436523438 284.959960938 725.479492188 283.34765625 c 0xf8
EndSplineSet
Validated: 1
EndChar

StartChar: K
Encoding: 75 75 53
GlifName: K_
Width: 660
VWidth: 0
Flags: W
HStem: 0 16<54 77.625 220.375 244 405 441.068 579.424 608> 714 16<54 92.304 205.087 244 390 429.166 503.182 540>
VStem: 106 86<19.9063 349.135 388 710.096>
LayerCount: 2
Fore
SplineSet
220 18 m 4
 228 17 236 16 244 16 c 5
 244 0 l 5
 54 0 l 5
 54 16 l 5
 62 16 70 17 78 18 c 4
 97 22 106 35 106 49 c 4
 107.833377494 167.081388844 109.16302352 285.113813792 109.16302352 402.999882133 c 7
 109.16302352 496.107212582 108.233834873 589.123246324 106 682 c 4
 106 695 97 708 78 712 c 4
 70 714 62 714 54 714 c 5
 54 730 l 5
 66 730 180 730 244 730 c 5
 244 714 l 5
 236 714 228 714 220 712 c 4
 201 708 192 696 192 683 c 4
 188 388 l 5
 209 395 225 407 252 443 c 6
 414 656 l 6
 428.60299689 675.192510199 433.979774627 687.595915737 433.979774627 695.75230057 c 4
 433.979774627 707.144880329 423.489887313 710.251685448 413 712 c 4
 406 714 399 714 390 714 c 5
 390 730 l 5
 540 730 l 5
 540 714 l 5
 532 714 524 713 515 711 c 4
 500 708 489 694 477 678 c 6
 292 427 l 5
 326 381 l 5
 417 242 508 100 552 39 c 4
 561 28 569 21 579 18 c 4
 588 17 600 16 608 16 c 5
 608 0 l 5
 405 0 l 5
 405 16 l 5
 413 16 419 17 426 18 c 4
 437.505185829 20.4221443851 446.810327875 24.6776585897 446.810327875 36.3174006314 c 4
 446.810327875 43.8998686499 442.861597593 54.6159077548 433 70 c 5
 434 70 l 5
 229 363 l 5
 218 349 203 342 189 338 c 5
 192 49 l 6
 192.145313061 35.0015084401 201 22 220 18 c 4
EndSplineSet
Validated: 1
EndChar

StartChar: Y
Encoding: 89 89 55
AltUni2: 0003a5.ffffffff.0
GlifName: Y_
Width: 684
VWidth: 0
Flags: W
HStem: 0 15.9473<253.057 291.128 402.035 440.106> 713.906 15.9473<49.002 86.0887 211.747 250.498 508.299 547.47 621.233 656.497>
VStem: 305.522 82.1377<20.2555 395.967>
LayerCount: 2
Fore
SplineSet
305.522460938 48.51953125 m 1
 306.669077374 118.064757528 308.295891996 187.735268114 308.295891996 257.000022756 c 3
 308.295891996 300.044250553 307.551127125 342.931777941 305.622070312 385.53515625 c 1
 222.293945312 511.778320312 141.374023438 635.3671875 100.849609375 690.438476562 c 0
 92.16015625 702.247070312 84.576171875 709.1640625 73.96484375 711.459960938 c 0
 65.611328125 713.267578125 57.32421875 713.795898438 49.001953125 713.90625 c 1
 49 729.853515625 l 1
 128.005859375 729.853515625 l 1
 160.48828125 729.853515625 l 1
 250.498046875 729.853515625 l 1
 250.498046875 713.90625 l 1
 242.233398438 713.795898438 234.286132812 713.072265625 226.720703125 711.459960938 c 0
 215.139470609 708.992053955 203.820991423 704.496739106 203.820991423 691.557990922 c 0
 203.820991423 684.201360236 207.479983455 674.115170677 216.830078125 660.120117188 c 2
 368.772460938 432.693359375 l 1
 532.322265625 656.143554688 l 2
 546.562155626 675.598806958 551.835727473 687.945245616 551.835727473 696.008592539 c 0
 551.835727473 707.197214628 541.68195596 710.139142423 531.240234375 712.383789062 c 0
 523.7578125 713.9921875 516.55859375 713.719726562 508.298828125 713.830078125 c 1
 508.298828125 729.77734375 l 1
 566.72265625 729.77734375 l 1
 600.999023438 729.77734375 l 1
 656.497070312 729.77734375 l 1
 656.497070312 713.829101562 l 1
 631.490170083 713.497670678 612 704 603 691 c 1
 387.834960938 395.966796875 l 1
 385.724714111 349.576814302 384.924592566 302.874386879 384.924592566 255.999975367 c 3
 384.924592566 187.062878855 386.430158921 117.753799772 387.66015625 48.51953125 c 1
 387.866210938 48.51953125 l 1
 387.866210938 35.2353515625 396.631835938 22.2587890625 415.736328125 18.39453125 c 0
 423.693359375 16.78515625 431.814453125 16.05859375 440.106445312 15.947265625 c 1
 440.106445312 0 l 1
 253.056640625 0 l 1
 253.056640625 15.947265625 l 1
 261.348632812 16.05859375 269.471679688 16.7822265625 277.427734375 18.39453125 c 0
 296.530273438 22.265625 305.297851562 35.2353515625 305.297851562 48.51953125 c 1
 305.522460938 48.51953125 l 1
EndSplineSet
Validated: 1
EndChar

StartChar: Z
Encoding: 90 90 56
GlifName: Z_
Width: 652
VWidth: 0
Flags: W
HStem: 0 25<166.567 476.96> 708.333 22<209.732 502.825>
LayerCount: 2
Fore
SplineSet
589.63671875 681.8125 m 1
 164.887695312 33 l 5
 200.59765625 27.6669921875 243.602539062 25 287.887695312 25 c 4
 331.602539062 25 417.470703125 25.54296875 467.887695312 32.197265625 c 4
 534.20703125 40.951171875 561.610351562 84.6025390625 574.887695312 153.013671875 c 5
 593.887695312 154 l 5
 567.887695312 0 l 5
 79.8876953125 0 l 6
 71.9246413155 0 54.0150923816 3.545462893 54.0150923816 18.0000002176 c 7
 54.0150923816 23.9926598527 56.6564966483 31.3116064695 59.8876953125 36 c 5
 502.887695312 704 l 1
 502.887695312 704 416.12109375 708.333007812 358.887695312 708.333007812 c 1
 299.892578125 708.020507812 253.958984375 706.919921875 212.887695312 698.135742188 c 0
 144.970703125 683.610351562 114.786132812 651.802734375 100.887695312 591.319335938 c 1
 84.8876953125 590.333007812 l 1
 115.887695312 730.333007812 l 1
 116.77211321 733.538739329 120.295794905 734.543789197 125.00000026 734.543789197 c 3
 134.481485808 734.543789197 148.758703592 730 155.887695312 730 c 0
 341.837890625 730.333007812 l 1
 565.396484375 730.333007812 l 1
 592.887695312 730.333007812 l 2
 592.887695312 730.333007812 596.93876041 719.798636386 596.93876041 706.999999535 c 3
 596.93876041 698.808959949 595.198039026 689.690497173 589.63671875 681.8125 c 1
EndSplineSet
Validated: 1
EndChar

StartChar: zero
Encoding: 48 48 57
GlifName: zero
Width: 480
VWidth: 0
Flags: W
HStem: -7 30<201.384 278.616> 611 29<201.384 278.616>
VStem: 31 74<173.666 457.137> 375 74<173.666 457.137>
LayerCount: 2
Fore
SplineSet
105 317 m 0
 105 155 167 23 240 23 c 0
 313 23 375 155 375 317 c 0
 375 479 313 611 240 611 c 0
 167 611 105 479 105 317 c 0
31 317 m 0
 31 496 122 640 240 640 c 4
 358 640 449 496 449 317 c 0
 449 138 358 -7 240 -7 c 0
 122 -7 31 138 31 317 c 0
EndSplineSet
EndChar

StartChar: one
Encoding: 49 49 58
GlifName: one
Width: 480
VWidth: 0
Flags: W
HStem: 0 16<173 204.039 287.724 319>
VStem: 209 74<16.8599 564.988>
LayerCount: 2
Fore
SplineSet
319 16 m 5
 319 0 l 5
 173 0 l 5
 173 16 l 5
 192 16 209 19 209 37 c 6
 209 532 l 6
 209 549 207 565 193 565 c 4
 182 565 168 563 168 563 c 5
 168 583 l 4
 204 598 239 616 266 642 c 4
 267.546875 643.489257812 269.721679688 644.134765625 272 644.134765625 c 7
 277.2265625 644.134765625 283 640.267578125 283 634 c 6
 283 37 l 6
 283 18 301 16 319 16 c 5
EndSplineSet
EndChar

StartChar: two
Encoding: 50 50 59
GlifName: two
Width: 480
VWidth: 0
Flags: W
HStem: 0 54<125 380> 601 41<184.098 311.723>
VStem: 352.031 66.9688<433.392 565.057> 404 14<89.6826 104>
LayerCount: 2
Fore
SplineSet
124 530 m 1xe0
 105 546.083007812 l 1
 105 546.083007812 158 642 264 642 c 0
 363 642 419 594.083007812 419 514.083007812 c 0xe0
 419 456.083007812 378.779296875 389.389648438 296 282 c 0
 222 186 153 86 125 54 c 1
 318 54 l 2
 368 54 394 73 404 105 c 1
 418 103 l 1xd0
 380 0 l 1
 56 0 l 0
 56 12 56 34 56 34 c 1
 159 157 225.317382812 263.978515625 282 341 c 0
 319.58136272 392.066314245 352.03125 450.780273438 352.03125 496 c 0
 352.03125 569 303.458007812 601 242 601 c 0
 182 601 155 569 124 530 c 1xe0
EndSplineSet
EndChar

StartChar: hyphen
Encoding: 45 45 60
GlifName: hyphen
Width: 403
VWidth: 0
Flags: W
HStem: 276 44<68.0352 335.947>
VStem: 68 268<276.1 320>
LayerCount: 2
Fore
SplineSet
77 276 m 5
 71 278 68 289 68 300 c 4
 68 311 71 320 77 320 c 5
 330 320 l 5
 334 320 336 307 336 295 c 4
 336 285 335 276 330 276 c 5
 77 276 l 5
EndSplineSet
Validated: 1
EndChar

StartChar: backslash
Encoding: 92 92 61
GlifName: backslash
Width: 398
VWidth: 0
Flags: W
VStem: 43 67.168<616.12 689.55>
LayerCount: 2
Fore
SplineSet
356.16796875 -96 m 1
 347.367124621 -100.563400659 337.078807237 -103.052364588 327.000000706 -103.052364588 c 7
 306.158162313 -103.052364588 286.21222561 -90.3540548823 282.16796875 -58 c 1
 282.16796875 -58 132 425 43 676 c 1
 43 689.320058076 51.1803905918 696.25617942 63.9999991844 696.25617942 c 3
 76.2035415053 696.25617942 92.6111260858 689.655322072 110.16796875 676 c 1
 182.16796875 419 255.16796875 183 356.16796875 -96 c 1
EndSplineSet
Validated: 1
EndChar

StartChar: parenleft
Encoding: 40 40 62
GlifName: parenleft
Width: 282
VWidth: 0
Flags: W
VStem: 57 63<199.654 513.411>
LayerCount: 2
Fore
SplineSet
238 769 m 5
 212 731 120 667 120 350 c 4
 120 56 212 -11 238 -50 c 5
 238 -90 l 5
 238 -90 57 88 57 351 c 4
 57 646 238 798.697265625 238 798.697265625 c 5
 238 769 l 5
EndSplineSet
Validated: 1
EndChar

StartChar: parenright
Encoding: 41 41 63
GlifName: parenright
Width: 280
VWidth: 0
Flags: W
VStem: 161 63<199.654 513.411>
LayerCount: 2
Fore
SplineSet
43 769 m 5
 43 798.697265625 l 5
 43 798.697265625 224 646 224 351 c 4
 224 88 43 -90 43 -90 c 5
 43 -50 l 5
 69 -11 161 56 161 350 c 4
 161 667 69 731 43 769 c 5
EndSplineSet
Validated: 1
EndChar

StartChar: three
Encoding: 51 51 64
GlifName: three
Width: 480
VWidth: 0
Flags: W
HStem: -7 30<118.283 264.777> 286.891 17.1094<106.369 111> 304 71<230 294.61> 598 42<152.592 266.112>
VStem: 289 78<483.985 575.722> 356 63<100.823 243.396>
LayerCount: 2
Fore
SplineSet
73 522 m 13xd8
 58 537 l 5
 58 537 129 640 230 640 c 4
 322 640 367 601 367 542 c 4xd8
 367 482 290 425 230 375 c 5
 323 375 419 299 419 195 c 4
 419 71.1513671875 331.216796875 -7 190 -7 c 4
 129 -7 49 17 49 37 c 4
 49 39 49 40 50 42 c 4
 55 49 62 59 72 59 c 4
 82 59 93 55 105 46 c 4
 126 30 159 23 190 23 c 4
 282.609375 23 356 76.8701171875 356 166 c 4
 356 219 331 268 285 288 c 4
 258 300 229 304 202 304 c 4xb4
 165.278320312 304 126.725585938 286.890625 117 286.890625 c 7
 111.487304688 286.890625 106.185546875 291.666992188 106.185546875 297 c 7
 106.185546875 299.3984375 107.813476562 301.875976562 111 304 c 5
 111 304 289 436 289 516 c 4
 289 567 258 598 210 598 c 4
 163 598 106 568 73 522 c 13xd8
EndSplineSet
EndChar

StartChar: four
Encoding: 52 52 65
GlifName: four
Width: 480
VWidth: 0
Flags: W
HStem: 0 21G<301 360> 278 44<133.5 297.5 365.5 434.407>
VStem: 297.5 66<0 278 321 539>
LayerCount: 2
Fore
SplineSet
297.5 539 m 21
 247.5 464 183.5 381 133.5 322 c 5
 188.5 322 273.5 319 297.5 319 c 13
 297.5 539 l 21
325.5 628 m 5
 330.5 637 341.5 642 350.5 642 c 4
 358.5 642 365.5 638 365.5 628 c 13
 365.5 321 l 21
 397.5 321 420.5 325 444.5 329 c 5
 437.5 322 434.5 314 434.5 302 c 4
 434.5 290 437.5 283 442.5 278 c 5
 363.5 278 l 29
 363.5 8 l 21
 363.5 3 362.5 0 357.5 0 c 5
 303.5 0 l 21
 298.5 0 297.5 2 297.5 6 c 5
 297.5 278 l 29
 297.5 278 81.5 278 68.5 278 c 4
 65.330078125 278 61.0146484375 281.071289062 61.0146484375 285 c 7
 61.0146484375 288.506835938 62.669921875 292.698242188 65.5 296 c 4
 157.5 407 247.5 517 325.5 628 c 5
EndSplineSet
EndChar

StartChar: semicolon
Encoding: 59 59 66
GlifName: semicolon
Width: 238
VWidth: 0
Flags: W
HStem: -77 10<63 77.8553> 355 102<77.5153 161.544>
VStem: 68 103<0.429108 78.4868 364.177 447.544> 109 67<-41.2838 0.488605>
LayerCount: 2
Fore
SplineSet
68 406 m 0xe0
 68 434 91 457 120 457 c 0
 148 457 171 434 171 406 c 0
 171 377 148 355 120 355 c 0
 91 355 68 377 68 406 c 0xe0
68 38 m 0
 68 66 95 91 124 91 c 0
 154 91 176 66 176 41 c 2
 176 40 l 0
 176 -27 147 -63 109 -73 c 0
 98 -76 87 -77 80 -77 c 0
 69 -77 63 -77 63 -77 c 1
 57 -67 l 1
 69 -67 92 -59 102 -45 c 0
 106 -39 109 -33 109 -27 c 0xd0
 109 -21 106 -16 101 -11 c 0
 83 6 68 10 68 38 c 0
EndSplineSet
Validated: 1
EndChar

StartChar: colon
Encoding: 58 58 67
GlifName: colon
Width: 228
VWidth: 0
Flags: W
HStem: -11 102<70.5153 154.544> 355 102<70.5153 154.544>
VStem: 61 103<-1.54432 81.5443 364.177 447.544>
LayerCount: 2
Fore
SplineSet
61 40 m 0
 61 68 84 91 113 91 c 0
 141 91 164 68 164 40 c 0
 164 12 141 -11 113 -11 c 0
 84 -11 61 12 61 40 c 0
61 406 m 0
 61 434 84 457 113 457 c 0
 141 457 164 434 164 406 c 0
 164 377 141 355 113 355 c 0
 84 355 61 377 61 406 c 0
EndSplineSet
Validated: 1
EndChar

StartChar: five
Encoding: 53 53 68
GlifName: five
Width: 480
VWidth: 0
Flags: W
HStem: -5 34<115.491 279.944> 334 69<128.761 296.124> 556 55<142 410.968>
VStem: 367 60<117.097 265.351>
LayerCount: 2
Fore
SplineSet
404 617 m 4
 406.383789062 617.43359375 408.768554688 617.5859375 411 617.5859375 c 7
 417.358398438 617.5859375 422.821289062 615.38671875 422.821289062 611 c 7
 422.821289062 606.995117188 408.74609375 571.424804688 403 556 c 5
 142 556 l 29
 95 366 l 21
 143 391 190 403 234 403 c 4
 343 403 427 331 427 207 c 4
 427 98 336 -5 215 -5 c 4
 171 -5 108 0 59 50 c 5
 56.6474609375 52.3525390625 55.81640625 55.1748046875 55.81640625 58 c 7
 55.81640625 64.982421875 62.30859375 71.9873046875 68 71.9873046875 c 7
 69.7958984375 71.9873046875 71.5322265625 71.4677734375 73 70 c 5
 105 37 170 29 208 29 c 4
 312 29 367 116 367 187 c 4
 367 271 307 334 208 334 c 4
 164 334 112 321 54 292 c 5
 130 611 l 21
 349 611 l 6
 368 611 391 614 404 617 c 4
EndSplineSet
EndChar

StartChar: equal
Encoding: 61 61 69
GlifName: equal
Width: 401
VWidth: 0
Flags: W
HStem: 226 44<67.0352 334.947> 326 44<67.0352 334.947>
VStem: 67 268<226.1 270 326.1 370>
LayerCount: 2
Fore
SplineSet
76 326 m 1
 70 328 67 339 67 350 c 0
 67 361 70 370 76 370 c 1
 329 370 l 1
 333 370 335 357 335 345 c 0
 335 335 334 326 329 326 c 1
 76 326 l 1
76 226 m 1
 70 228 67 239 67 250 c 0
 67 261 70 270 76 270 c 1
 329 270 l 1
 333 270 335 257 335 245 c 0
 335 235 334 226 329 226 c 1
 76 226 l 1
EndSplineSet
Validated: 1
EndChar

StartChar: asterisk
Encoding: 42 42 70
GlifName: asterisk
Width: 346
VWidth: 0
Flags: W
HStem: 337.125 304.75<160.041 184.959>
VStem: 159.275 26.4492<339.322 457.875 519.975 638.795>
LayerCount: 2
Fore
SplineSet
170.775390625 641.875 m 2
 174.224609375 641.875 l 2
 179.974609375 641.875 184.575195312 637.275390625 184.575195312 631.525390625 c 2
 189.174804688 519.974609375 l 1
 289.224609375 570.575195312 l 2
 290.809461868 571.376740753 292.674804688 571.724609375 293.825195312 571.724609375 c 0
 298.424804688 571.724609375 301.644253691 570.259310419 304.174804688 566.974609375 c 0
 306.00135569 564.60371308 306.474609375 561.804636866 306.474609375 559.075195312 c 0
 306.474609375 555.625 304.174804688 552.174804688 300.724609375 549.875 c 2
 208.724609375 488.924804688 l 1
 300.724609375 427.974609375 l 2
 304.112027536 425.730437652 306.474609375 423.375 306.474609375 418.775390625 c 0
 306.474609375 416.213752617 305.162339727 413.849231765 304.174804688 411.875 c 0
 301.875 408.424804688 298.424804688 406.125 293.825195312 406.125 c 0
 292.674804688 406.125 290.356292443 406.696391025 289.224609375 407.275390625 c 2
 190.325195312 457.875 l 1
 185.724609375 347.474609375 l 2
 185.724609375 341.724609375 179.974609375 337.125 174.224609375 337.125 c 2
 170.775390625 337.125 l 2
 165.025390625 337.125 159.275390625 341.724609375 159.275390625 347.474609375 c 2
 154.674804688 457.875 l 1
 54.75 407.150390625 l 2
 52.521484375 406.009765625 51.2998046875 406 49 406 c 0
 45.5498046875 406 42.6848126237 409.339758411 40.8251953125 411.875 c 0
 39.5981728554 413.547816415 38.525390625 416.48576837 38.525390625 418.775390625 c 0
 38.525390625 422.224609375 40.8251953125 426.825195312 43.125 427.974609375 c 2
 136.275390625 488.924804688 l 1
 43.125 549.875 l 1
 39.7876600453 551.909963387 38.2777653869 556.012151907 38.2777653869 559.999999845 c 3
 38.2777653869 567.023029684 44.3578397445 571.724609375 50.025390625 571.724609375 c 4
 52.3251953125 571.724609375 53.474609375 571.724609375 55.775390625 570.575195312 c 2
 155.825195312 519.974609375 l 1
 160.424804688 631.525390625 l 2
 160.424804688 636.125 165.025390625 641.875 170.775390625 641.875 c 2
EndSplineSet
Validated: 1
EndChar

StartChar: numbersign
Encoding: 35 35 71
GlifName: numbersign
Width: 695
VWidth: 0
Flags: W
HStem: 224 55<54.4473 185 247 375 437 592.609> 483 55<105.447 247 309 437 499 643.169> 710.333 20G<313 345.5 503 535.5>
VStem: 304 49<691.045 730.333> 494 49<691.045 730.333>
LayerCount: 2
Fore
SplineSet
316 730.333007812 m 2
 343 730.333007812 l 2
 348 730.333007812 353 729 353 723 c 2
 353 723 353 721 353 720 c 2
 309 538 l 1
 450 538 l 1
 494 720 l 2
 495 726 500 730.333007812 506 730.333007812 c 2
 533 730.333007812 l 2
 538 730.333007812 543 729 543 723 c 2
 543 723 543 721 543 720 c 2
 499 538 l 1
 642 538 l 2
 647 538 652 536 652 531 c 0
 652 530 651 529 651 528 c 2
 640 495.083007812 l 2
 638 489.083007812 633 483 627 483 c 2
 486 483 l 1
 437 279 l 1
 591 279 l 2
 596 279 601 277 601 272 c 0
 601 271 600 270 600 269 c 2
 589 234 l 2
 587 228 582 224 576 224 c 2
 424 224 l 1
 375 20 l 2
 375 14 371 10 365 10 c 2
 336 10 l 2
 330 10 326 14 326 20 c 2
 375 224 l 1
 234 224 l 1
 185 20 l 2
 185 14 181 10 175 10 c 2
 146 10 l 2
 140 10 136 14 136 20 c 2
 185 224 l 1
 57 224 l 2
 52 224 47 227 47 232 c 0
 47 233 47 235 48 236 c 2
 58 269 l 2
 60 275 65 279 71 279 c 2
 198 279 l 1
 247 483 l 1
 108 483 l 2
 103 483 98 486 98 491 c 0
 98 492 98 494.083007812 99 495.083007812 c 2
 109 528 l 2
 111 534 116 538 122 538 c 2
 260 538 l 1
 304 720 l 2
 305 726 310 730.333007812 316 730.333007812 c 2
296 483 m 5
 247 279 l 5
 388 279 l 5
 437 483 l 5
 296 483 l 5
EndSplineSet
Validated: 1
EndChar

StartChar: six
Encoding: 54 54 72
GlifName: six
Width: 480
VWidth: 0
Flags: W
HStem: -8 25<208.931 314.752> 347 53<210.387 339.85> 608 29<340.233 387>
VStem: 39 71<140.551 377.053> 396 63<106.049 286.667>
LayerCount: 2
Fore
SplineSet
383 608 m 4
 348 599 294.477539062 579.340820312 245 544 c 4
 154 479 110 367 110 255 c 4
 110 154 153 17 255 17 c 4
 343 17 396 82 396 192 c 4
 396 304 336 347 263 347 c 4
 209 347 179 322 158 298 c 4
 154.100585938 293.80078125 150.680664062 292.797851562 148 292.797851562 c 7
 144.130859375 292.797851562 141.8046875 297.760742188 141.8046875 303 c 7
 141.8046875 306.232421875 142.86328125 309.794921875 145 313 c 4
 167 345 205 400 294 400 c 4
 367 400 459 349 459 204 c 4
 459 93 382 -8 254 -8 c 4
 134 -8 39 113 39 251 c 4
 39 409 125 504 193 556 c 4
 245 596 338 627 387 637 c 5
 387 637 392.1875 628.092773438 392.1875 620 c 7
 392.1875 614.809570312 390.034179688 609.954101562 383 608 c 4
EndSplineSet
EndChar

StartChar: nine
Encoding: 57 57 73
GlifName: nine
Width: 480
VWidth: 0
Flags: W
HStem: -15 26<118 151.663> 253 44<159.76 285.372> 616 25<172.18 286.307>
VStem: 42 61<362.625 538.497> 381 61<246.012 514.275>
LayerCount: 2
Fore
SplineSet
123 11 m 4
 156 22 198 47 245 84 c 4
 335 152 381 248 381 377 c 4
 381 509 342 616 229 616 c 4
 154 616 103 569 103 461 c 4
 103 364 153 297 215 297 c 4
 266 297 311 323 331 347 c 4
 334.490234375 350.758789062 337.548828125 352.26953125 340 352.26953125 c 7
 343.7265625 352.26953125 347.360351562 348.689453125 347.360351562 344 c 7
 347.360351562 340.287109375 345.5859375 335.87890625 343 332 c 4
 321 300 284 253 201 253 c 4
 131 253 42 304 42 449 c 4
 42 561 133 641 230 641 c 4
 361 641 442 556 442 381 c 4
 442 201 353 127 288 74 c 4
 238 34 164 -3 118 -15 c 5
 118 -15 113.908203125 -7.2177734375 113.908203125 0 c 7
 113.908203125 4.638671875 116.348632812 9.0439453125 123 11 c 4
EndSplineSet
EndChar

StartChar: exclam
Encoding: 33 33 74
GlifName: exclam
Width: 236
VWidth: 0
Flags: W
HStem: -11.0996 102.1<76.3483 160.051>
VStem: 67 102.507<-1.61021 81.5443> 73.5068 87<558.87 738.432> 96.5068 44<209.731 376.13>
LayerCount: 2
Fore
SplineSet
67 40 m 0xc0
 67 68 89.5068359375 91 118.506835938 91 c 0
 146.506835938 91 169.506835938 68 169.506835938 40 c 0
 169.506835938 12 146.506835938 -11.099609375 118.506835938 -11.099609375 c 0
 89.5068359375 -11.099609375 67 12 67 40 c 0xc0
160.506835938 701 m 1xa0
 140.506835938 234 l 2
 139.744140625 219.234375 131 210 119.000000331 209.710430986 c 24
 106 210 97.369140625 218.89453125 96.5068359375 234 c 2x90
 73.5068359375 701 l 1
 73.5068359375 729.705386678 95.1927912395 743.995011462 116.910698136 743.995011462 c 0
 138.692696808 743.995011462 160.506835938 729.620921928 160.506835938 701 c 1xa0
EndSplineSet
Validated: 1
EndChar

StartChar: percent
Encoding: 37 37 75
GlifName: percent
Width: 884
VWidth: 0
Flags: W
HStem: -9 28<635.661 714.339> 256 28<172.446 251.306> 349 28<635.661 714.339> 614 28<172.446 251.306>
VStem: 52 63<344.972 553.028> 309 62<344.972 553.028> 515 63<79.9719 288.028> 772 63<79.9719 288.028>
LayerCount: 2
Fore
SplineSet
115 449 m 4
 115 345 160 284 212 284 c 4
 263 284 309 345 309 449 c 4
 309 553 263 614 212 614 c 4
 160 614 115 553 115 449 c 4
52 449 m 4
 52 573 124 642 212 642 c 4
 300 642 371 573 371 449 c 4
 371 325 300 256 212 256 c 4
 124 256 52 325 52 449 c 4
578 184 m 4
 578 80 624 19 675 19 c 4
 726 19 772 80 772 184 c 4
 772 288 726 349 675 349 c 4
 624 349 578 288 578 184 c 4
515 184 m 4
 515 308 587 377 675 377 c 4
 763 377 835 308 835 184 c 4
 835 60 763 -9 675 -9 c 4
 587 -9 515 60 515 184 c 4
652 702 m 6
 670 690 l 6
 673.214403343 688.071357994 675.392150598 685.316124879 675.392150598 682.000000379 c 7
 675.392150598 680.157897759 675.071357994 678.142715988 674 676 c 6
 240 -73 l 6
 238.837609312 -74.9373178127 236.624322539 -75.6742342188 234.000000158 -75.6742342188 c 7
 229.851240798 -75.6742342188 224.675218625 -73.8376093124 221 -72 c 6
 208 -64 l 6
 204.785596657 -62.0713579939 203.31633662 -59.3161248794 203.31633662 -56.0000003788 c 7
 203.31633662 -54.1578977588 203.928642006 -52.1427159878 205 -50 c 6
 638 699 l 6
 639.843340351 702.072233919 642.819315253 704.122854449 645.99999983 704.122854449 c 7
 647.995816556 704.122854449 650.072233919 703.542212865 652 702 c 6
EndSplineSet
Validated: 1
EndChar

StartChar: seven
Encoding: 55 55 76
GlifName: seven
Width: 480
VWidth: 0
Flags: W
HStem: 0 21G<109.085 183.585> 562 60<68.1816 363.085>
VStem: 109.085 62<0 91.5098>
LayerCount: 2
Fore
SplineSet
363.084960938 562 m 5
 95.0849609375 562 l 4
 79.0849609375 562 68.0849609375 546 68.0849609375 546 c 6
 62.0849609375 546 55.0849609375 553 55.0849609375 553 c 6
 68.0849609375 612 l 6
 70.0849609375 617 76.0849609375 622 82.0849609375 622 c 6
 361.084960938 622 l 5
 423.084960938 622 l 6
 429.084960938 622 433.084960938 618 433.084960938 612 c 5
 426.084960938 596 l 5
 305.084960938 413 196.084960938 166 171.084960938 0 c 5
 109.084960938 0 l 5
 134.084960938 165 259.084960938 413 363.084960938 562 c 5
EndSplineSet
EndChar

StartChar: eight
Encoding: 56 56 77
GlifName: eight
Width: 480
VWidth: 0
Flags: W
HStem: -8 24<201.538 307.253> 623 20<209.933 298.784>
VStem: 65 67<75.5082 219.047> 95 63<451.891 582.618> 364 49<460.568 575.715> 386 59<78.9731 207.332>
LayerCount: 2
Fore
SplineSet
258 16 m 4xe4
 331 16 386 85 386 142 c 4
 386 213.412109375 306.501953125 284.134765625 236 329 c 5
 163 266 132 223 132 147 c 4
 132 68 184 16 258 16 c 4xe4
267 378 m 5
 301 412 364 465 364 516 c 4
 364 561 322 623 258 623 c 4
 175 623 158 563 158 521 c 4xd8
 158 446 212 416 267 378 c 5
290 367 m 5
 292 365 294.737304688 363.697265625 297 362 c 4
 377 302 445 242 445 143 c 4
 445 76 366 -8 257 -8 c 4
 167 -8 65 51 65 146 c 4xe4
 65 225 130 277 210 341 c 5
 151 383 95 422 95 520 c 4
 95 564 132 643 258 643 c 4
 338 643 413 588 413 518 c 4
 413 454 334 406 290 367 c 5
EndSplineSet
EndChar

StartChar: question
Encoding: 63 63 78
GlifName: question
Width: 462
VWidth: 0
Flags: W
HStem: -4 102<173.96 257.989> 699 36.333<155.338 292.039>
VStem: 46.801 69.6433<604.61 667.983> 164.444 103<5.45568 88.5443> 174.08 66.9203<341 383.665> 189 52<200 340.931> 357 47.4443<529.345 649.273>
LayerCount: 2
Fore
SplineSet
189 200 m 5xe6
 183.930368935 246.322924789 174.079667193 341 174.079667193 341 c 7
 174.079667193 390.573553431 222.613793812 427.192506466 259 460 c 4
 320 515 357 532 357 593 c 4
 357 661 279.444335938 699 221.444335938 699 c 4
 160.444335938 699 121.444335938 660 116.444335938 638 c 4
 110.643956572 612.478330791 93.4443359375 599 76.4443359375 599 c 4
 57.0094670391 599 46.8010204123 612.844382597 46.8010204123 635.000000357 c 7
 46.8010204123 686.629880315 146.063070661 735.333007812 223.444335938 735.333007812 c 4
 308.444335938 735.333007812 404.444335938 678 404.444335938 569 c 4
 404.444335938 493 369.229492188 474.666992188 314 432 c 4
 278.159179688 404.311523438 242 366 241 349 c 5xea
 241 200 l 29
 189 200 l 5xe6
164.444335938 47 m 4xf2
 164.444335938 75 187.444335938 98 216.444335938 98 c 4
 244.444335938 98 267.444335938 75 267.444335938 47 c 4
 267.444335938 19 244.444335938 -4 216.444335938 -4 c 4
 187.444335938 -4 164.444335938 19 164.444335938 47 c 4xf2
EndSplineSet
Validated: 1
EndChar

StartChar: quotesingle
Encoding: 39 39 79
GlifName: quotesingle
Width: 187
VWidth: 0
Flags: W
HStem: 501 166<75.875 112.014>
VStem: 65 58<560.167 666.32>
LayerCount: 2
Fore
SplineSet
92 667 m 2
 96 667 l 2
 113 667 123 654 123 636 c 0
 123 634 123 631 123 629 c 2
 111 511 l 2
 111 505 107 501 101 501 c 2
 87 501 l 2
 81 501 77 505 77 511 c 2
 65 629 l 2
 65 631 65 633 65 634 c 0
 65 652 77 667 92 667 c 2
EndSplineSet
Validated: 1
EndChar

StartChar: quotedbl
Encoding: 34 34 80
GlifName: quotedbl
Width: 304
VWidth: 0
Flags: W
HStem: 501 166<75.875 111.771 191.875 227.771>
VStem: 65 59<560.167 666.305> 181 59<560.167 666.305>
LayerCount: 2
Fore
SplineSet
208 667 m 2
 212 667 l 2
 229 667 240 655 240 637 c 0
 240 635 240 632 239 629 c 2
 227 511 l 2
 227 505 223 501 217 501 c 2
 203 501 l 2
 197 501 193 505 193 511 c 2
 181 629 l 2
 181 631 181 633 181 634 c 0
 181 652 193 667 208 667 c 2
92 667 m 6
 96 667 l 6
 113 667 124 655 124 637 c 4
 124 635 124 632 123 629 c 6
 111 511 l 6
 111 505 107 501 101 501 c 6
 87 501 l 6
 81 501 77 505 77 511 c 6
 65 629 l 6
 65 631 65 633 65 634 c 4
 65 652 77 667 92 667 c 6
EndSplineSet
Validated: 1
EndChar

StartChar: underscore
Encoding: 95 95 81
GlifName: underscore
Width: 429
VWidth: 0
Flags: W
HStem: -3 40<60.0024 366.722>
VStem: 60 306.74<-3 37>
LayerCount: 2
Fore
SplineSet
69.75 -3 m 5
 63.2500000622 -3 60 6.99999980854 60 16.9999997128 c 7
 60 26.9999998085 63.2499999378 37 69.75 37 c 5
 357.75 37 l 5
 363.549925786 37 366.739992577 27.6557946878 366.739992577 18.0000002868 c 7
 366.739992577 7.67803340506 363.950074214 -3 357.75 -3 c 5
 69.75 -3 l 5
EndSplineSet
Validated: 1
EndChar

StartChar: bracketleft
Encoding: 91 91 82
GlifName: bracketleft
Width: 311
VWidth: 0
Flags: W
HStem: -87 40<128 266.62> 753 40<128 266.62>
VStem: 74 54<-47 753>
LayerCount: 2
Fore
SplineSet
128 753 m 5
 128 -47 l 5
 258 -47 l 6
 263.870117188 -47 266.62890625 -55.52734375 266.62890625 -66.2841796875 c 4
 266.62890625 -77.517578125 263.619140625 -87 258 -87 c 6
 93 -87 l 5
 80 -87 74 -81 74 -67 c 6
 74 773 l 6
 74 787 81 793 97 793 c 5
 258 793 l 6
 263.870117188 793 266.62890625 784.47265625 266.62890625 773.715820312 c 4
 266.62890625 762.482421875 263.619140625 753 258 753 c 6
 128 753 l 5
EndSplineSet
Validated: 1
EndChar

StartChar: bracketright
Encoding: 93 93 83
GlifName: bracketright
Width: 311
VWidth: 0
Flags: W
HStem: -87 40<42.3799 181> 753 40<42.3799 181>
VStem: 181 54<-47 753>
LayerCount: 2
Fore
SplineSet
181 753 m 5
 51 753 l 6
 45.380859375 753 42.37109375 762.482421875 42.37109375 773.715820312 c 4
 42.37109375 784.47265625 45.1298828125 793 51 793 c 6
 212 793 l 5
 228 793 235 787 235 773 c 6
 235 -67 l 6
 235 -81 229 -87 216 -87 c 5
 51 -87 l 6
 45.380859375 -87 42.37109375 -77.517578125 42.37109375 -66.2841796875 c 4
 42.37109375 -55.52734375 45.1298828125 -47 51 -47 c 6
 181 -47 l 5
 181 753 l 5
EndSplineSet
Validated: 1
EndChar

StartChar: bar
Encoding: 124 124 84
GlifName: bar
Width: 200
VWidth: 0
Flags: W
VStem: 74 53<-57.3307 745.145>
LayerCount: 2
Fore
SplineSet
127 -47 m 1
 127 -54.088054892 113.414552683 -57.4983385006 100.00000038 -57.4983385006 c 7
 86.9187459914 -57.4983385006 74 -53.911945108 74 -47 c 1
 74 736 l 1
 74 742.226522662 88.269360945 745.375774852 101.99999962 745.375774852 c 3
 114.731589232 745.375774852 127 742.25460045 127 736 c 1
 127 -47 l 1
EndSplineSet
Validated: 1
EndChar

StartChar: asciitilde
Encoding: 126 126 85
GlifName: asciitilde
Width: 510
VWidth: 0
Flags: W
HStem: 233.362 65.6254<256.901 380.012> 300.54 64.9475<95.2759 213.864>
LayerCount: 2
Fore
SplineSet
152 365.487560039 m 3
 229.824335843 365.487560039 246.403320312 298.987304688 328 298.987304688 c 3
 385.8203125 298.987304688 436.321289062 349.37890625 444 349.37890625 c 3
 449.475585938 349.37890625 454.186523438 346.3515625 454.186523438 342 c 3
 454.186523438 317.875976562 383.75961262 233.361855637 318 233.361855637 c 7
 239.668895342 233.361855637 224.34375 300.540039062 147 300.540039062 c 3
 100.529296875 300.540039062 56.25390625 259.85546875 36 259.85546875 c 3
 30.1357421875 259.85546875 25.84765625 264.448242188 25.84765625 271 c 3
 25.84765625 278.318359375 90.9835456266 365.487560039 152 365.487560039 c 3
EndSplineSet
Validated: 1
EndChar

StartChar: dieresis
Encoding: 168 168 86
GlifName: dieresis
Width: 427
VWidth: 0
Flags: W
HStem: 623.573 92.8936<58.0673 136.326 281.424 359.683>
VStem: 50.75 92.8936<630.89 709.149> 274.106 92.8936<630.89 709.149>
LayerCount: 2
Fore
SplineSet
274.106445312 670.01953125 m 4
 274.106445312 695.671875 294.901367188 716.466796875 320.553710938 716.466796875 c 4
 346.205078124 716.466796875 367 695.671875 367 670.01953125 c 4
 367 644.368164062 346.205078124 623.573242188 320.553710938 623.573242188 c 4
 294.901367188 623.573242188 274.106445312 644.368164062 274.106445312 670.01953125 c 4
50.75 670.01953125 m 0
 50.75 695.671875 71.544921875 716.466796875 97.197265625 716.466796875 c 0
 122.848632812 716.466796875 143.643554688 695.671875 143.643554688 670.01953125 c 0
 143.643554688 644.368164062 122.848632812 623.573242188 97.197265625 623.573242188 c 0
 71.544921875 623.573242188 50.75 644.368164062 50.75 670.01953125 c 0
EndSplineSet
Validated: 1
EndChar

StartChar: grave
Encoding: 96 96 93
GlifName: grave
Width: 251
VWidth: 0
Flags: W
HStem: 534 209.9
VStem: 21.0681 209.9
LayerCount: 2
Fore
SplineSet
217.717773438 534 m 1
 165.296875 569.259765625 48.990234375 653.12109375 34.138671875 667.97265625 c 0
 25.2693927389 676.841935386 21.0681073054 688.445085579 21.0681073054 699.999999324 c 3
 21.0681073054 723.187102448 41.8074379992 743.899839494 64.9999993237 743.899839494 c 7
 76.5442617836 743.899839494 88.1339878954 739.690214629 96.9951171875 730.830078125 c 0
 111.84765625 715.978515625 195.000976562 598.962890625 230.967773438 547.25 c 9
 217.717773438 534 l 1
EndSplineSet
Validated: 1
EndChar

StartChar: acute
Encoding: 180 180 94
GlifName: acute
Width: 251
VWidth: 0
Flags: W
HStem: 534 209.904
VStem: 29.4678 209.904
LayerCount: 2
Fore
SplineSet
42.7177734375 534 m 5
 29.4677734375 547.25 l 21
 65.4345703125 598.962890625 148.587890625 715.978515625 163.440429688 730.830078125 c 4
 172.156608181 739.545683525 183.513168538 743.903593683 194.869635556 743.903593683 c 0
 206.22591589 743.903593683 217.582102888 739.545826799 226.297851562 730.830078125 c 4
 235.013549808 722.114868153 239.371459964 710.758863013 239.371459964 699.402576757 c 0
 239.371459964 688.045972403 235.013305668 676.689086918 226.296875 667.97265625 c 4
 211.4453125 653.12109375 95.138671875 569.259765625 42.7177734375 534 c 5
EndSplineSet
Validated: 1
EndChar

StartChar: less
Encoding: 60 60 114
GlifName: less
Width: 468
VWidth: 0
Flags: W
LayerCount: 2
Fore
SplineSet
140.200118709 324 m 1
 421 162 l 1
 421 94 l 5
 33 314 l 5
 33 330 l 1
 421 550 l 1
 421 486 l 1
 140.200118709 324 l 1
EndSplineSet
Validated: 1
EndChar

StartChar: greater
Encoding: 62 62 115
GlifName: greater
Width: 484
VWidth: 0
Flags: W
LayerCount: 2
Fore
SplineSet
331.799881291 324 m 1
 51 486 l 1
 51 550 l 1
 439 330 l 1
 439 314 l 5
 51 94 l 5
 51 162 l 1
 331.799881291 324 l 1
EndSplineSet
Validated: 1
EndChar

StartChar: asciicircum
Encoding: 94 94 116
GlifName: asciicircum
Width: 507
VWidth: 0
Flags: W
HStem: 558.776 196.777
LayerCount: 2
Fore
SplineSet
431.776367188 578.776367188 m 5
 427.96484375 567.827148438 420.915039062 561.734375 411.776367188 558.776367188 c 5
 255 670 l 5
 98.2236328125 558.776367188 l 5
 87.634765625 562.161132812 80.9150390625 569.125976562 78.2236328125 578.776367188 c 5
 255 755.553710938 l 5
 431.776367188 578.776367188 l 5
EndSplineSet
Validated: 1
EndChar

StartChar: divide
Encoding: 247 247 137
GlifName: divide
Width: 403
VWidth: 0
Flags: W
HStem: 159.3 71.4004<167.283 233.728> 276 44<68.0352 335.947> 364 71.4004<167.283 233.728>
VStem: 164.45 72.0996<162.472 227.528 367.172 432.229>
LayerCount: 2
Fore
SplineSet
164.450195312 399.700195312 m 0
 164.450195312 419.299804688 180.549804688 435.400390625 200.849609375 435.400390625 c 0
 220.450195312 435.400390625 236.549804688 419.299804688 236.549804688 399.700195312 c 0
 236.549804688 380.100585938 220.450195312 364 200.849609375 364 c 0
 180.549804688 364 164.450195312 380.100585938 164.450195312 399.700195312 c 0
164.450195312 195 m 4
 164.450195312 214.599609375 180.549804688 230.700195312 200.849609375 230.700195312 c 4
 220.450195312 230.700195312 236.549804688 214.599609375 236.549804688 195 c 4
 236.549804688 175.400390625 220.450195312 159.299804688 200.849609375 159.299804688 c 4
 180.549804688 159.299804688 164.450195312 175.400390625 164.450195312 195 c 4
77 276 m 1
 71 278 68 289 68 300 c 0
 68 311 71 320 77 320 c 1
 330 320 l 1
 334 320 336 307 336 295 c 0
 336 285 335 276 330 276 c 1
 77 276 l 1
EndSplineSet
Validated: 1
EndChar

StartChar: dollar
Encoding: 36 36 142
GlifName: dollar
Width: 555
VWidth: 0
Flags: W
HStem: 27.4212 37.4067<286.507 353.203> 579.268 26.0432<236.25 293.588>
VStem: 130.485 60.334<438.406 528.857> 405.642 55.6413<122.413 231.619>
LayerCount: 2
Fore
SplineSet
286.506980277 64.827889368 m 1
 357.917160347 66.9040874495 405.641912386 110.820367159 405.641912382 173 c 0
 405.641912382 229.91895734 365.117495947 253.62322316 308.715171202 286.201564672 c 1
 299.983806919 201.643929148 292.165561699 122.789018717 286.506980277 64.827889368 c 1
343.693693504 603.581452531 m 1
 400.852632261 597.262730201 448.940189357 577.51975571 448.940189357 565.000000182 c 0
 448.940189357 553.705757478 433.179210107 505.604114748 426 505.604114748 c 0
 416.163308469 505.604114748 395.71674731 553.742411501 339.944488478 572.190778482 c 1
 332.315840944 507.466084083 324.349091127 434.895668039 316.753602923 363.124214486 c 1
 398.021716782 313.789205443 461.283237856 279.545085804 461.283237931 210 c 0
 461.283237931 142.246158894 431.975895997 98.180151102 391.893554688 65.5947265625 c 0
 363.230463049 42.2915847725 320.207348114 28.2545732105 282.872042456 27.4211662963 c 1
 279.322295168 -9.28500652664 277.254882812 -31.203125 277.254882812 -31.203125 c 0
 270.954532838 -42.125858879 259.144519061 -46.9422638373 248.000000431 -46.9422638373 c 0
 239.362162619 -46.9422638373 231.1241152 -44.4341991762 226.161132812 -39.888671875 c 1
 229.489406987 -15.6728279258 232.685661092 8.00707317947 235.759057254 31.2305390723 c 1
 155.606977623 45.6096412326 104.559747031 96.6497533782 104.559747031 121.999999673 c 0
 104.559747031 140.802020431 130.745569292 191.087368564 139.999999847 191.087368564 c 0
 148.480388019 191.087368564 171.743507938 99.1356830766 241.104840338 72.1259388361 c 1
 251.857111941 155.44219337 261.02893714 233.250191426 269.072755217 309.476137196 c 1
 201.4062752 349.803382041 130.485351608 395.52167414 130.485351562 454.702148438 c 0
 130.485351562 524.928670183 183.932451121 600.111828463 295.56545098 605.311256108 c 1
 296.967306934 624.055052396 298.33830825 642.996761921 299.684570312 662.189453125 c 0
 300.857110675 669.444435411 314.583478529 674.557121675 323.999999789 674.557121675 c 0
 336.038274045 674.557121675 349.678502493 665.419465254 350.297851562 656.5390625 c 0
 348.150178122 639.876216566 345.94241262 622.145936143 343.693693504 603.581452531 c 1
293.587797832 579.268098969 m 1
 212.864591806 579.09005223 190.819335886 526.604485325 190.819335938 490.696289062 c 0
 190.819335938 447.313370586 228.052789326 418.119019423 276.963669025 387.447593416 c 1
 283.099223402 450.784246464 288.551926454 513.954921558 293.587797832 579.268098969 c 1
EndSplineSet
Validated: 1
EndChar

StartChar: cent
Encoding: 162 162 143
GlifName: cent
Width: 530
VWidth: 0
Flags: W
HStem: 127.366 32.0078<291.538 371.767> 436.293 81.9824<349.75 384.243> 507.416 16.498<239.686 276.329>
VStem: 106.344 59.3223<244.503 439.542>
LayerCount: 2
Fore
SplineSet
420.23828125 201.067382812 m 5xd0
 431.36328125 185.395507812 l 5
 388.19140625 142.447265625 348.826171875 127.7109375 288.7421875 127.366210938 c 5
 280.3828125 16.400390625 l 5
 239.34375 16.400390625 l 5
 247.998046875 131.302734375 l 5
 168.99609375 147.875 106.34375 216.46875 106.34375 333 c 4
 106.34375 461.4765625 171.244140625 521.814453125 277.571289062 523.9140625 c 5xb0
 283.422851562 601.599609375 l 5
 324.463867188 601.599609375 l 5
 318.1875 518.275390625 l 5
 359.98046875 508.913085938 422.9140625 487.990234375 422.9140625 455.400390625 c 4
 422.9140625 444.240234375 403.21484375 436.29296875 388.970703125 436.29296875 c 4
 350.365234375 436.29296875 344.694335938 475.569335938 316.490234375 495.748046875 c 5
 291.247070312 160.626953125 l 5
 297.440429688 159.80078125 303.879882812 159.374023438 310.5703125 159.374023438 c 4
 343.077148438 159.374023438 381.423828125 171.624023438 420.23828125 201.067382812 c 5xd0
276.329101562 507.416015625 m 5
 209.72265625 507.07421875 165.666015625 444.017578125 165.666015625 350.986328125 c 4
 165.666015625 277.98828125 192.059570312 202.883789062 251.1328125 172.911132812 c 5
 276.329101562 507.416015625 l 5
EndSplineSet
Validated: 1
EndChar

StartChar: cedilla
Encoding: 184 184 145
GlifName: cedilla
Width: 530
VWidth: 0
Flags: W
HStem: -151.981 24.7422<229.503 295.921>
VStem: 304.775 49.0029<-123.921 -58.6799>
LayerCount: 2
Fore
SplineSet
288 24 m 1
 330.385742188 24.0859375 l 1
 298.168945312 -33.3505859375 l 1
 334 -33.3505859375 353.778320312 -55.736328125 353.778320312 -92 c 3
 353.778320312 -135.55859375 308.08984375 -151.981445312 277 -151.981445312 c 3
 241.884765625 -151.981445312 216.260742188 -137.818359375 202.077148438 -120.072265625 c 9
 213.752929688 -102.008789062 l 17
 229.046875 -118.55859375 250.931640625 -127.239257812 267 -127.239257812 c 3
 288.056640625 -127.239257812 304.775390625 -112.23828125 304.775390625 -94 c 3
 304.775390625 -71.5927734375 285.12109375 -53.896484375 264 -53.896484375 c 7
 256.229492188 -53.896484375 244.261456607 -55.1590289284 237 -60 c 1
 288 24 l 1
EndSplineSet
Validated: 1
EndChar

StartChar: braceleft
Encoding: 123 123 147
GlifName: braceleft
Width: 251
VWidth: 0
Flags: W
HStem: -85.4834 16.5918<176.361 205.062> 784.601 16.5908<176.361 205.062>
VStem: 80.6094 56.4375<-44.3202 243.316 472.392 760.028> 99.4219 53.543<43.5954 318.643 397.189 672.113>
LayerCount: 2
Fore
SplineSet
205.061523438 784.600585938 m 5xe0
 174.672851562 784.600585938 137.046875 759.712890625 137.046875 695.298828125 c 4xe0
 137.046875 630.883789062 152.96484375 504.983398438 152.96484375 458.13671875 c 4
 152.96484375 395.911132812 130.384765625 365.125 92.7041015625 357.854492188 c 5
 130.384765625 350.583984375 152.96484375 319.797851562 152.96484375 257.572265625 c 4xd0
 152.96484375 210.725585938 137.046875 84.8251953125 137.046875 20.4091796875 c 4
 137.046875 -44.0048828125 174.672851562 -68.8916015625 205.061523438 -68.8916015625 c 5
 205.061523438 -85.4833984375 l 5
 177.411132812 -85.4833984375 80.609375 -77.09765625 80.609375 21.8740234375 c 4xe0
 80.609375 114.104492188 99.421875 180.149414062 99.421875 263.427734375 c 4
 99.421875 336.484375 26.05859375 338.971679688 26.05859375 358.376953125 c 7
 26.05859375 375.743164062 99.421875 380.227539062 99.421875 452.280273438 c 4xd0
 99.421875 535.559570312 80.609375 601.604492188 80.609375 693.833984375 c 4
 80.609375 792.805664062 177.411132812 801.19140625 205.061523438 801.19140625 c 5
 205.061523438 784.600585938 l 5xe0
EndSplineSet
Validated: 1
EndChar

StartChar: braceright
Encoding: 125 125 148
GlifName: braceright
Width: 217
VWidth: 0
Flags: W
HStem: -85.4834 16.5918<19.4004 48.1013> 784.601 16.5908<19.4004 48.1013>
VStem: 71.4961 53.5439<43.5954 318.647 397.185 672.113> 87.416 56.4365<-44.3202 243.316 472.392 760.028>
LayerCount: 2
Fore
SplineSet
19.400390625 784.600585938 m 5xd0
 19.400390625 801.19140625 l 5
 47.05078125 801.19140625 143.852539062 792.805664062 143.852539062 693.833984375 c 4xd0
 143.852539062 601.604492188 125.040039062 535.559570312 125.040039062 452.280273438 c 4
 125.040039062 380.21875 198.440429688 375.727539062 198.440429688 358.376953125 c 7
 198.440429688 338.987304688 125.040039062 336.495117188 125.040039062 263.427734375 c 4xe0
 125.040039062 180.149414062 143.852539062 114.104492188 143.852539062 21.8740234375 c 4
 143.852539062 -77.09765625 47.05078125 -85.4833984375 19.400390625 -85.4833984375 c 5
 19.400390625 -68.8916015625 l 5
 49.7900390625 -68.8916015625 87.416015625 -44.0048828125 87.416015625 20.4091796875 c 4xd0
 87.416015625 84.8251953125 71.49609375 210.725585938 71.49609375 257.572265625 c 4
 71.49609375 319.797851562 94.076171875 350.583984375 131.7578125 357.854492188 c 5
 94.076171875 365.125 71.49609375 395.911132812 71.49609375 458.13671875 c 4xe0
 71.49609375 504.983398438 87.416015625 630.883789062 87.416015625 695.298828125 c 4
 87.416015625 759.712890625 49.7900390625 784.600585938 19.400390625 784.600585938 c 5xd0
EndSplineSet
Validated: 1
EndChar

StartChar: ampersand
Encoding: 38 38 149
GlifName: ampersand
Width: 792
VWidth: 0
Flags: W
HStem: -16 38<615.287 711.834> -10 47.9297<169.645 345.983> 341.604 15.3945<551.374 582.342 638.651 670> 709 26<206.83 314.207>
VStem: 24 71<106.789 249.964> 103 57<542.009 653.579> 359 47<541.577 678.984>
LayerCount: 2
Fore
SplineSet
216.359305782 391.754482968 m 1x7e
 141.721328733 331.800185153 95 266.485051259 95 186 c 0
 95 97.7421875 154.6484375 37.9296875 263.498046875 37.9296875 c 0
 265.646484375 37.9296875 267.813476562 37.953125 270 38 c 0
 354.850116361 39.8173346974 398.00606125 92.4252227654 442.356374524 155.388458428 c 1
 411.136968623 196.840595031 373.54678188 241.095772041 324 292 c 0
 296.935554515 319.805920976 255.817920144 354.253421864 216.359305782 391.754482968 c 1x7e
486.221880651 217.049989325 m 1
 505.16866418 242.153901302 526.288607438 266.897223938 552 289 c 0
 562.173828125 297.74609375 582.452148438 318.766601562 582.452148438 318.766601562 c 2
 584.448242188 321.724609375 585.328125 324.45703125 585.328125 326.915039062 c 0
 585.328125 333.696289062 578.627929688 338.393554688 570.169921875 340.015625 c 0
 564.517578125 341.099609375 557.151367188 341.526367188 551.374023438 341.603515625 c 1
 551.32421875 356.998046875 l 1
 670 357 l 1
 670 341.60546875 l 1
 663.234375 341.529296875 660.788085938 341.4375 655.735351562 340.017578125 c 0
 650.4609375 338.53515625 644 337 638.387695312 333.877929688 c 0
 623.13671875 325.393554688 578 287 565 274 c 0
 540.639831259 249.639831259 520.436248001 223.072567216 502.132083517 196.281562106 c 1
 542.126755579 139.064535899 595.662604804 22.0000000008 656 22 c 0
 720 22 760 74 760 74 c 1
 771 60 l 1
 771 60 721 -16 654 -16 c 0xbe
 554 -16 525 35 483 98 c 0
 475.644061374 109.034092345 467.999661041 120.144234951 459.946508657 131.413251542 c 1
 410.242773388 54.5446025316 361.070563236 -10 253 -10 c 0
 115 -10 24 73 24 175 c 0
 24 271.736731996 136.492294778 358.26255511 201.075153596 406.540564858 c 1
 148.650136164 458.254320016 103 514.699966032 103 567 c 0
 103 643 154 735 255 735 c 0
 399 735 406 640 406 595 c 0
 406 537.234595174 338.586058293 481.830877661 274.164134776 434.656010788 c 1
 305.123310678 404.746810099 337.622228912 375.377771088 365 348 c 0
 422.929038237 290.070961763 460.774938827 248.444541596 486.221880651 217.049989325 c 1
257.602786081 450.882784182 m 1
 345.233841228 525.710775713 359 575.220641641 359 619 c 0
 359 675 320 709 259 709 c 0
 187 709 160 656 160 604 c 0
 160 557.346434516 204.571752679 503.684938362 257.602786081 450.882784182 c 1
EndSplineSet
Validated: 1
EndChar

StartChar: ae
Encoding: 230 230 150
GlifName: ae
Width: 808
VWidth: 0
Flags: W
HStem: -10 40.7822<501.849 674.932> -10 28.3525<178.054 307.166> 275.967 36.8984<324.794 375.999> 294.585 37.3984<446.156 505.268> 481.646 23.0352<518.182 625.051> 484.89 26.9111<208.7 305.362>
VStem: 52.9199 76.4697<53.3739 157.781> 374.429 67.1055<87.8307 275.967 331.983 412.509>
LayerCount: 2
Fore
SplineSet
763.818359375 382.4921875 m 1x0b
 652.522460938 352.5625 556.251953125 329.100585938 443.267578125 294.584960938 c 1
 442.366210938 278.643554688 441.534179688 218.544921875 441.534179688 196.313476562 c 0
 441.534179688 149.6171875 443.166015625 119.08984375 456 98 c 0
 486.59765625 47.720703125 529.033203125 30.7822265625 587.362304688 30.7822265625 c 0
 632.219726562 30.7822265625 675.733398438 43.4736328125 730.95703125 85.3623046875 c 1
 745.609375 64.71875 l 1
 688.055664062 7.4638671875 659.356445312 -10 570.380859375 -10 c 0x9b
 505.344726562 -10 444.3125 -1.681640625 398.7734375 53.5341796875 c 1
 351.090820312 12.232421875 283.74609375 -10 216 -10 c 0
 136.748046875 -10 52.919921875 9.05859375 52.919921875 90.5615234375 c 0
 52.919921875 133.159179688 81.6123046875 182.01171875 126.494140625 210.102539062 c 0
 178.400390625 242.58984375 228.4921875 260.689453125 286.8984375 281.665039062 c 0
 319.572265625 293.399414062 347.67578125 302.346679688 376.241210938 312.865234375 c 1
 376.448734488 323.995592897 376.535718699 336.665822208 376.535718699 349.266893576 c 0
 376.535718699 366.492721732 376.373169173 383.589312748 376.133789062 396.446289062 c 0
 375.392205486 436.27634209 311.303710938 484.889648438 248.038085938 484.889648438 c 0
 175.831054688 484.889648438 189.114257812 395.965820312 120.026367188 395.965820312 c 0
 101.44140625 395.965820312 74.63671875 406.125976562 74.63671875 420.69140625 c 0
 74.63671875 424.08203125 76.0888671875 427.7109375 79.4365234375 431.506835938 c 0
 134.708984375 494.18359375 206.291015625 511.80078125 259.629882812 511.80078125 c 0x67
 338.0625 511.80078125 399.250976562 468.520507812 419.421875 436.974609375 c 1
 462.583007812 488.649414062 510.80078125 504.681640625 588.618164062 504.681640625 c 0
 662.53125 504.681640625 763.818359375 479 763.818359375 382.4921875 c 1x0b
446.15625 331.983398438 m 1
 509.463867188 345.301757812 622.288085938 377.494140625 688 400 c 1
 672.7578125 453.938476562 623.150390625 481.646484375 573.131835938 481.646484375 c 0
 497.154296875 481.646484375 447.0390625 428.209960938 446.15625 331.983398438 c 1
386.708007812 75.861328125 m 1
 378.372070312 104.755859375 374.428710938 158.620117188 374.428710938 218.762695312 c 0
 374.428710938 238.013671875 374.935546875 257.395507812 375.999023438 275.966796875 c 1
 308.088867188 254.619140625 266.673828125 243.751953125 215.428710938 216.887695312 c 0
 171.145507812 193.672851562 129.389648438 162.649414062 129.389648438 112.23828125 c 0
 129.389648438 48.916015625 180.513671875 18.3525390625 242.607421875 18.3525390625 c 0x63
 305.633789062 18.3525390625 357.809570312 50.4599609375 386.708007812 75.861328125 c 1
EndSplineSet
Validated: 1
EndChar

StartChar: germandbls
Encoding: 223 223 151
GlifName: germandbls
Width: 616
VWidth: 0
Flags: W
HStem: -8.98828 35.6094<357.914 471.798> 0 15.9473<58.9502 96.9749 203.24 238> 705.543 29.2389<231.878 333.494>
VStem: 114.823 73.9561<21.5181 649.801> 250.101 70.8994<402.13 472.233> 386.129 40.8711<576.369 665.555> 512.658 55.3161<73.4621 185.605>
LayerCount: 2
Fore
SplineSet
111.194335938 509.887695312 m 1x7e
 111.194335938 626.532226562 141.86328125 734.782226562 277.918945312 734.782226562 c 0
 359.759765625 734.782226562 427 711.068359375 427 636.793945312 c 0
 427 554.002929688 321 507.690429688 321 452 c 0
 321 399 367.869140625 383.349609375 448.201171875 324.272460938 c 0
 522 270 567.973632812 235 567.973632812 153.328125 c 0
 567.973632812 72.458984375 507.317382812 -8.98828125 391.135742188 -8.98828125 c 0
 292.981445312 -8.98828125 271.630859375 40.5185546875 252.690429688 63.564453125 c 0
 251.044472056 65.5671044286 250.388698278 68.4925679386 250.388698278 72.0000003558 c 7
 250.388698278 90.7346589435 272.193870459 126.073317554 285.000000257 126.073317554 c 3
 287.197418557 126.073317554 289.137059606 125.323520797 290.666992188 123.188476562 c 0
 308 99 342.979492188 26.62109375 415.939453125 26.62109375 c 0xbe
 468.894294742 26.62109375 512.657536331 64.428190745 512.657536331 127 c 3
 512.657536331 192.181518023 439.388473593 240.415133036 379.81640625 280.85546875 c 0
 316.96107361 323.52439309 250.100646454 362.596305477 250.100646454 417 c 3
 250.100646454 465.184821765 292.680886776 492.63962091 325 523 c 0
 355.856445312 551.986328125 386.12890625 584.588867188 386.12890625 619.169921875 c 0
 386.12890625 663.333516744 332.158994036 705.543326906 280.999998604 705.543326906 c 3
 193.379528636 705.543326906 188.775390625 616.243153432 188.775390625 510.912109375 c 2
 188.779296875 49 l 0
 189.24609375 36.1005859375 198.046875 22.1533203125 216.629882812 18.39453125 c 0
 224.586914062 16.78515625 229.708007812 16.05859375 238 15.947265625 c 1
 238 0 l 1
 58.9501953125 0 l 1
 58.9501953125 15.947265625 l 1
 67.2421875 16.05859375 75.365234375 16.7822265625 83.3212890625 18.39453125 c 0
 102.423828125 22.265625 110.950195312 35.7158203125 110.950195312 49 c 0
 114.823242188 226.40234375 l 1
 111.194335938 509.887695312 l 1x7e
EndSplineSet
Validated: 1
EndChar

StartChar: uniFB02
Encoding: 64258 64258 152
GlifName: uniF_B_02
Width: 492
VWidth: 0
Flags: W
HStem: 0 16<42 58.7195 166.281 183 338 354.719 460.235 477> 467 38<30 78 147 292> 736 21.25<222.384 318.922>
VStem: 78 69<17.1443 468> 78 61<505 660.417> 374 67<16.1443 699.823>
LayerCount: 2
Fore
SplineSet
79 501 m 1025,0,-1
460 16 m 0,1,-1
 465 15 471 15 477 15 c 1,4,-1
 477 -1 l 1,5,-1
 338 -1 l 1,6,-1
 338 15 l 1,7,-1
 344 15 349 15 355 16 c 0,10,-1
 368 19 373 27 374 36 c 2,13,-1
 374 668 l 1,14,-1
 356 701 330 736 269 736 c 0,17,-1
 195 736 139 666 139 563 c 0,20,-1
 139 556 139 548 139 541 c 0,23,-1
 139 505 l 1,24,-1
 139 505 259 505 271 505 c 0,27,-1
 292.428571429 505 298.040816327 499.387755102 298.040816327 490.714285714 c 0,30,-1
 298.040816327 487.244897959 297.142857143 483.285714286 296 479 c 2,33,-1
 292 467 l 1,34,-1
 286 467 189 469 147 469 c 1,37,-1
 147 37 l 2,38,-1
 148 28 153 20 166 17 c 0,41,-1
 172 16 177 16 183 16 c 1,44,-1
 183 0 l 1,45,-1
 42 0 l 1,46,-1
 42 16 l 1,47,-1
 48 16 53 16 59 17 c 0,50,-1
 72 20 78 28 78 37 c 2,53,-1
 78 468 l 1,54,-1
 49 468 23 465 23 465 c 1,57,-1
 30 500 l 1,58,-1
 78 500 l 1,59,-1
 78 537 l 1,60,-1
 78 546 79 559 79 568 c 0,63,-1
 79 706.337203096 175.758727057 757.25 296.25 757.25 c 0,66,-1
 319 757.25 343.5 753.5 368 742 c 1,69,-1
 432 761 l 2,70,-1
 433.124992714 761.32142649 434.120841692 761.413573737 435 761.413573737 c 7,73,-1
 439.591195485 761.413573737 441 755.750014573 441 744 c 2,76,-1
 441 36 l 2,77,-1
 442 27 447 19 460 16 c 0,1,-1
EndSplineSet
Validated: 1
Ligature2: "'liga' fi" f l
Ligature2: "'liga' fl" f l
EndChar

StartChar: uniFB00
Encoding: 64256 64256 153
GlifName: uniF_B_00
Width: 720
VWidth: 0
Flags: W
HStem: 0 16<33 49.7195 156.281 173 326 342.719 450.281 467> 469 36<21 69 137 362 431 576> 711 16.6738<219.275 296.742> 736 17.6328<509.944 586.889>
VStem: 69 68<17.1443 469> 69 60<505 634.544> 362 69<17.1443 469> 362 61<505 610.39>
LayerCount: 2
Fore
SplineSet
553 736 m 0xf4
 479 736 422 666 422 563 c 0
 422 556 423 548 423 541 c 0
 423 540 423 540 423 539 c 2
 423 505 l 1xf5
 423 505 543 505 555 505 c 0
 576.146484375 505 581.873046875 499.151367188 581.873046875 490.16796875 c 0
 581.873046875 486.831054688 581.083007812 483.0625 580 479 c 2
 576 467 l 1
 570 467 473 469 431 469 c 1
 431 37 l 2
 432 28 437 20 450 17 c 0
 456 16 461 16 467 16 c 1
 467 0 l 1
 326 0 l 1
 326 16 l 1
 332 16 337 16 343 17 c 0
 356 20 361 28 362 37 c 2
 362 469 l 1
 299 469 169 469 137 469 c 1
 137 37 l 2
 138 28 143 20 156 17 c 0
 162 16 167 16 173 16 c 1
 173 0 l 1
 33 0 l 1
 33 16 l 1
 39 16 44 16 50 17 c 0
 63 20 68 28 69 37 c 2
 69 469 l 1xfa
 40 469 13 465 13 465 c 1
 21 501 l 1
 69 501 l 1
 69 512 l 1
 69 521 70 534 70 543 c 0
 70 663.811523438 154.795898438 727.673828125 256.11328125 727.673828125 c 0
 300.498046875 727.673828125 362.270507812 714.184570312 393 674 c 1
 423.307617188 723.390625 490.400390625 753.6328125 554.706054688 753.6328125 c 0
 599.268554688 753.6328125 654.141601562 737.0625 703 682 c 0
 705.732421875 678.926757812 706.918945312 675.969726562 706.918945312 673.189453125 c 0
 706.918945312 661.30078125 684.513671875 651.783203125 668 651.783203125 c 3
 611.376953125 651.783203125 627.028320312 736 553 736 c 0xf4
362 505 m 1
 362 537 l 2
 362 546 363 559 363 568 c 0
 363 584 366 598 368 611 c 1
 363 641 328 711 259 711 c 0
 185 711 129 641 129 538 c 0
 129 527 129 516 129 505 c 1
 362 505 l 1
EndSplineSet
Validated: 1
LCarets2: 1 -4
Ligature2: "'liga' ff" f f
EndChar

StartChar: uniFB01
Encoding: 64257 64257 154
GlifName: uniF_B_01
Width: 496
VWidth: 0
Flags: W
HStem: 0 16<43 59.7195 164.281 181 329 345.719 452.281 469> 464 32<31 79 145 363.383> 489.414 20G<426.56 429.296> 744 20.168<223.707 300.94>
VStem: 79 66<17.1443 464> 79 58<496 666.236> 347 90<631.162 703.909> 365 68<17.1443 463.578>
LayerCount: 2
Fore
SplineSet
164 17 m 0xd9
 170 16 175 16 181 16 c 1
 181 0 l 1
 43 0 l 1
 43 16 l 1
 49 16 54 16 60 17 c 0
 73 20 78 28 79 37 c 2
 79 464 l 1xd9
 50 464 23 460 23 460 c 1
 31 496 l 1
 79 496 l 1
 79 543 l 2
 79 552 80 565 80 574 c 0
 80 711.544953763 169.391961376 764.16796875 290.298828125 764.16796875 c 0
 328.443127966 764.16796875 437 731.585452571 437 670 c 0
 437 644 416 624 390 624 c 0
 368.917449764 624 353.764672666 636.215763779 347 652 c 0
 329 688 325 744 267 744 c 0
 193 744 137 672 137 569 c 2
 137 545 l 1
 137 496 l 1
 377 496 l 1xd6
 424 509 l 2
 425.124992714 509.32142649 426.120841692 509.413573737 427 509.413573737 c 7xb6
 431.591195485 509.413573737 433 503.750014573 433 492 c 2
 433 37 l 2
 434 28 439 20 452 17 c 0
 458 16 463 16 469 16 c 1
 469 0 l 1
 329 0 l 1
 329 16 l 1
 335 16 340 16 346 17 c 0
 359 20 364 28 365 37 c 2
 365 436 l 2
 365 454 358 460 346 463 c 0
 342 464 338 464 335 464 c 0
 328 464 187 464 145 464 c 1
 145 37 l 2
 146 28 151 20 164 17 c 0xd9
EndSplineSet
Validated: 1
EndChar

StartChar: uniFB03
Encoding: 64259 64259 155
GlifName: uniF_B_03
Width: 756
VWidth: 0
Flags: W
HStem: 0 16<33 49.7195 156.281 173 320 336.719 441.281 458 606 622.765 729.281 746> 460 36<21 69 137 356 422 641.676> 489.414 20G<703.56 706.296> 711 16.7438<217.387 297.348> 744 20.1677<498.452 578.444>
VStem: 69 68<17.1443 460> 69 60<496 631.018> 356 66<17.1443 460> 356 58<496 625.295> 624 90<631.162 704.37> 642 68<17.1443 463.578>
LayerCount: 2
Fore
SplineSet
441 17 m 4xb920
 447 16 452 16 458 16 c 5
 458 0 l 5
 320 0 l 5
 320 16 l 5
 326 16 331 16 337 17 c 4
 350 20 355 28 356 37 c 6
 356 460 l 5
 292 460 168 460 137 460 c 5
 137 37 l 6
 138 28 143 20 156 17 c 4
 162 16 167 16 173 16 c 5
 173 0 l 5
 33 0 l 5
 33 16 l 5
 39 16 44 16 50 17 c 4
 63 20 68 28 69 37 c 6
 69 460 l 5xdd20
 40 460 13 456 13 456 c 5
 21 492 l 5
 69 492 l 5
 69 512 l 6
 69 521 70 534 70 543 c 4
 70 658.450235306 153.696197087 727.743842353 255.532398732 727.743842353 c 4
 297.066976064 727.743842353 354.011960011 715.32862828 386 681 c 5
 420.123664673 737.872774454 483.929383002 764.167741929 567.298740269 764.167741929 c 4
 614.259886437 764.167741929 669.882272982 750.517323801 706 696 c 4
 711.54143062 690.45856938 714 678.264195994 714 670 c 4
 714 644 693 624 667 624 c 4
 645.917449764 624 630.764672666 636.215763779 624 652 c 4
 606 688 602 744 544 744 c 4
 470 744 414 672 414 569 c 4
 414 562 414 554 414 547 c 4
 414 496 l 5
 654 496 l 5xdac0
 701 509 l 6
 702.124992714 509.32142649 703.120841692 509.413573737 704 509.413573737 c 7
 708.591195485 509.413573737 710 503.750014573 710 492 c 6
 710 37 l 6
 712 28 717 20 729 17 c 4
 735 16 740 16 746 16 c 5
 746 0 l 5
 606 0 l 5
 606 16 l 5
 612 16 618 16 623 17 c 4
 636 20 641 28 642 37 c 6
 642 436 l 6
 642 454 635 460 623 463 c 4
 619 464 615 464 612 464 c 4
 605 464 464 464 422 464 c 5
 422 37 l 6
 423 28 428 20 441 17 c 4xb920
308 496 m 5
 356 496 l 5
 356 543 l 6
 356 552 357 565 357 574 c 4
 357 593 361 611 364 626 c 5
 353 660 319 711 259 711 c 4
 185 711 129 641 129 538 c 4
 129 531 129 523 129 516 c 4
 129 496 l 5xda80
 308 496 l 5
EndSplineSet
Validated: 1
LCarets2: 2 0 0
Ligature2: "'liga' ffi" f f i
EndChar

StartChar: uniFB04
Encoding: 64260 64260 156
GlifName: uniF_B_04
Width: 824
VWidth: 0
Flags: W
HStem: 0 16<57 73.7195 180.281 197 350 366.719 474.281 491 646 662.719 768.235 785> 469 36<45 93 161 386 455 600> 711 16.6734<243.419 320.742> 736 21.25<530.77 627.218>
VStem: 93 68<17.1443 469> 93 60<505 631.018> 386 69<17.1443 469> 386 61<505 610.39> 682 67<16.1443 699.823>
LayerCount: 2
Fore
SplineSet
474 17 m 0xf280
 480 16 485 16 491 16 c 1
 491 0 l 1
 350 0 l 1
 350 16 l 1
 356 16 361 16 367 17 c 0
 380 20 385 28 386 37 c 2
 386 469 l 1
 323 469 193 469 161 469 c 1
 161 37 l 2
 162 28 167 20 180 17 c 0
 186 16 191 16 197 16 c 1
 197 0 l 1
 57 0 l 1
 57 16 l 1
 63 16 68 16 74 17 c 0
 87 20 92 28 93 37 c 2
 93 469 l 1xfa80
 64 469 37 465 37 465 c 1
 45 501 l 1
 93 501 l 1
 93 514.676670331 94 529.636531258 94 543 c 4
 94 659.811681736 179.796302528 727.673428762 280.113253025 727.673428762 c 0
 324.497865094 727.673428762 386.270254752 714.185051478 417 674 c 1
 451.291524321 729.882484079 520.024833736 757.25 603.75 757.25 c 0
 626.5 757.25 651 753.5 675 742 c 1
 740 761 l 2
 741.124992714 761.32142649 742.120841692 761.413573737 743 761.413573737 c 3
 747.591195485 761.413573737 749 755.750014573 749 744 c 2
 749 36 l 2
 750 27 755 19 768 16 c 0
 773 15 779 15 785 15 c 1
 785 -1 l 1
 646 -1 l 1
 646 15 l 1
 651 15 657 15 663 16 c 0
 675 19 680 27 682 36 c 2
 682 668 l 1
 664 701 638 736 577 736 c 0
 503 736 446 666 446 563 c 0
 446 556 447 548 447 541 c 0
 447 505 l 1xf580
 447 505 567 505 579 505 c 0
 600.146417647 505 605.873146353 499.15115247 605.873146353 490.167486277 c 0
 605.873146353 486.831036413 605.083252738 483.062197769 604 479 c 2
 600 467 l 1
 594 467 497 469 455 469 c 1
 455 37 l 2
 456 28 461 20 474 17 c 0xf280
386 505 m 1xf580
 386 537 l 2
 386 546 387 559 387 568 c 0
 387 584 390 598 392 611 c 1
 387 641 352 711 283 711 c 0
 209 711 153 641 153 538 c 2
 153 514 l 1
 153 505 l 1
 386 505 l 1xf580
EndSplineSet
Validated: 1
Ligature2: "'liga' ffl" f f l
EndChar

StartChar: uni02B9
Encoding: 697 697 157
GlifName: uni02B_9
Width: 187
VWidth: 0
Flags: W
HStem: 501 166<75.875 112.014>
VStem: 65 58<560.167 666.32>
LayerCount: 2
Fore
SplineSet
92 667 m 2
 96 667 l 2
 113 667 123 654 123 636 c 0
 123 634 123 631 123 629 c 2
 111 511 l 2
 111 505 107 501 101 501 c 2
 87 501 l 2
 81 501 77 505 77 511 c 2
 65 629 l 2
 65 631 65 633 65 634 c 0
 65 652 77 667 92 667 c 2
EndSplineSet
Validated: 1
EndChar

StartChar: uni02BA
Encoding: 698 698 158
GlifName: uni02B_A_
Width: 304
VWidth: 0
Flags: W
HStem: 501 166<75.875 111.771 191.875 227.771>
VStem: 65 59<560.167 666.305> 181 59<560.167 666.305>
LayerCount: 2
Fore
SplineSet
208 667 m 2
 212 667 l 2
 229 667 240 655 240 637 c 0
 240 635 240 632 239 629 c 2
 227 511 l 2
 227 505 223 501 217 501 c 2
 203 501 l 2
 197 501 193 505 193 511 c 2
 181 629 l 2
 181 631 181 633 181 634 c 0
 181 652 193 667 208 667 c 2
92 667 m 2
 96 667 l 2
 113 667 124 655 124 637 c 0
 124 635 124 632 123 629 c 2
 111 511 l 2
 111 505 107 501 101 501 c 2
 87 501 l 2
 81 501 77 505 77 511 c 2
 65 629 l 2
 65 631 65 633 65 634 c 0
 65 652 77 667 92 667 c 2
EndSplineSet
Validated: 1
EndChar

StartChar: quotedblleft
Encoding: 8220 8220 159
GlifName: quotedblleft
Width: 422
VWidth: 0
Flags: W
HStem: 663.105 24.1553<149.339 185.925 340.99 377.577>
VStem: 45.8135 59.5859<494.465 607.508> 237.464 59.5879<494.465 607.508>
LayerCount: 2
Fore
SplineSet
298.662109375 453.739257812 m 6
 269.43359375 453.739257812 237.463867188 477.21484375 237.463867188 511.715820312 c 4
 237.463867188 626.0625 311.545898438 687.260742188 379.186523438 687.260742188 c 5
 377.577148438 663.10546875 l 5
 326.041015625 663.10546875 297.051757812 604.13671875 297.051757812 574.52734375 c 4
 297.051757812 550.368164062 350.19921875 542.31640625 350.19921875 505.274414062 c 4
 350.19921875 476.287109375 329.260742188 453.739257812 301.8828125 453.739257812 c 6
 298.662109375 453.739257812 l 6
107.01171875 453.739257812 m 6
 77.783203125 453.739257812 45.8134765625 477.21484375 45.8134765625 511.715820312 c 4
 45.8134765625 626.0625 119.89453125 687.260742188 187.536132812 687.260742188 c 5
 185.924804688 663.10546875 l 5
 134.391601562 663.10546875 105.399414062 604.13671875 105.399414062 574.52734375 c 4
 105.399414062 550.368164062 158.548828125 542.31640625 158.548828125 505.274414062 c 4
 158.548828125 476.287109375 137.609375 453.739257812 110.232421875 453.739257812 c 6
 107.01171875 453.739257812 l 6
EndSplineSet
Validated: 1
EndChar

StartChar: second
Encoding: 8243 8243 160
GlifName: second
Width: 304
VWidth: 0
Flags: W
HStem: 501 166<75.875 111.771 191.875 227.771>
VStem: 65 59<560.167 666.305> 181 59<560.167 666.305>
LayerCount: 2
Fore
SplineSet
208 667 m 6
 212 667 l 6
 229 667 240 655 240 637 c 4
 240 635 240 632 239 629 c 6
 227 511 l 6
 227 505 223 501 217 501 c 6
 203 501 l 6
 197 501 193 505 193 511 c 6
 181 629 l 6
 181 631 181 633 181 634 c 4
 181 652 193 667 208 667 c 6
92 667 m 6
 96 667 l 6
 113 667 124 655 124 637 c 4
 124 635 124 632 123 629 c 6
 111 511 l 6
 111 505 107 501 101 501 c 6
 87 501 l 6
 81 501 77 505 77 511 c 6
 65 629 l 6
 65 631 65 633 65 634 c 4
 65 652 77 667 92 667 c 6
EndSplineSet
Validated: 1
EndChar

StartChar: quotedblright
Encoding: 8221 8221 161
GlifName: quotedblright
Width: 426
VWidth: 0
Flags: W
HStem: 448.739 24.1553<48.4229 85.0099 240.075 276.661>
VStem: 128.948 59.5879<528.492 641.535> 320.601 59.5859<528.492 641.535>
LayerCount: 2
Fore
SplineSet
127.337890625 682.260742188 m 6
 156.56640625 682.260742188 188.536132812 658.78515625 188.536132812 624.284179688 c 4
 188.536132812 509.9375 114.454101562 448.739257812 46.8134765625 448.739257812 c 5
 48.4228515625 472.89453125 l 5
 99.958984375 472.89453125 128.948242188 531.86328125 128.948242188 561.47265625 c 4
 128.948242188 585.631835938 75.80078125 593.68359375 75.80078125 630.725585938 c 4
 75.80078125 659.712890625 96.7392578125 682.260742188 124.1171875 682.260742188 c 6
 127.337890625 682.260742188 l 6
318.98828125 682.260742188 m 6
 348.216796875 682.260742188 380.186523438 658.78515625 380.186523438 624.284179688 c 4
 380.186523438 509.9375 306.10546875 448.739257812 238.463867188 448.739257812 c 5
 240.075195312 472.89453125 l 5
 291.608398438 472.89453125 320.600585938 531.86328125 320.600585938 561.47265625 c 4
 320.600585938 585.631835938 267.451171875 593.68359375 267.451171875 630.725585938 c 4
 267.451171875 659.712890625 288.390625 682.260742188 315.767578125 682.260742188 c 6
 318.98828125 682.260742188 l 6
EndSplineSet
Validated: 1
EndChar

StartChar: minute
Encoding: 8242 8242 162
GlifName: minute
Width: 187
VWidth: 0
Flags: W
HStem: 501 166<75.875 112.014>
VStem: 65 58<560.167 666.32>
LayerCount: 2
Fore
SplineSet
92 667 m 2
 96 667 l 2
 113 667 123 654 123 636 c 0
 123 634 123 631 123 629 c 2
 111 511 l 2
 111 505 107 501 101 501 c 2
 87 501 l 2
 81 501 77 505 77 511 c 2
 65 629 l 2
 65 631 65 633 65 634 c 0
 65 652 77 667 92 667 c 2
EndSplineSet
Validated: 1
EndChar

StartChar: quoteleft
Encoding: 8216 8216 163
GlifName: quoteleft
Width: 236
VWidth: 0
Flags: W
HStem: 663.105 24.1553<149.339 185.925>
VStem: 45.8135 59.5859<494.465 607.508>
LayerCount: 2
Fore
SplineSet
107.01171875 453.739257812 m 6
 77.783203125 453.739257812 45.8134765625 477.21484375 45.8134765625 511.715820312 c 4
 45.8134765625 626.0625 119.89453125 687.260742188 187.536132812 687.260742188 c 5
 185.924804688 663.10546875 l 5
 134.391601562 663.10546875 105.399414062 604.13671875 105.399414062 574.52734375 c 4
 105.399414062 550.368164062 158.548828125 542.31640625 158.548828125 505.274414062 c 4
 158.548828125 476.287109375 137.609375 453.739257812 110.232421875 453.739257812 c 6
 107.01171875 453.739257812 l 6
EndSplineSet
Validated: 1
EndChar

StartChar: quoteright
Encoding: 8217 8217 164
GlifName: quoteright
Width: 246
VWidth: 0
Flags: W
HStem: 448.739 24.1553<48.4229 85.0099>
VStem: 128.948 59.5879<528.492 641.535>
LayerCount: 2
Fore
SplineSet
127.337890625 682.260742188 m 6
 156.56640625 682.260742188 188.536132812 658.78515625 188.536132812 624.284179688 c 4
 188.536132812 509.9375 114.454101562 448.739257812 46.8134765625 448.739257812 c 5
 48.4228515625 472.89453125 l 5
 99.958984375 472.89453125 128.948242188 531.86328125 128.948242188 561.47265625 c 4
 128.948242188 585.631835938 75.80078125 593.68359375 75.80078125 630.725585938 c 4
 75.80078125 659.712890625 96.7392578125 682.260742188 124.1171875 682.260742188 c 6
 127.337890625 682.260742188 l 6
EndSplineSet
Validated: 1
EndChar

StartChar: emdash
Encoding: 8212 8212 165
GlifName: emdash
Width: 697
VWidth: 0
Flags: W
HStem: 276 44<68.0352 616.947>
LayerCount: 2
Fore
SplineSet
77 276 m 5
 71 278 68 289 68 300 c 4
 68 311 71 320 77 320 c 5
 611 320 l 5
 615 320 617 307 617 295 c 4
 617 285 616 276 611 276 c 5
 77 276 l 5
EndSplineSet
Validated: 1
EndChar

StartChar: endash
Encoding: 8211 8211 166
GlifName: endash
Width: 515
VWidth: 0
Flags: W
HStem: 276 44<68.0352 445.947>
LayerCount: 2
Fore
SplineSet
77 276 m 5
 71 278 68 289 68 300 c 4
 68 311 71 320 77 320 c 5
 440 320 l 5
 444 320 446 307 446 295 c 4
 446 285 445 276 440 276 c 5
 77 276 l 5
EndSplineSet
Validated: 1
EndChar

StartChar: uni2010
Encoding: 8208 8208 167
GlifName: uni2010
Width: 403
VWidth: 0
Flags: W
HStem: 276 44<68 336>
VStem: 68 268<276 320>
LayerCount: 2
Fore
SplineSet
68 276 m 5
 68 320 l 5
 336 320 l 5
 336 276 l 5
 68 276 l 5
EndSplineSet
Validated: 1
EndChar

StartChar: uni2015
Encoding: 8213 8213 172
GlifName: uni2015
Width: 2000
VWidth: 0
Flags: W
HStem: 276 44<68 1933>
LayerCount: 2
Fore
SplineSet
68 276 m 1
 68 320 l 1
 1933 320 l 1
 1933 276 l 1
 68 276 l 1
EndSplineSet
Validated: 1
EndChar

StartChar: figuredash
Encoding: 8210 8210 173
GlifName: figuredash
Width: 539
VWidth: 0
Flags: W
HStem: 276 44<68 472>
LayerCount: 2
Fore
SplineSet
68 276 m 1
 68 320 l 1
 472 320 l 1
 472 276 l 1
 68 276 l 1
EndSplineSet
Validated: 1
EndChar

StartChar: uni2011
Encoding: 8209 8209 174
GlifName: uni2011
Width: 403
VWidth: 0
Flags: W
HStem: 276 44<68 336>
VStem: 68 268<276 320>
LayerCount: 2
Fore
SplineSet
68 276 m 1
 68 320 l 1
 336 320 l 1
 336 276 l 1
 68 276 l 1
EndSplineSet
Validated: 1
EndChar

StartChar: uni2034
Encoding: 8244 8244 175
GlifName: uni2034
Width: 427
VWidth: 0
Flags: W
HStem: 501 166<75.875 111.771 191.875 227.771 307.875 343.771>
VStem: 65 59<560.167 666.305> 181 59<560.167 666.305> 297 59<560.167 666.305>
CounterMasks: 1 70
LayerCount: 2
Fore
SplineSet
324 667 m 2
 328 667 l 2
 345 667 356 655 356 637 c 0
 356 635 356 632 355 629 c 2
 343 511 l 2
 343 505 339 501 333 501 c 2
 319 501 l 2
 313 501 309 505 309 511 c 2
 297 629 l 2
 297 631 297 633 297 634 c 0
 297 652 309 667 324 667 c 2
208 667 m 2
 212 667 l 2
 229 667 240 655 240 637 c 0
 240 635 240 632 239 629 c 2
 227 511 l 2
 227 505 223 501 217 501 c 2
 203 501 l 2
 197 501 193 505 193 511 c 2
 181 629 l 2
 181 631 181 633 181 634 c 0
 181 652 193 667 208 667 c 2
92 667 m 2
 96 667 l 2
 113 667 124 655 124 637 c 0
 124 635 124 632 123 629 c 2
 111 511 l 2
 111 505 107 501 101 501 c 2
 87 501 l 2
 81 501 77 505 77 511 c 2
 65 629 l 2
 65 631 65 633 65 634 c 0
 65 652 77 667 92 667 c 2
EndSplineSet
Validated: 1
EndChar

StartChar: uni2016
Encoding: 8214 8214 176
GlifName: uni2016
Width: 293
VWidth: 0
Flags: W
VStem: 63 44<-110.873 737.95> 180 44<-110.873 737.95>
LayerCount: 2
Fore
SplineSet
180 728 m 5
 182 734 193 738 204 738 c 4
 215 738 224 738 224 732 c 5
 224 -102 l 5
 224 -106 211 -111 199 -111 c 4
 189 -111 180 -111 180 -106 c 5
 180 728 l 5
63 728 m 1
 65 734 76 738 87 738 c 0
 98 738 107 738 107 732 c 1
 107 -102 l 1
 107 -106 94 -111 82 -111 c 0
 72 -111 63 -111 63 -106 c 1
 63 728 l 1
EndSplineSet
Validated: 1
EndChar

StartChar: guillemotleft
Encoding: 171 171 180
GlifName: guillemotleft
Width: 451
VWidth: 0
Flags: W
LayerCount: 2
Fore
SplineSet
177 342 m 0
 177 346 184 352 184 352 c 0
 264 423 323 458 374 518 c 1
 375 519 376 519 377 519 c 0
 381 519 386 515 386 509 c 0
 386 507 386 506 385 504 c 1
 349 448 304 395 243 343 c 1
 304 292 349 237 385 181 c 1
 386 179 386 178 386 176 c 0
 386 170 381 166 377 166 c 0
 376 166 375 166 374 167 c 1
 323 227 264 262 184 333 c 0
 184 333 177 339 177 342 c 0
39 342 m 0
 39 346 46 352 46 352 c 0
 126 423 185 458 236 518 c 1
 237 519 238 519 239 519 c 0
 243 519 248 515 248 509 c 0
 248 507 248 506 247 504 c 1
 211 448 166 395 105 343 c 1
 166 292 211 237 247 181 c 1
 248 179 248 178 248 176 c 0
 248 170 243 166 239 166 c 0
 238 166 237 166 236 167 c 1
 185 227 126 262 46 333 c 0
 46 333 39 339 39 342 c 0
EndSplineSet
Validated: 1
EndChar

StartChar: guillemotright
Encoding: 187 187 181
GlifName: guillemotright
Width: 451
VWidth: 0
Flags: W
LayerCount: 2
Fore
SplineSet
261 342 m 4
 261 339 254 333 254 333 c 4
 174 262 115 227 64 167 c 5
 63 166 62 166 61 166 c 4
 57 166 52 170 52 176 c 4
 52 178 52 179 53 181 c 5
 89 237 134 292 195 343 c 5
 134 395 89 448 53 504 c 5
 52 506 52 507 52 509 c 4
 52 515 57 519 61 519 c 4
 62 519 63 519 64 518 c 5
 115 458 174 423 254 352 c 4
 254 352 261 346 261 342 c 4
399 342 m 4
 399 339 392 333 392 333 c 4
 312 262 253 227 202 167 c 5
 201 166 200 166 199 166 c 4
 195 166 190 170 190 176 c 4
 190 178 190 179 191 181 c 5
 227 237 272 292 333 343 c 5
 272 395 227 448 191 504 c 5
 190 506 190 507 190 509 c 4
 190 515 195 519 199 519 c 4
 200 519 201 519 202 518 c 5
 253 458 312 423 392 352 c 4
 392 352 399 346 399 342 c 4
EndSplineSet
Validated: 1
EndChar

StartChar: registered
Encoding: 174 174 182
GlifName: registered
Width: 675
VWidth: 0
Flags: W
HStem: 101.639 34.1084<205.239 371.419> 203.36 10.1504<149.985 170.935 225.425 246.375 422.254 453.838> 340.478 16.583<219.645 254.475> 493.166 14.374<149.985 161.946 220.791 295.949> 573.253 28.1084<217.433 356.408>
VStem: 24.957 38.1074<266.764 432.473> 175.831 43.0039<214.017 341.489 357.061 492.985> 342.765 42.9307<380.518 471.05> 494.936 38.1074<257.093 440.766>
LayerCount: 2
Fore
SplineSet
218.834960938 357.060546875 m 1
 224.504882812 357.060546875 230.985351562 357.060546875 236.655273438 357.060546875 c 0
 295.78515625 357.060546875 342.764648438 378.9296875 342.764648438 424.110351562 c 0
 342.764648438 475.860351562 291.735351562 492.780273438 261.764648438 492.780273438 c 0
 248.462890625 492.780273438 234.6640625 493.166015625 229.849609375 493.166015625 c 0
 228.2421875 493.166015625 220.78515625 492.985351562 220.78515625 492.985351562 c 2
 220.78515625 492.334960938 218.9140625 425.557617188 218.9140625 378.879882812 c 0
 218.9140625 370.782226562 218.834960938 363.540039062 218.834960938 357.060546875 c 1
234.224609375 215.129882812 m 0
 238.275390625 214.3203125 242.325195312 213.510742188 246.375 213.510742188 c 1
 246.375 203.360351562 l 1
 149.985351562 203.360351562 l 1
 149.985351562 213.510742188 l 1
 154.03515625 213.510742188 158.084960938 214.3203125 162.135742188 215.129882812 c 0
 171.044921875 216.75 175.905273438 221.610351562 175.905273438 227.280273438 c 0
 175.905273438 234.5703125 175.831054688 330.13671875 175.831054688 401.435546875 c 0
 175.831054688 439.487304688 175.905273438 466.860351562 175.905273438 475.76953125 c 0
 175.905273438 483.060546875 171.044921875 491.969726562 162.135742188 494.400390625 c 0
 158.084960938 495.209960938 154.03515625 495.209960938 149.985351562 495.209960938 c 1
 149.985351562 506.73046875 l 1
 154.03515625 506.73046875 158.89453125 506.73046875 162.9453125 506.73046875 c 0
 193.724609375 506.73046875 230.174804688 507.540039062 260.955078125 507.540039062 c 0
 332.235351562 507.540039062 385.6953125 481.620117188 385.6953125 424.919921875 c 0
 385.6953125 381.989257812 347.625 354.450195312 309.5546875 347.16015625 c 1
 350.0546875 296.129882812 388.935546875 246.719726562 409.185546875 224.040039062 c 0
 413.235351562 219.1796875 417.28515625 215.939453125 422.14453125 215.129882812 c 0
 424.291999628 214.700699764 438.13604787 214.499042461 451.275100164 214.404291124 c 1
 478.983579893 250.903210298 494.935546875 297.606662853 494.935546875 349.063476562 c 0
 494.935546875 468.533203125 407.200195312 573.252929688 287.73046875 573.252929688 c 0
 168.259765625 573.252929688 63.064453125 468.533203125 63.064453125 349.063476562 c 0
 63.064453125 229.59375 170.006835938 135.747070312 289.475585938 135.747070312 c 0
 348.122062011 135.747070312 398.700550879 158.361201931 434.999996735 195.519412914 c 1
 436.864837276 197.428371485 469.692382812 201.375976562 471.48046875 203.360351562 c 1
 375.974609375 203.360351562 l 2
 355.724609375 203.360351562 343.575195312 229.709960938 337.094726562 236.189453125 c 2
 254.474609375 340.6796875 l 2
 249.614257812 340.6796875 243.9453125 340.477539062 238.275390625 340.477539062 c 0
 232.60546875 340.477539062 226.125 340.6796875 219.64453125 341.489257812 c 1
 220.455078125 226.469726562 l 2
 220.455078125 221.610351562 225.314453125 216.75 234.224609375 215.129882812 c 0
24.95703125 349.063476562 m 0
 24.95703125 489.616210938 147.176757812 601.361328125 287.73046875 601.361328125 c 0
 428.283203125 601.361328125 533.04296875 489.616210938 533.04296875 349.063476562 c 0
 533.04296875 208.510742188 430.029296875 101.638671875 289.475585938 101.638671875 c 0
 148.923828125 101.638671875 24.95703125 208.510742188 24.95703125 349.063476562 c 0
EndSplineSet
Validated: 1
EndChar

StartChar: copyright
Encoding: 169 169 183
GlifName: copyright
Width: 601
VWidth: 0
Flags: W
HStem: 46.8672 41.25<213.18 404.134> 157.776 38.7402<254.651 387.667> 456.384 30.3535<248.07 339.772> 550.883 41.25<211.571 402.525>
VStem: 24.0049 41.25<229.709 408.471> 147.973 51.417<250.479 414.303> 532.745 41.25<223.972 414.224>
LayerCount: 2
Fore
SplineSet
417.306640625 225.502929688 m 5
 429.6875 207.418945312 l 5
 391.81640625 172.44140625 357.32421875 157.776367188 304.176757812 157.776367188 c 4
 220.607421875 157.776367188 147.97265625 217.883789062 147.97265625 327.068359375 c 7
 147.97265625 431.822265625 206.828125 486.737304688 301.458007812 486.737304688 c 7
 337.427734375 486.737304688 382.375976562 469.836914062 419.208007812 431.053710938 c 4
 421.2421875 428.911132812 422.352539062 426.85546875 422.352539062 424.921875 c 7
 422.352539062 415.734375 404.729492188 409.317382812 392.36328125 409.317382812 c 7
 348.118164062 409.317382812 354.283203125 456.383789062 295.780273438 456.383789062 c 4
 237.78515625 456.383789062 199.389648438 402.966796875 199.389648438 334.287109375 c 4
 199.389648438 260.732421875 237.287109375 196.516601562 324.513671875 196.516601562 c 7
 352.791015625 196.516601562 383.4765625 201.677734375 417.306640625 225.502929688 c 5
65.2548828125 319.02734375 m 4
 65.2548828125 189.705078125 181.017578125 88.1171875 310.33984375 88.1171875 c 4
 439.663085938 88.1171875 532.745117188 189.705078125 532.745117188 319.02734375 c 4
 532.745117188 448.350585938 437.7734375 550.8828125 308.450195312 550.8828125 c 4
 179.126953125 550.8828125 65.2548828125 448.350585938 65.2548828125 319.02734375 c 4
24.0048828125 319.02734375 m 4
 24.0048828125 471.172851562 156.3046875 592.1328125 308.450195312 592.1328125 c 4
 460.595703125 592.1328125 573.995117188 471.172851562 573.995117188 319.02734375 c 4
 573.995117188 166.8828125 462.485351562 46.8671875 310.33984375 46.8671875 c 4
 158.1953125 46.8671875 24.0048828125 166.8828125 24.0048828125 319.02734375 c 4
EndSplineSet
Validated: 1
EndChar

StartChar: degree
Encoding: 176 176 185
GlifName: degree
Width: 186
VWidth: 0
Flags: W
HStem: 490.176 28.5488<61.8662 121.064> 603.035 28.5488<60.6418 121.336>
VStem: 20.959 29.2168<530.455 592.445> 131.824 28.2168<529.888 591.836>
LayerCount: 2
Fore
SplineSet
50.17578125 561.879882812 m 0
 50.17578125 540.455078125 67.90625 518.724609375 92.3310546875 518.724609375 c 0
 112.754882812 518.724609375 131.82421875 537.455078125 131.82421875 560.879882812 c 0
 131.82421875 582.3046875 114.754882812 603.03515625 92.3310546875 603.03515625 c 0
 69.90625 603.03515625 50.17578125 585.3046875 50.17578125 561.879882812 c 0
20.958984375 558.879882812 m 0
 20.958984375 596.25390625 50.9638671875 631.583984375 88.337890625 631.583984375 c 0
 125.713867188 631.583984375 160.041015625 597.25390625 160.041015625 559.879882812 c 0
 160.041015625 522.505859375 127.04296875 490.17578125 89.6689453125 490.17578125 c 0
 52.2939453125 490.17578125 20.958984375 521.505859375 20.958984375 558.879882812 c 0
EndSplineSet
Validated: 1
EndChar

StartChar: thorn
Encoding: 254 254 188
GlifName: thorn
Width: 526
VWidth: 0
Flags: W
HStem: -232 15.5625<35 64.3503 143.884 173.123> -12.7969 21.7861<215.894 318.016> 479.146 29.917<178.077 313.249> 734.2 13.585<37.4092 51.6306>
VStem: 71.2266 65.8223<-215.212 23.4873 71.6936 456.835 470.669 730.678> 411.152 76.0205<116.82 370.453>
LayerCount: 2
Fore
SplineSet
156.1640625 -214.731445312 m 0
 161.701171875 -215.854492188 167.352539062 -216.360351562 173.123046875 -216.4375 c 1
 173.123046875 -232 l 1
 35 -232 l 1
 35 -216.4375 l 1
 40.771484375 -216.360351562 46.4208984375 -215.8515625 51.9599609375 -214.731445312 c 0
 64.845703125 -212.125 69.7548828125 -203.587890625 71.2265625 -194.62109375 c 2
 71.2265625 695.853515625 l 2
 71.2265625 714.216796875 64.80859375 726.307617188 51.8798828125 730.8984375 c 0
 46.5556640625 732.7890625 41.57421875 734.200195312 37.4091796875 734.200195312 c 1
 37.4091796875 747.78515625 l 1
 128.112304688 771.982421875 l 2
 129.190429688 772.270507812 130.149414062 772.366210938 131 772.366210938 c 3
 135.568359375 772.366210938 137.00390625 767.109375 137.048828125 755.129882812 c 0
 137.048828125 746.642578125 137.044921875 479.15625 137.044921875 470.668945312 c 1
 171.065429688 495.611328125 206.864257812 509.063476562 257.282226562 509.063476562 c 0
 378.114257812 509.063476562 487.172851562 448.803710938 487.172851562 251 c 3
 487.172851562 72.630859375 407.973632812 -12.796875 260 -12.796875 c 3
 222.524414062 -12.796875 178.56640625 -4.197265625 136.983398438 23.4873046875 c 1
 136.954101562 -194.954101562 l 2
 138.4921875 -203.797851562 143.438476562 -212.150390625 156.1640625 -214.731445312 c 0
137.041992188 445.549804688 m 1
 136.997070312 117.901367188 l 1
 156.577148438 60.068359375 192.034179688 8.9892578125 269.612304688 8.9892578125 c 0
 354.774414062 8.9892578125 411.15234375 92.0771484375 411.15234375 214.819335938 c 0
 411.15234375 371.513671875 369.494140625 479.146484375 242 479.146484375 c 3
 212.106445312 479.146484375 175.725585938 467.590820312 137.041992188 445.549804688 c 1
EndSplineSet
Validated: 1
EndChar

StartChar: multiply
Encoding: 215 215 189
GlifName: multiply
Width: 404
VWidth: 0
Flags: W
HStem: 166.898 236.474
VStem: 73.707 236.474
LayerCount: 2
Fore
SplineSet
105.721679688 166.8984375 m 6
 102.083984375 163.260742188 92.6240234375 168.353515625 84.62109375 176.357421875 c 4
 76.6162109375 184.361328125 70.068359375 195.275390625 73.70703125 198.913085938 c 6
 157.381835938 282.587890625 l 6
 160.291992188 285.499023438 162.474609375 290.592773438 158.836914062 294.231445312 c 6
 81.708984375 371.357421875 l 5
 78.798828125 377.177734375 84.62109375 387.365234375 92.6240234375 395.368164062 c 4
 100.626953125 403.372070312 109.359375 407.73828125 113.724609375 403.372070312 c 6
 189.396484375 327.700195312 l 6
 195.217773438 321.87890625 200.310546875 325.517578125 202.493164062 327.700195312 c 6
 277.4375 402.64453125 l 5
 286.168945312 398.280273438 293.4453125 393.913085938 299.266601562 388.091796875 c 4
 305.0859375 382.271484375 307.998046875 376.451171875 310.180664062 369.903320312 c 5
 234.508789062 294.231445312 l 6
 232.325195312 292.047851562 228.6875 288.41015625 233.053710938 284.043945312 c 6
 312.362304688 204.733398438 l 5
 315.272460938 201.82421875 307.26953125 190.91015625 298.5390625 182.178710938 c 4
 291.262695312 174.90234375 283.985351562 169.080078125 280.34765625 172.719726562 c 6
 201.038085938 252.029296875 l 6
 198.127929688 254.939453125 194.489257812 255.666992188 190.8515625 252.029296875 c 6
 105.721679688 166.8984375 l 6
EndSplineSet
Validated: 1
EndChar

StartChar: AE
Encoding: 198 198 191
GlifName: A_E_
Width: 948
VWidth: 0
Flags: W
HStem: 0 20.9922<43 66.625 159.491 207 421.997 470.637 573.354 751.968> 342 29<319.376 480.226 560.837 737.547> 691.94 38.3927<466.363 481> 709 21.333<363 412.195 572.174 724.252>
VStem: 481.739 77.6299<48.5195 339.07 375.562 691.93> 771.243 15.875<283.025 306.825 406.58 430.521> 822.506 16<590.986 616.972> 856.997 16<110.335 139.014>
LayerCount: 2
Fore
SplineSet
320 379 m 4xef
 319.559570312 377.899414062 319.374023438 376.896484375 319.374023438 376 c 7
 319.374023438 372.825195312 322.100585938 371 326 371 c 6
 467 371 l 5
 475 371 l 6
 479.6796875 371 481.739257812 372.825195312 481.739257812 376 c 7
 481.739257812 376.896484375 481.440429688 377.899414062 481 379 c 4
 481 688 l 6
 481 690.559583546 479.767151817 691.940276076 478.196913941 691.940276076 c 4
 476.699781975 691.940276076 474.89594485 690.685153202 473.561523438 688 c 6
 320 379 l 4xef
415.2109375 683.169921875 m 0
 415.2109375 703 405.84375 708.2734375 387.37109375 712.01171875 c 0
 379.4140625 713.622070312 371.291992188 714.348632812 363 714.458007812 c 1
 363 730.333007812 l 1
 623.043945312 730.333007812 l 1
 623.043945312 730 l 1
 821.505859375 730 l 1
 838.505859375 590 l 1
 822.505859375 590.986328125 l 1
 809.97265625 651.469726562 780.55859375 678.1484375 721.505859375 699.802734375 c 0
 701.455078125 707.155273438 668.1875 709 640.505859375 709 c 0xdf
 620.505859375 709 610.131835938 707.991210938 590.185546875 705.60546875 c 0
 573.510742188 703.611328125 562.958984375 692.576171875 562.810546875 681.03125 c 2
 559.369140625 377.077148438 l 1
 588.696289062 374.791992188 641.063476562 372 662.997070312 372 c 0
 690.124023438 372 711.69921875 374.864257812 741.985351562 377.659179688 c 0
 754.182617188 380.342773438 765.17578125 391.029296875 768.795898438 406.15234375 c 0
 771.231445312 415.185546875 770.41015625 429.421875 771.243164062 430.520507812 c 2
 787.118164062 430.520507812 l 1
 787.118164062 283.025390625 l 1
 771.243164062 283.025390625 l 2
 770.41015625 284.124023438 771.231445312 295.185546875 768.795898438 307.396484375 c 0
 766.290039062 324.951171875 748.40625 334.3515625 738.932617188 336.530273438 c 0
 709.264648438 339.4296875 686.747070312 343 662.997070312 343 c 0
 640.080078125 343 588.370117188 339.911132812 559.465820312 337.352539062 c 1
 562.806640625 54.51953125 l 2
 562.806640625 41.2353515625 571.323242188 26.708984375 590.676757812 24.39453125 c 0
 609.6015625 22.130859375 619.909179688 20.9921875 637.997070312 20.9921875 c 0
 670.01953125 20.9921875 713.013671875 21.7451171875 755.997070312 32.197265625 c 0
 817.114257812 47.0595703125 844.463867188 78.5302734375 856.997070312 139.013671875 c 1
 872.997070312 140 l 1
 855.997070312 0 l 1
 615.046875 0 l 1
 535.48828125 0 l 1
 520.997070312 0 l 1
 507.556640625 0 l 1
 421.997070312 0 l 1
 421.997070312 15.947265625 l 1
 432.330078125 16.05859375 442.5234375 16.3994140625 452.368164062 18.39453125 c 0
 471.470703125 22.265625 480.23828125 48.51953125 480.23828125 48.51953125 c 1
 480.23828125 136.346679688 480.245117188 254.172851562 480.245117188 342 c 1
 309 342 l 2
 303 342 301.375976562 338.256835938 299.530273438 333.770507812 c 2
 166 74 l 2
 159.959960938 60.107421875 157.4765625 49.771484375 157.4765625 42.001953125 c 0
 157.4765625 24.044921875 170.73828125 19.7919921875 184 17 c 0
 192 16 199 16 207 16 c 1
 207 0 l 1
 43 0 l 1
 43 16 l 1
 51 16 59 17 67 18 c 0
 82 22 88.2802734375 38.37890625 97 55 c 2
 408 665 l 2
 410.127929688 669.055664062 415.2109375 676.344726562 415.2109375 683.169921875 c 0
EndSplineSet
Validated: 1
EndChar

StartChar: onequarter
Encoding: 188 188 192
GlifName: onequarter
Width: 555
VWidth: 0
Flags: W
HStem: -10 21G<70 108.48> 181.014 20.9678<314.156 386.406 423.463 464.484> 317.243 8.74805<92.2539 105.654 145.261 158.736>
VStem: 90.0664 52.9248<564.365 582.703> 108 34.9912<325.991 564.359> 386.406 37.0566<62.4824 181.014 202.012 288.359>
LayerCount: 2
Fore
SplineSet
155.674804688 325.991210938 m 4xec
 158.736328125 325.991210938 l 5
 158.736328125 317.243164062 l 5
 92.25390625 317.243164062 l 5
 92.25390625 325.991210938 l 5
 95.3154296875 325.991210938 l 4
 104.024414062 325.991210938 108 331.672851562 108 336.350585938 c 4
 108 548 l 4xec
 108 556.048828125 107.15625 564.365234375 103.625976562 564.365234375 c 4
 95.5830078125 564.365234375 92.873046875 562.750976562 90.06640625 562.185546875 c 5
 90.06640625 571.80078125 l 5xf4
 106.32421875 578.420898438 118.259765625 585.790039062 130.369140625 597.189453125 c 4
 131.782226562 598.548828125 133.575195312 598.978515625 135.118164062 598.978515625 c 4
 138.650390625 598.978515625 142.991210938 596.420898438 142.991210938 591.651367188 c 4
 142.991210938 336.3515625 l 4
 142.991210938 331.309570312 147.259765625 325.991210938 155.674804688 325.991210938 c 4xec
386.40625 201.595703125 m 1
 386.40625 288.359375 l 1
 364.60546875 259.544921875 334.2421875 224.791992188 314.15625 201.981445312 c 1
 337.29296875 201.80859375 373.677734375 201.747070312 386.40625 201.595703125 c 1
277.221679688 194.153320312 m 1
 317.3828125 243.475585938 364.75 292.859375 400.8671875 341.534179688 c 0
 404.580078125 342.82421875 409.361328125 343.284179688 414.573242188 343.284179688 c 0
 419.252929688 343.284179688 423.462890625 340.526367188 423.462890625 334.26953125 c 0
 423.462890625 202.01171875 l 1
 440.546875 202.327148438 453.87890625 203.5625 466.936523438 206.044921875 c 1
 465.768554688 201.232421875 465.013671875 197.3671875 465.013671875 193.447265625 c 0
 465.013671875 188.51953125 465.743164062 184.700195312 466.282226562 181.013671875 c 1
 422.587890625 181.013671875 l 1
 422.587890625 68.8779296875 l 0
 422.587890625 66.4755859375 421.389648438 62.482421875 416.901367188 62.482421875 c 0
 394.157226562 62.482421875 l 0
 390.036132812 62.482421875 387.900390625 65.4140625 387.900390625 68.025390625 c 0
 386.40625 181.013671875 l 1
 280.874023438 181.013671875 l 0
 278.0703125 181.013671875 274.5390625 183.252929688 274.5390625 187.247070312 c 0
 274.5390625 189.733398438 275.58984375 192.216796875 277.221679688 194.153320312 c 1
380 644 m 1
 409 644 l 1
 99 -10 l 1
 70 -10 l 1
 380 644 l 1
EndSplineSet
Validated: 1
EndChar

StartChar: onehalf
Encoding: 189 189 193
GlifName: onehalf
Width: 555
VWidth: 0
Flags: W
HStem: -10 21G<70 108.48> 62.4824 25.3682<336.531 467.202> 317.243 8.74805<92.2539 105.654 145.261 158.736> 323.603 19.6816<363.142 427.352>
VStem: 90.0664 52.9248<564.365 582.703> 108 34.9912<325.991 564.359> 441.025 35.416<241.205 316.406> 477.794 8.0791<108.009 110.258>
LayerCount: 2
Fore
SplineSet
155.674804688 325.991210938 m 4xe7
 158.736328125 325.991210938 l 5
 158.736328125 317.243164062 l 5
 92.25390625 317.243164062 l 5
 92.25390625 325.991210938 l 5
 95.3154296875 325.991210938 l 4
 104.024414062 325.991210938 108 331.672851562 108 336.350585938 c 4
 108 548 l 4xe7
 108 556.048828125 107.15625 564.365234375 103.625976562 564.365234375 c 4
 95.5830078125 564.365234375 92.873046875 562.750976562 90.06640625 562.185546875 c 5
 90.06640625 571.80078125 l 5xeb
 106.32421875 578.420898438 118.259765625 585.790039062 130.369140625 597.189453125 c 4
 131.782226562 598.548828125 133.575195312 598.978515625 135.118164062 598.978515625 c 4
 138.650390625 598.978515625 142.991210938 596.420898438 142.991210938 591.651367188 c 4
 142.991210938 336.3515625 l 4
 142.991210938 331.309570312 147.259765625 325.991210938 155.674804688 325.991210938 c 4xe7
333.84765625 291.232421875 m 5
 326.018554688 297.557617188 l 5
 327.298828125 299.86328125 349.616210938 343.284179688 403.1953125 343.284179688 c 4
 449.954101562 343.284179688 476.44140625 321.751953125 476.44140625 285.678710938 c 4
 476.44140625 259.2265625 452.813476562 230.424804688 415.197265625 184.760742188 c 4
 383.869140625 147.827148438 351.079101562 104.794921875 336.53125 87.8505859375 c 5
 442.32421875 87.8505859375 l 4
 463.352539062 87.8505859375 473.10546875 95.4931640625 477.017578125 108.008789062 c 4
 477.793945312 110.495117188 l 5
 485.873046875 108.716796875 l 5
 467.202148438 62.482421875 l 5
 296.674804688 62.482421875 l 5
 296.674804688 81.083984375 l 5
 341.643554688 133.556640625 378.063476562 179.91796875 404.288085938 212.899414062 c 4
 421.841796875 234.973632812 441.025390625 259.663085938 441.025390625 277.362304688 c 4
 441.025390625 310.220703125 424.853515625 323.602539062 392.858398438 323.602539062 c 4xd3
 364.98046875 323.602539062 348.06640625 309.12109375 333.84765625 291.232421875 c 5
380 644 m 5
 409 644 l 5
 99 -10 l 5
 70 -10 l 5
 380 644 l 5
EndSplineSet
Validated: 1
EndChar

StartChar: threequarters
Encoding: 190 190 194
GlifName: threequarters
Width: 555
VWidth: 0
Flags: W
HStem: -10 21G<104 142.48> 181.014 20.9678<362.156 434.406 471.463 512.484> 314.421 11.3721<80.2828 131.901> 577.29 20.1191<81.8471 138.77>
VStem: 150.503 36.8867<517.127 572.157> 177.768 32.3662<352.746 436.182> 434.406 37.0566<62.4824 181.014 202.012 288.359>
LayerCount: 2
Fore
SplineSet
48.6865234375 542.395507812 m 5xfa
 39.0810546875 548.938476562 l 5
 40.1728515625 550.515625 70.1962890625 597.409179688 121.173828125 597.409179688 c 4
 165.45703125 597.409179688 187.389648438 579.86328125 187.389648438 552.45703125 c 4xfa
 187.389648438 526.547851562 156.815429688 503.259765625 129.96875 483.55859375 c 5
 171.96484375 479.6015625 210.133789062 447.41796875 210.133789062 403.8984375 c 4
 210.133789062 349.056640625 169.924804688 314.420898438 101.978515625 314.420898438 c 4
 75.17578125 314.420898438 36.0537109375 323.451171875 36.0537109375 336.727539062 c 4
 36.0537109375 337.541992188 36.166015625 338.986328125 36.814453125 340.284179688 c 4
 36.9228515625 340.498046875 l 5
 37.0615234375 340.694335938 l 4
 39.052734375 343.481445312 41.39453125 347.224609375 47.86328125 347.224609375 c 4
 53.0830078125 347.224609375 58.51953125 345.137695312 64.1435546875 340.918945312 c 5
 72.501953125 334.55078125 87.626953125 325.79296875 101.978515625 325.79296875 c 4
 145.197265625 325.79296875 177.767578125 357.413085938 177.767578125 393.340820312 c 4xf6
 177.767578125 415.05078125 167.288085938 438.573242188 147.529296875 446.509765625 c 5
 135.110351562 451.408203125 122.125976562 452.197265625 109.486328125 452.197265625 c 4
 92.4873046875 452.197265625 74.46484375 442.08984375 68.4208984375 442.08984375 c 4
 64.455078125 442.08984375 61.0654296875 443.885742188 61.0654296875 447.217773438 c 4
 61.0654296875 449.528320312 64.4482421875 452.005859375 64.4736328125 452.026367188 c 5
 66.36328125 453.397460938 150.502929688 511.341796875 150.502929688 543.037109375 c 4
 150.502929688 563.388671875 132.827148438 577.290039062 111.576171875 577.290039062 c 4
 88.2412109375 577.290039062 63.59765625 561.6953125 48.6865234375 542.395507812 c 5xfa
434.40625 201.595703125 m 5
 434.40625 288.359375 l 5
 412.60546875 259.544921875 382.2421875 224.791992188 362.15625 201.981445312 c 5
 385.29296875 201.80859375 421.677734375 201.747070312 434.40625 201.595703125 c 5
325.221679688 194.153320312 m 5
 365.3828125 243.475585938 412.75 292.859375 448.8671875 341.534179688 c 4
 452.580078125 342.82421875 457.361328125 343.284179688 462.573242188 343.284179688 c 4
 467.252929688 343.284179688 471.462890625 340.526367188 471.462890625 334.26953125 c 4
 471.462890625 202.01171875 l 5
 488.546875 202.327148438 501.87890625 203.5625 514.936523438 206.044921875 c 5
 513.768554688 201.232421875 513.013671875 197.3671875 513.013671875 193.447265625 c 4
 513.013671875 188.51953125 513.743164062 184.700195312 514.282226562 181.013671875 c 5
 470.587890625 181.013671875 l 5
 470.587890625 68.8779296875 l 4
 470.587890625 66.4755859375 469.389648438 62.482421875 464.901367188 62.482421875 c 4
 442.157226562 62.482421875 l 4
 438.036132812 62.482421875 435.900390625 65.4140625 435.900390625 68.025390625 c 4
 434.40625 181.013671875 l 5
 328.874023438 181.013671875 l 4
 326.0703125 181.013671875 322.5390625 183.252929688 322.5390625 187.247070312 c 4
 322.5390625 189.733398438 323.58984375 192.216796875 325.221679688 194.153320312 c 5
414 644 m 5
 443 644 l 5
 133 -10 l 5
 104 -10 l 5
 414 644 l 5
EndSplineSet
Validated: 1
EndChar

StartChar: uni00B2
Encoding: 178 178 195
GlifName: uni00B_2
Width: 247
VWidth: 0
Flags: W
HStem: 366.51 32.7598<65.9697 199.319> 619 20.0898<88.6272 151.164>
VStem: 170.915 32.8145<541.456 605.785>
LayerCount: 2
Fore
SplineSet
59.1787109375 584.209960938 m 1
 49.869140625 592.08984375 l 1
 49.869140625 592.08984375 75.8388671875 639.08984375 127.779296875 639.08984375 c 0
 176.2890625 639.08984375 203.729492188 615.610351562 203.729492188 576.41015625 c 0
 203.729492188 531.330078125 101.126953125 445.049804688 65.9697265625 399.26953125 c 1
 174.5390625 399.26953125 l 2
 199.0390625 399.26953125 211.779296875 408.579101562 216.678710938 424.259765625 c 1
 223.5390625 423.279296875 l 1
 199.319335938 366.509765625 l 1
 16.0595703125 366.509765625 l 0
 16.0595703125 372.389648438 16.0595703125 383.168945312 16.0595703125 383.168945312 c 1
 67.587890625 444.26953125 170.915039062 548.509765625 170.915039062 566.149414062 c 0
 170.915039062 601.918945312 147.114257812 619 117 619 c 0
 87.599609375 619 74.369140625 603.319335938 59.1787109375 584.209960938 c 1
EndSplineSet
Validated: 1
EndChar

